<svg width="60" height="28" viewBox="0 0 60 28" fill="none" xmlns="http://www.w3.org/2000/svg">
<path d="M47.9891 22.3478C44.5485 23.7781 41.7844 24.3001 37.5706 24.3001C29.4523 24.3001 22.6676 20.3569 13.9308 20.9368C3.58956 21.6326 5.87043 25.8658 7.84202 25.3246C11.8625 24.1841 12.945 23.8942 15.4771 23.7782C25.8956 23.3143 30.4767 27.47 39.9288 26.9868C43.1181 26.8322 46.9647 25.8465 49.3035 24.8221C53.1114 23.1404 51.2944 20.9561 47.9891 22.3478Z" fill="#BB7D58"/>
<path d="M9.02107 4.70007C14.6846 1.91665 17.1588 1.70402 23.6921 3.44366C36.5075 6.8263 38.595 7.05833 44.0072 5.64729C46.5974 4.97076 50.9465 2.72855 50.9465 2.07136C50.9465 0.621653 49.0522 0.428246 46.8873 1.66533C38.8463 6.26571 31.5785 3.65636 26.7848 2.3613C22.397 1.1822 16.9655 -0.654085 12.8676 0.235066C8.26725 1.22086 4.15008 3.75301 5.0199 5.06741C5.71576 6.13052 6.21831 6.09179 9.02107 4.70007Z" fill="#BB7D58"/>
<path d="M56.9193 6.53631C53.382 9.01047 51.2364 10.1315 48.4917 10.9434C40.9339 13.1856 33.6467 13.3596 25.4317 11.446C17.4487 9.60975 11.9592 9.80304 5.88973 12.1226C1.05739 13.9782 -0.894872 15.4472 0.380866 16.2784C0.960747 16.6456 0.902787 16.6649 6.8369 14.7126C14.298 12.2578 18.4345 12.0065 25.915 13.5915C35.3477 15.5824 42.9441 15.4471 50.1926 13.1662C54.3484 11.8518 59.8767 8.58526 59.9926 7.34818C60.128 5.99512 58.369 5.51185 56.9193 6.53631Z" fill="#BB7D58"/>
</svg>
