<svg width="26" height="23" viewBox="0 0 26 23" fill="none" xmlns="http://www.w3.org/2000/svg">
<path fill-rule="evenodd" clip-rule="evenodd" d="M12.04 0.0343607C11.4926 0.205863 11.0339 0.741273 11.0327 1.21008C11.0321 1.42324 10.8566 2.81886 10.7559 3.41168C10.4538 5.18893 10.1807 6.21236 9.79848 6.9997C9.60059 7.40724 9.42986 7.56694 9.07451 7.67685C8.82415 7.75429 8.66426 7.75593 6.78109 7.70006C4.71705 7.6389 2.48956 7.68022 1.45596 7.79894C0.742678 7.88086 0.350376 8.11179 0.113826 8.58902C-0.102008 9.02455 -0.00659157 9.543 0.36333 9.94457C0.742022 10.3556 3.55139 12.0147 6.26242 13.4282C6.76506 13.6903 6.97474 13.8668 7.12903 14.1578C7.34965 14.5738 7.29068 14.998 6.89893 15.8132C6.39503 16.8618 4.636 20.8761 4.48464 21.3228C4.3614 21.6864 4.46936 22.1901 4.73671 22.499C5.17186 23.0017 5.8681 23.1262 6.50749 22.8153C7.70113 22.2349 10.3014 20.4421 11.7379 19.2091C12.4184 18.625 12.4866 18.5702 12.7105 18.4283C12.9797 18.2576 13.2899 18.2465 13.5195 18.3995C13.6069 18.4577 13.9166 18.7127 14.2077 18.9661C15.4889 20.0815 16.7394 21.0368 18.1897 22.0081C19.5842 22.9421 19.9291 23.0861 20.4737 22.9619C20.9272 22.8584 21.2347 22.6218 21.4091 22.2422C21.5666 21.8994 21.584 21.7085 21.4928 21.3207C21.4113 20.9743 19.8755 16.5511 19.5554 15.741C19.2472 14.961 19.1474 14.6291 19.1474 14.3846C19.1474 14.0618 19.1946 14.0209 20.5871 13.1359C22.079 12.1877 22.5193 11.9165 24.2943 10.8526C24.8245 10.5347 25.3727 10.1774 25.5125 10.0586C26.1582 9.50939 26.163 8.67938 25.5235 8.14146C25.0627 7.75391 25.2753 7.77072 20.7855 7.76686C16.4279 7.76315 16.5436 7.77052 16.3468 7.48358C16.2992 7.41418 16.1643 6.95183 16.047 6.45615C15.7117 5.03929 15.4918 4.3396 15.031 3.22428C14.5435 2.04457 13.7705 0.764343 13.2929 0.345869C12.9891 0.0795361 12.3794 -0.0720277 12.04 0.0343607Z" fill="#F2D3BF"/>
</svg>
