<svg width="28" height="22" viewBox="0 0 28 22" fill="none" xmlns="http://www.w3.org/2000/svg">
<path fill-rule="evenodd" clip-rule="evenodd" d="M15.6479 0.106866C15.3079 0.317782 15.2664 0.461075 15.2662 1.42528L15.266 2.28724L14.989 2.35717C13.8502 2.64472 12.2956 3.48672 11.3177 4.34568C10.9498 4.66887 10.9124 4.72017 10.8978 4.92116C10.8849 5.10062 10.9043 5.15783 11.0019 5.22739C11.2259 5.38705 11.3937 5.33644 11.8005 4.98658C14.8887 2.33039 19.3359 2.06602 22.6584 4.34111C23.7134 5.06354 24.5554 5.9262 25.2386 6.98459C26.2454 8.54434 26.7854 10.5406 26.6952 12.3703C26.5798 14.7143 25.6918 16.7832 24.0687 18.4902C23.6814 18.8974 23.601 19.0111 23.601 19.1511C23.601 19.3721 23.7629 19.5348 23.9834 19.5355C24.1328 19.5359 24.2298 19.4578 24.7352 18.9298C25.4782 18.1534 25.93 17.5059 26.4223 16.5118C26.8376 15.673 27.1078 14.9062 27.2858 14.0608C28.1282 10.0611 26.4381 5.89582 23.0522 3.62738C22.4093 3.19664 21.3526 2.68486 20.6544 2.46606L20.0665 2.28182L20.0664 1.44943C20.0663 0.509055 20.0191 0.336727 19.7026 0.121625C19.5247 0.000710941 19.5091 -0.000201356 17.6716 1.3316e-05C15.9169 0.00017432 15.8108 0.00580932 15.6479 0.106866ZM19.2752 1.4534V2.10203L18.8664 2.05716C18.3492 2.00049 17.0019 1.99915 16.4661 2.05486L16.0573 2.09731V1.45109V0.804819H17.6662H19.2752V1.4534ZM16.6112 4.51376C15.0334 4.74513 13.5185 5.53174 12.3761 6.71281C11.4061 7.71565 10.7792 8.86758 10.4232 10.3017C10.2931 10.8254 10.2827 10.9515 10.2827 11.9946C10.2827 13.0474 10.2922 13.1603 10.4283 13.7091C11.0045 16.034 12.4092 17.7977 14.4936 18.8137C15.6226 19.364 16.6019 19.565 17.9281 19.5188C19.1684 19.4756 20.0019 19.257 21.074 18.6938C21.8022 18.3112 22.4057 17.8455 23.0228 17.1898C24.0053 16.1459 24.6376 14.9223 24.945 13.4705C25.0744 12.8593 25.1056 11.5719 25.0068 10.9212C24.7545 9.25979 24.0648 7.87456 22.8923 6.67406C21.4593 5.20689 19.6372 4.44179 17.6214 4.46079C17.2399 4.46439 16.7852 4.48822 16.6112 4.51376ZM17.2706 5.88643C17.2706 6.45644 17.281 6.52487 17.3853 6.63778C17.5474 6.81333 17.8096 6.80539 17.9525 6.62056C18.0487 6.49621 18.0619 6.40508 18.0619 5.86416V5.24918L18.3388 5.28567C19.1719 5.39542 19.9221 5.6167 20.5676 5.94294C21.0199 6.17152 21.7357 6.64895 21.909 6.83754L22.0369 6.97681L21.6056 7.42633C21.1269 7.92528 21.0784 8.06466 21.3038 8.29393C21.5292 8.52325 21.6662 8.47388 22.1566 7.98689L22.5985 7.5481L22.7354 7.6783C22.9108 7.84515 23.3849 8.57311 23.5891 8.9892C23.9125 9.64813 24.1618 10.5148 24.2567 11.3103L24.2904 11.5921H23.689C23.1605 11.5921 23.0708 11.6056 22.9487 11.7034C22.7728 11.844 22.7621 12.0972 22.9243 12.2729C23.0318 12.3892 23.0789 12.3971 23.6647 12.3971H24.2904L24.2567 12.6789C24.1073 13.9303 23.6649 15.0745 22.9596 16.0339L22.6335 16.4775L22.1745 16.0205C21.6658 15.5142 21.5312 15.4639 21.3038 15.6953C21.0794 15.9236 21.1274 16.0645 21.5963 16.5532C21.8285 16.7951 22.0181 17.0156 22.0178 17.0431C22.0168 17.136 21.2041 17.7096 20.6937 17.9777C20.0712 18.3046 19.4076 18.5326 18.7516 18.6448C17.9925 18.7748 18.0619 18.8286 18.0619 18.1103C18.0619 17.524 18.0549 17.4836 17.9324 17.359C17.7714 17.1952 17.5547 17.1891 17.3926 17.3439C17.2784 17.4531 17.2706 17.5013 17.2706 18.0953C17.2706 18.831 17.3404 18.7755 16.5809 18.6436C15.4508 18.4476 14.4824 18.0149 13.5609 17.2943L13.2539 17.0541L13.706 16.5841C13.9547 16.3256 14.1581 16.0735 14.1581 16.024C14.1581 15.8649 14.0078 15.6319 13.8833 15.5979C13.6606 15.5372 13.6189 15.5617 13.153 16.0255L12.689 16.4874L12.3686 16.0478C12.1924 15.806 11.9666 15.4593 11.8667 15.2773C11.4836 14.5785 11.1516 13.5276 11.0713 12.7594L11.0334 12.3971H11.6486C12.2314 12.3971 12.2706 12.3902 12.3933 12.2654C12.5583 12.0975 12.5583 11.8917 12.3933 11.7239C12.2706 11.599 12.2314 11.5921 11.6486 11.5921H11.0334L11.0713 11.2298C11.1896 10.0981 11.6688 8.89066 12.3815 7.92839L12.6939 7.50667L13.1555 7.96618C13.6466 8.45515 13.7793 8.513 13.9939 8.33176C14.055 8.28008 14.12 8.15933 14.1382 8.06337C14.1692 7.90016 14.1417 7.85809 13.7128 7.41221L13.2544 6.93559L13.6844 6.60988C14.4862 6.00262 15.5809 5.51634 16.4793 5.36843C16.6969 5.33258 16.9105 5.29619 16.9541 5.2875C17.2805 5.22245 17.2706 5.20372 17.2706 5.88643ZM9.80595 5.97037C9.52092 6.3074 9.05975 7.08468 8.7473 7.75483C7.84084 9.69869 7.59406 11.915 8.0403 14.1045C8.61773 16.9378 10.5185 19.4759 13.1031 20.8649C15.935 22.3868 19.466 22.3777 22.2821 20.8412C22.9545 20.4744 23.0734 20.3704 23.0734 20.1494C23.0734 19.9192 22.918 19.7496 22.707 19.7496C22.6215 19.7496 22.4044 19.8374 22.2246 19.9446C20.328 21.0754 17.987 21.4626 15.8043 21.0063C14.6933 20.7741 13.3768 20.1863 12.4173 19.4941C11.7732 19.0295 10.7488 17.9868 10.2957 17.3346C8.36156 14.5505 8.07907 10.9576 9.55516 7.91583C9.68403 7.65018 9.96531 7.16475 10.1802 6.83711C10.4031 6.49723 10.5709 6.18434 10.5709 6.10856C10.5709 5.92722 10.3649 5.74228 10.1628 5.74228C10.0354 5.74228 9.95592 5.79305 9.80595 5.97037ZM3.45842 7.10083C3.30628 7.26565 3.31224 7.48611 3.47324 7.64991L3.6027 7.78166H5.36523C7.06842 7.78166 7.13241 7.77791 7.26672 7.67041C7.4463 7.52674 7.45764 7.24472 7.29025 7.08607C7.17878 6.9804 7.11337 6.97664 5.37399 6.97664H3.57316L3.45842 7.10083ZM17.4989 8.56007C17.4111 8.59763 17.3237 8.66928 17.3049 8.7193C17.286 8.76926 17.2706 9.53377 17.2706 10.4182V12.0263L17.4001 12.158C17.6442 12.4064 17.7222 12.3599 18.625 11.4274C19.5451 10.477 19.6064 10.3678 19.36 10.1171C19.131 9.88416 18.9962 9.93204 18.5038 10.4209L18.0619 10.8598V9.85991C18.0619 9.22689 18.0399 8.81091 18.0018 8.72606C17.9202 8.54386 17.7038 8.47243 17.4989 8.56007ZM2.20717 9.46979C2.13595 9.54224 2.07766 9.66407 2.07766 9.74055C2.07766 9.81703 2.13595 9.93885 2.20717 10.0113L2.33662 10.1431H4.46843C6.54522 10.1431 6.60377 10.1402 6.73919 10.0318C6.91338 9.89243 6.92979 9.6052 6.77269 9.44537C6.67061 9.34153 6.59686 9.33804 4.50193 9.33804H2.33662L2.20717 9.46979ZM0.604418 11.8408C0.468104 12.0171 0.465255 12.1868 0.595872 12.3509L0.696683 12.4776L3.38293 12.4924C6.04243 12.5071 6.07055 12.5062 6.20992 12.3946C6.38585 12.2538 6.403 11.9673 6.24516 11.8068C6.1424 11.7022 6.06933 11.6994 3.42671 11.6994H0.713722L0.604418 11.8408ZM2.30529 13.9002C2.06858 13.9972 2.01282 14.2845 2.18701 14.5098L2.29632 14.6512H4.48178C6.59686 14.6512 6.67056 14.6477 6.77269 14.5438C6.92979 14.384 6.91338 14.0968 6.73919 13.9574C6.60372 13.8489 6.54733 13.8463 4.51037 13.8495C3.36098 13.8514 2.3687 13.8742 2.30529 13.9002ZM3.47324 16.3393C3.30707 16.5083 3.30396 16.7412 3.4658 16.8959C3.58629 17.011 3.61235 17.0126 5.3913 17.0126C7.1244 17.0126 7.19883 17.0084 7.30022 16.9052C7.45732 16.7454 7.44092 16.4582 7.26672 16.3188C7.13241 16.2113 7.06842 16.2075 5.36523 16.2075H3.6027L3.47324 16.3393Z" fill="#BB7D58"/>
</svg>
