<svg width="71" height="46" viewBox="0 0 71 46" fill="none" xmlns="http://www.w3.org/2000/svg">
<path d="M9.76147 41.2935H9.76947L11.6655 36.6055H12.5455V42.2695H11.9695V37.3495H11.9535L9.90547 42.2695H9.60147L7.55347 37.3495H7.53747V42.2695H6.96147V36.6055H7.84147L9.76147 41.2935ZM14.0074 42.2695H13.3754L15.8234 36.6055H16.3834L18.8154 42.2695H18.1754L17.5514 40.7815H14.6234L14.0074 42.2695ZM14.8394 40.2535H17.3354L16.0874 37.2455L14.8394 40.2535ZM19.649 36.6055H21.529C21.881 36.6055 22.233 36.6642 22.585 36.7815C22.9423 36.8989 23.2623 37.0775 23.545 37.3175C23.833 37.5522 24.065 37.8482 24.241 38.2055C24.417 38.5575 24.505 38.9682 24.505 39.4375C24.505 39.9122 24.417 40.3255 24.241 40.6775C24.065 41.0295 23.833 41.3255 23.545 41.5655C23.2623 41.8002 22.9423 41.9762 22.585 42.0935C22.233 42.2109 21.881 42.2695 21.529 42.2695H19.649V36.6055ZM20.225 41.7575H21.369C21.7956 41.7575 22.1663 41.6909 22.481 41.5575C22.801 41.4242 23.065 41.2509 23.273 41.0375C23.481 40.8189 23.6356 40.5709 23.737 40.2935C23.8436 40.0162 23.897 39.7309 23.897 39.4375C23.897 39.1442 23.8436 38.8589 23.737 38.5815C23.6356 38.3042 23.481 38.0589 23.273 37.8455C23.065 37.6269 22.801 37.4509 22.481 37.3175C22.1663 37.1842 21.7956 37.1175 21.369 37.1175H20.225V41.7575ZM26.2797 41.7575H29.3117V42.2695H25.7037V36.6055H29.2157V37.1175H26.2797V39.0695H29.0237V39.5735H26.2797V41.7575ZM33.014 42.2695H32.438V36.6055H33.014V42.2695ZM38.5322 41.4295H38.5482V36.6055H39.1242V42.2695H38.4042L35.1082 37.3975H35.0922V42.2695H34.5162V36.6055H35.2362L38.5322 41.4295ZM43.2015 39.1495H43.2095L45.9055 36.6055H46.7295L43.8735 39.1735L46.8895 42.2695H46.0415L43.2095 39.2535H43.2015V42.2695H42.6255V36.6055H43.2015V39.1495ZM53.0537 39.4375C53.0537 39.8695 52.979 40.2669 52.8297 40.6295C52.6803 40.9922 52.4723 41.3069 52.2057 41.5735C51.9443 41.8349 51.6323 42.0402 51.2697 42.1895C50.9123 42.3389 50.523 42.4135 50.1017 42.4135C49.6803 42.4135 49.2883 42.3389 48.9257 42.1895C48.5683 42.0402 48.2563 41.8349 47.9897 41.5735C47.7283 41.3069 47.523 40.9922 47.3737 40.6295C47.2243 40.2669 47.1497 39.8695 47.1497 39.4375C47.1497 39.0055 47.2243 38.6082 47.3737 38.2455C47.523 37.8829 47.7283 37.5709 47.9897 37.3095C48.2563 37.0429 48.5683 36.8349 48.9257 36.6855C49.2883 36.5362 49.6803 36.4615 50.1017 36.4615C50.523 36.4615 50.9123 36.5362 51.2697 36.6855C51.6323 36.8349 51.9443 37.0429 52.2057 37.3095C52.4723 37.5709 52.6803 37.8829 52.8297 38.2455C52.979 38.6082 53.0537 39.0055 53.0537 39.4375ZM52.4457 39.4375C52.4457 39.1069 52.3923 38.7922 52.2857 38.4935C52.179 38.1949 52.0243 37.9335 51.8217 37.7095C51.619 37.4802 51.371 37.2989 51.0777 37.1655C50.7897 37.0322 50.4643 36.9655 50.1017 36.9655C49.739 36.9655 49.411 37.0322 49.1177 37.1655C48.8297 37.2989 48.5843 37.4802 48.3817 37.7095C48.179 37.9335 48.0243 38.1949 47.9177 38.4935C47.811 38.7922 47.7577 39.1069 47.7577 39.4375C47.7577 39.7682 47.811 40.0829 47.9177 40.3815C48.0243 40.6802 48.179 40.9415 48.3817 41.1655C48.5843 41.3895 48.8297 41.5682 49.1177 41.7015C49.411 41.8349 49.739 41.9015 50.1017 41.9015C50.4643 41.9015 50.7897 41.8349 51.0777 41.7015C51.371 41.5682 51.619 41.3895 51.8217 41.1655C52.0243 40.9415 52.179 40.6802 52.2857 40.3815C52.3923 40.0829 52.4457 39.7682 52.4457 39.4375ZM48.9257 35.4935C48.9257 35.3869 48.963 35.2935 49.0377 35.2135C49.1123 35.1282 49.211 35.0855 49.3337 35.0855C49.4563 35.0855 49.555 35.1282 49.6297 35.2135C49.7043 35.2935 49.7417 35.3869 49.7417 35.4935C49.7417 35.6002 49.7043 35.6962 49.6297 35.7815C49.555 35.8615 49.4563 35.9015 49.3337 35.9015C49.211 35.9015 49.1123 35.8615 49.0377 35.7815C48.963 35.6962 48.9257 35.6002 48.9257 35.4935ZM50.4617 35.4935C50.4617 35.3869 50.499 35.2935 50.5737 35.2135C50.6483 35.1282 50.747 35.0855 50.8697 35.0855C50.9923 35.0855 51.091 35.1282 51.1657 35.2135C51.2403 35.2935 51.2777 35.3869 51.2777 35.4935C51.2777 35.6002 51.2403 35.6962 51.1657 35.7815C51.091 35.8615 50.9923 35.9015 50.8697 35.9015C50.747 35.9015 50.6483 35.8615 50.5737 35.7815C50.499 35.6962 50.4617 35.6002 50.4617 35.4935ZM54.2505 36.6055H54.8265V39.0615H57.9145V36.6055H58.4905V42.2695H57.9145V39.5895H54.8265V42.2695H54.2505V36.6055ZM59.9927 36.6055H61.6807C61.8941 36.6055 62.1101 36.6295 62.3287 36.6775C62.5474 36.7202 62.7421 36.7975 62.9127 36.9095C63.0887 37.0162 63.2301 37.1629 63.3367 37.3495C63.4487 37.5362 63.5047 37.7709 63.5047 38.0535C63.5047 38.3522 63.4141 38.6135 63.2327 38.8375C63.0514 39.0562 62.8087 39.2002 62.5047 39.2695V39.2855C62.8727 39.3282 63.1767 39.4722 63.4167 39.7175C63.6621 39.9575 63.7847 40.2855 63.7847 40.7015C63.7847 40.9362 63.7341 41.1522 63.6327 41.3495C63.5367 41.5415 63.3981 41.7069 63.2167 41.8455C63.0354 41.9789 62.8141 42.0829 62.5527 42.1575C62.2914 42.2322 61.9981 42.2695 61.6727 42.2695H59.9927V36.6055ZM60.5687 39.0855H61.7287C61.8674 39.0855 62.0061 39.0695 62.1447 39.0375C62.2887 39.0055 62.4194 38.9522 62.5367 38.8775C62.6541 38.7975 62.7474 38.6935 62.8167 38.5655C62.8914 38.4375 62.9287 38.2802 62.9287 38.0935C62.9287 37.9122 62.8914 37.7602 62.8167 37.6375C62.7474 37.5095 62.6514 37.4055 62.5287 37.3255C62.4061 37.2455 62.2621 37.1895 62.0967 37.1575C61.9314 37.1202 61.7554 37.1015 61.5687 37.1015H60.5687V39.0855ZM60.5687 41.7735H61.6407C61.8487 41.7735 62.0461 41.7549 62.2327 41.7175C62.4247 41.6749 62.5901 41.6109 62.7287 41.5255C62.8727 41.4349 62.9874 41.3202 63.0727 41.1815C63.1581 41.0375 63.2007 40.8669 63.2007 40.6695C63.2007 40.2962 63.0727 40.0189 62.8167 39.8375C62.5661 39.6509 62.2087 39.5575 61.7447 39.5575H60.5687V41.7735Z" fill="white" fill-opacity="0.2"/>
<g opacity="0.1">
<path d="M24.4204 0.178711L18.1096 9.58278L19.2271 10.1839C19.5253 17.223 19.2271 24.6787 19.2271 32.0163H23.2122V25.628L26.3396 32.0163C33.1326 32.0394 46.9769 32.0163 46.9769 32.0163V19.4434C46.7733 15.8497 51.5984 15.3117 51.5984 19.4434V32.0163H63.0322C76.2478 31.9857 69.3957 5.21199 60.6051 13.3774V8.33077L62.1078 0.178711L55.797 9.58278L56.8272 10.1839V28.5998H55.2783V19.4434C55.2783 16.6179 55.6997 15.3193 54.1711 13.3774C52.6425 11.4354 47.7611 11.879 46.9769 13.3774V11.0496V8.33077L48.1649 0.178711L41.8542 9.58278L43.1657 10.1839V28.5998H41.0862C44.2996 20.2154 40.6384 11.8259 35.08 11.8717C29.5216 11.9176 25.559 20.1731 29.1251 28.5998L25.3 20.6261L30.3531 11.9242H26.1337L23.2122 16.9053C23.2134 13.8945 23.2194 11.1565 23.2122 8.33077L24.4204 0.178711ZM33.0897 9.40414C32.6661 9.40413 32.3227 9.74758 32.3227 10.1712C32.3227 10.5948 32.6661 10.9382 33.0897 10.9382C33.5133 10.9382 33.8568 10.5948 33.8568 10.1712C33.8567 9.7476 33.5133 9.40415 33.0897 9.40414ZM37.1647 9.40414C36.7412 9.40413 36.3977 9.74758 36.3977 10.1712C36.3977 10.5948 36.7411 10.9382 37.1647 10.9382C37.5883 10.9382 37.9315 10.5948 37.9315 10.1712C37.9315 9.7476 37.5883 9.40415 37.1647 9.40414ZM63.3948 16.5575C65.008 16.5263 66.6761 18.6223 66.718 22.5346C66.7992 30.1223 60.3368 30.8785 60.3877 22.5346C60.4123 18.4931 61.8794 16.5868 63.3948 16.5575ZM35.1571 16.6274C37.0918 16.6894 38.4908 18.8791 38.4908 22.5889C38.4908 29.9321 31.443 30.7383 31.4315 22.5889C31.4256 18.3885 33.3397 16.5692 35.1571 16.6274Z" fill="#F2F2F2"/>
<path d="M10.4316 0C10.3513 1.8333 7.91003 4.97199 6.98743 5.3421C7.02693 6.03336 5.35382 10.3251 3.81486 12.508C4.34281 13.0978 4.50851 13.6004 4.76121 13.9488C5.13653 13.903 5.52034 13.8487 5.81486 13.8837C7.68396 14.0374 6.97746 12.2306 9.94038 10.4981L9.28549 10.4349C12.2122 10.5234 13.0066 7.64547 11.8046 7.2294C13.4603 7.83053 12.1272 10.4754 10.1709 10.5028C6.40726 14.2222 2.2298 19.5492 1.22788 24.6319C2.11356 24.7057 3.28811 24.5916 3.35911 24.8534C3.57322 25.1714 3.66128 25.5034 3.37699 25.8768C2.48637 25.9258 2.14562 26.1193 1.31066 26.5023C1.55503 27.2584 0.831909 27.2861 0.784869 27.6679C0.737827 28.0497 1.31066 28.3745 1.31066 28.3745C0.839482 28.998 0.408471 31.6497 0.141982 31.7023C-0.102923 31.7507 -0.00967251 32.0718 0.259073 32.0695H14.142C14.3869 32.108 14.5007 31.7366 14.2668 31.7023C13.9327 31.6533 13.3655 28.3098 13.0904 28.3745C13.0904 28.3745 13.6366 28.0782 13.6162 27.6679C13.5958 27.2576 13.0113 27.2064 13.0904 26.5023C12.4182 26.2653 12.765 25.9123 11.2364 25.8768C10.8829 25.5622 10.9516 25.0966 11.2514 24.8534C11.32 24.6657 11.9165 24.6484 13.2575 24.6319C11.4501 21.089 8.91171 18.7767 13.5697 17.4075C13.6546 17.1736 13.7498 16.9524 13.8281 16.7246C9.98743 17.0678 8.53906 19.6108 7.90905 22.7309C8.02638 18.4397 13.1121 13.485 14.5563 8.54521C14.3694 9.65142 13.8618 10.9714 13.4402 11.9792C13.5379 11.9211 13.8309 11.5073 15.1009 11.1338C15.3535 7.23345 14.6746 4.90187 10.6886 3.66728C10.8029 2.12653 10.7211 1.1776 10.4316 0ZM8.95666 6.61445C9.06387 6.61791 9.11065 6.71337 9.21659 6.84756C9.66515 7.41575 8.42976 7.8732 7.83046 8.32359C7.72235 7.69397 8.49209 6.59947 8.95666 6.61445ZM5.33073 11.5606C5.43124 12.0556 4.92318 13.1215 4.69401 12.8416C4.51455 12.6224 5.23194 12.3991 5.33073 11.5606ZM15.0653 11.6116C14.2158 11.69 13.78 11.9441 13.3874 12.1073C13.1297 12.5968 12.7027 13.4266 12.4878 13.8282C12.4476 13.8109 13.5536 12.8608 14.9255 12.6335C15.0224 12.1784 14.994 12.0345 15.0653 11.6116ZM14.8332 13.1678C13.5654 13.3598 13.0866 13.6561 12.4182 13.9574C12.19 14.3527 11.5084 15.5154 11.2659 15.8946C11.3592 15.7629 12.6513 14.502 14.5677 14.3411C14.6771 13.9459 14.7472 13.5417 14.8332 13.1678ZM14.4025 14.9747C13.2909 15.0121 12.2121 15.4359 11.1945 16.0218C10.9317 16.4084 9.92764 18.0403 9.66534 18.4101C10.0586 17.7707 12.1042 16.1294 14.0548 16.1008C14.1675 15.7572 14.3054 15.3041 14.4025 14.9747Z" fill="#F2F2F2"/>
</g>
</svg>
