<svg width="36" height="36" viewBox="0 0 36 36" fill="none" xmlns="http://www.w3.org/2000/svg">
<path d="M11.9962 18.0057C11.9962 14.693 14.6816 12.0076 17.9944 12.0076C21.307 12.0076 23.9924 14.693 23.9924 18.0057C23.9924 21.3184 21.307 24.0038 17.9944 24.0038C14.6816 24.0038 11.9962 21.3184 11.9962 18.0057Z" fill="#F2F2F2"/>
<path fill-rule="evenodd" clip-rule="evenodd" d="M1.44681 4.6882C0 7.04917 0 10.2631 0 16.6909V19.3091C0 25.7369 0 28.9508 1.44681 31.3118C2.25637 32.6329 3.36711 33.7436 4.6882 34.5532C7.04917 36 10.2631 36 16.6909 36H19.3091C25.7369 36 28.9508 36 31.3118 34.5532C32.6329 33.7436 33.7436 32.6329 34.5532 31.3118C36 28.9508 36 25.7369 36 19.3091V16.6909C36 10.2631 36 7.04917 34.5532 4.6882C33.7436 3.36711 32.6329 2.25637 31.3118 1.44681C28.9508 0 25.7369 0 19.3091 0H16.6909C10.2631 0 7.04917 0 4.6882 1.44681C3.36711 2.25637 2.25637 3.36711 1.44681 4.6882ZM27.2346 18.0057C27.2346 12.9024 23.0976 8.76536 17.9944 8.76536C12.891 8.76536 8.75399 12.9024 8.75399 18.0057C8.75399 23.109 12.891 27.246 17.9944 27.246C23.0976 27.246 27.2346 23.109 27.2346 18.0057ZM29.7591 8.40028C29.7591 7.20771 28.7923 6.24093 27.5997 6.24093C26.4072 6.24093 25.4404 7.20771 25.4404 8.40028C25.4404 9.59286 26.4072 10.5596 27.5997 10.5596C28.7923 10.5596 29.7591 9.59286 29.7591 8.40028Z" fill="#F2F2F2"/>
</svg>
