<svg width="37" height="36" viewBox="0 0 37 36" fill="none" xmlns="http://www.w3.org/2000/svg">
<path fill-rule="evenodd" clip-rule="evenodd" d="M8.42886 0.027653C8.39647 0.058 7.9215 0.113492 7.37341 0.151023C5.88608 0.252841 5.1763 0.425261 4.17105 0.928527C2.99402 1.51788 1.67922 2.82095 1.1183 3.95432C0.232261 5.74467 0.273118 5.06155 0.273118 18.071V29.7763L0.553891 30.7045C0.965459 32.0655 1.42424 32.8788 2.26519 33.7385C3.46538 34.9656 4.88158 35.651 6.75057 35.9095C7.28098 35.983 12.0627 36.0156 18.9581 35.9929C29.0953 35.9597 30.3661 35.9339 30.9794 35.75C33.4449 35.0101 35.2317 33.2795 35.9955 30.8911L36.2728 30.0241V18.071C36.2728 6.84323 36.259 6.07291 36.045 5.37481C35.4506 3.43619 34.4216 2.07602 32.8257 1.11953C32.1821 0.733811 30.7733 0.263245 29.9735 0.166878C29.2139 0.0753412 8.52104 -0.0583098 8.42886 0.027653ZM21.618 5.18963C26.246 6.29909 29.8553 9.73624 31.1772 14.2931C31.5788 15.6772 31.7229 18.2737 31.4814 19.7724C30.8068 23.9591 27.9164 27.7394 24.0603 29.4779C20.7361 30.9767 16.6696 30.9929 13.4298 29.5204L12.4794 29.0883L9.13141 29.963C7.29007 30.4442 5.75404 30.8086 5.71817 30.7728C5.68229 30.7372 6.05574 29.2363 6.54803 27.4376L7.44316 24.1672L7.18743 23.7363C6.83665 23.1449 6.22054 21.4356 5.97577 20.3741C5.83576 19.767 5.7741 18.9214 5.77634 17.6375C5.77921 16.0448 5.82517 15.6093 6.0981 14.5881C7.44665 9.54189 11.5487 5.83063 16.7087 4.98835C18.0216 4.77394 20.2683 4.86609 21.618 5.18963ZM17.284 7.17445C13.6438 7.67561 10.3352 10.1348 8.87281 13.4261C8.21485 14.907 8.0011 15.999 8.01193 17.8233C8.02514 20.0523 8.45078 21.5865 9.56466 23.4198L9.84169 23.8759L9.3154 25.7545C9.02591 26.7878 8.81389 27.6579 8.84429 27.6881C8.87456 27.7183 9.7667 27.5142 10.8268 27.2345L12.7542 26.7259L13.7385 27.2169C18.0451 29.3651 22.8336 28.6339 26.1795 25.3172C27.5102 23.998 28.2996 22.7463 28.8742 21.0438C29.2121 20.0424 29.2803 19.6345 29.3312 18.3055C29.3666 17.3843 29.3316 16.4037 29.2459 15.9143C28.6486 12.5036 26.2658 9.47042 23.0424 8.01698C21.4536 7.30067 18.9875 6.93985 17.284 7.17445ZM15.1963 11.9744C15.5615 12.3757 16.5644 14.9411 16.4827 15.2649C16.4413 15.429 16.1871 15.8282 15.9179 16.1522C15.615 16.5168 15.4555 16.8176 15.4997 16.9416C15.6432 17.3453 16.6398 18.6461 17.1958 19.1558C18.164 20.0432 19.6969 20.9199 20.2802 20.9199C20.4163 20.9199 20.7854 20.5864 21.168 20.1175C21.5866 19.6047 21.9131 19.3166 22.0722 19.3196C22.2093 19.3222 22.966 19.6414 23.7539 20.0292L25.1864 20.7341L25.174 21.4166C25.1574 22.3216 24.8789 22.8145 24.0895 23.3357C22.8731 24.1387 21.8457 24.1536 19.7472 23.3984C17.2828 22.5114 15.0536 20.6651 13.2933 18.0534C12.2438 16.4965 11.9016 15.301 12.1591 14.0912C12.3201 13.3349 13.0403 12.2019 13.5277 11.9384C14.001 11.6827 14.9494 11.7031 15.1963 11.9744Z" fill="#F2F2F2"/>
</svg>
