<svg width="55" height="46" viewBox="0 0 55 46" fill="none" xmlns="http://www.w3.org/2000/svg">
<path fill-rule="evenodd" clip-rule="evenodd" d="M6.67656 0.781755C-3.29892 5.07932 -2.01825 20.5842 9.99614 21.6122C16.7195 22.1852 23.0553 17.0113 23.0553 10.9442C23.0553 10.4723 23.3754 10.4892 24.7403 10.1184C31.2615 8.38253 37.7489 10.5398 40.9505 15.5283C42.1469 17.3821 42.1469 17.399 40.7483 17.4327C32.6095 17.5843 28.4137 27.6963 35.592 29.8535C42.248 31.859 47.3368 27.2244 45.8034 20.5842C45.6012 19.7416 45.6012 19.7416 46.3595 20.2472C50.3362 22.9605 53.9927 33.3926 50.926 42.7798C49.8475 46.0662 52.3919 47.465 53.8579 43.0326C57.1438 33.0893 53.0154 20.6685 45.6181 18.3091C45.1462 18.1574 44.944 17.9551 44.6913 17.3989C41.675 10.6577 34.6653 7.37132 25.5155 8.41622C24.2348 8.56789 23.1564 8.66898 23.1227 8.63527C23.1058 8.61842 22.9542 8.07912 22.8194 7.45555C21.4376 1.50638 12.0687 -1.54398 6.67656 0.781755ZM20.1402 9.96674C19.5841 19.1349 8.26051 23.938 4.3175 16.6911C1.03165 10.6577 3.9974 3.37708 10.4511 1.6412C13.8886 0.714277 20.5614 2.90526 20.1402 9.96674ZM42.4838 19.0506C43.0399 19.6067 43.259 22.0842 42.9388 23.8706C42.3659 26.9716 39.8721 29.1625 37.3277 28.8254C32.441 28.1682 35.4572 19.8932 40.9168 19C42.2311 18.7809 42.2142 18.7809 42.4838 19.0506Z" fill="#BB7D58"/>
</svg>
