<svg width="43" height="18" viewBox="0 0 43 18" fill="none" xmlns="http://www.w3.org/2000/svg">
<path opacity="0.6" fill-rule="evenodd" clip-rule="evenodd" d="M6.68034 0.00543198C4.63505 0.143648 2.75448 1.18668 1.49784 2.87983C1.34363 3.08761 1.03638 3.5752 0.909535 3.81341C-0.225979 5.94615 -0.302632 8.52753 0.704142 10.7314C1.13758 11.6803 1.78133 12.5538 2.53314 13.2132C3.65161 14.1943 4.95718 14.7732 6.41973 14.9368C6.68888 14.9669 7.54951 14.9673 7.84047 14.9374C9.32799 14.785 10.5883 14.2531 11.6067 13.3482C11.8425 13.1387 12.2364 12.7132 12.4273 12.4619C12.5936 12.2429 12.877 11.8007 13.0091 11.5542C13.2933 11.0235 13.5281 10.3923 13.6843 9.73878C13.9388 8.67377 13.9881 7.36778 13.8161 6.24576L13.7978 6.12608L10.4492 6.13057L7.10067 6.13503L7.09637 7.5749L7.09207 9.01477L9.01603 9.01927L10.94 9.02377L10.8836 9.25561C10.5872 10.4754 9.71196 11.4076 8.49626 11.7981C7.80356 12.0207 6.96871 12.0668 6.29363 11.9198C5.21121 11.6841 4.25439 11.0002 3.63016 10.0162C2.75155 8.63118 2.65124 6.91515 3.3622 5.43201C3.77278 4.57547 4.41877 3.88625 5.22597 3.44347C5.66013 3.20532 6.09704 3.06258 6.62149 2.98755C6.82814 2.95799 7.42516 2.95756 7.6303 2.98684C8.37924 3.09371 9.04557 3.39701 9.62269 3.89376C9.68743 3.94948 9.7548 4.012 9.77242 4.03272C9.79004 4.05344 9.81275 4.07038 9.82291 4.07038C9.83307 4.07038 10.2942 3.593 10.8477 3.00952L11.8541 1.94867L11.7724 1.86879C10.7528 0.871451 9.37986 0.215495 7.94135 0.0383955C7.71568 0.0106069 6.91386 -0.0103586 6.68034 0.00543198ZM18.7608 7.55282V14.0658H19.551H20.3413V11.4251V8.78452L21.7494 8.78436C22.5497 8.78429 23.241 8.77654 23.3509 8.76644C24.141 8.69382 24.8064 8.42451 25.4021 7.93626C25.5846 7.78673 25.931 7.43231 26.0627 7.2604C26.4448 6.76176 26.6964 6.15026 26.7918 5.48817C26.8327 5.20396 26.832 4.63486 26.7904 4.34508C26.7174 3.83632 26.5438 3.34212 26.2881 2.91503C26.0192 2.46595 25.5107 1.94363 25.0459 1.63908C24.7159 1.42292 24.2309 1.21638 23.8502 1.12991C23.4596 1.04123 23.4166 1.03987 21.0097 1.03987H18.7608V7.55282ZM23.5527 2.69497C23.9394 2.80547 24.215 2.96954 24.5055 3.26224C24.7348 3.49325 24.8618 3.66596 24.9766 3.90303C25.147 4.25461 25.2078 4.52267 25.2078 4.92105C25.2078 5.31412 25.1482 5.58561 24.9876 5.92236C24.876 6.15671 24.7454 6.3365 24.526 6.55814C24.2325 6.85468 23.9591 7.01798 23.5695 7.1295L23.3929 7.18005L21.8671 7.1854L20.3413 7.19075V4.9121V2.63346L21.8587 2.63899L23.3761 2.64453L23.5527 2.69497ZM29.9766 4.88641C29.7601 4.90829 29.4354 4.96742 29.2443 5.01978C28.5801 5.20176 28.0519 5.50913 27.5737 5.99198C27.4011 6.16624 27.0641 6.59427 27.0859 6.61148C27.0892 6.61412 27.4021 6.82186 27.7812 7.07313L28.4706 7.53001L28.5042 7.48071C28.5967 7.34509 28.7979 7.10552 28.9007 7.00846C29.3744 6.56145 29.9015 6.35546 30.5723 6.35516C31.0844 6.35493 31.4584 6.47207 31.8679 6.76093C32.1836 6.98361 32.4482 7.29388 32.5923 7.61036C32.7198 7.89045 32.7534 8.05999 32.7623 8.46995C32.7665 8.66247 32.7663 8.81996 32.7618 8.81996C32.7574 8.81996 32.6677 8.7764 32.5625 8.72316C31.9493 8.41272 31.1851 8.26919 30.278 8.29409C29.8749 8.30517 29.6324 8.33115 29.3211 8.39665C28.0124 8.67195 27.0986 9.50319 26.8674 10.6286C26.7115 11.3874 26.8281 12.187 27.1838 12.7986C27.41 13.1876 27.8016 13.586 28.2184 13.8514C28.6099 14.1007 29.1128 14.2719 29.6259 14.3306C29.855 14.3569 30.3037 14.3533 30.5157 14.3235C31.3596 14.2051 32.038 13.7644 32.601 12.9689C32.6658 12.8774 32.7143 12.8252 32.7346 12.8252C32.7652 12.8252 32.7664 12.8484 32.7664 13.4455V14.0658H33.5235H34.2806L34.2751 11.0663C34.2691 7.73008 34.2765 7.95086 34.1535 7.44519C33.9212 6.48955 33.3552 5.7553 32.5046 5.30607C32.1454 5.11635 31.7192 4.98492 31.222 4.91058C31.0075 4.87848 30.2084 4.863 29.9766 4.88641ZM34.5543 5.16458C34.579 5.20688 38.029 13.4869 38.029 13.5038C38.029 13.5151 37.5902 14.5269 37.0539 15.7521C36.5175 16.9774 36.0787 17.9844 36.0787 17.99C36.0787 17.9956 36.4438 18.0001 36.8899 18L37.7012 17.9999L37.9475 17.4019C38.083 17.073 38.4851 16.0981 38.8412 15.2354C39.1972 14.3728 40.2768 11.757 41.2403 9.42263C42.2038 7.08821 42.9956 5.17221 43 5.16484C43.0043 5.15747 42.6196 5.15146 42.1451 5.1515L41.2825 5.15153L40.8401 6.30788C40.5969 6.94386 40.0447 8.38731 39.613 9.51556C39.1814 10.6438 38.8201 11.5669 38.8102 11.5669C38.8002 11.5669 38.225 10.1254 37.5319 8.36361L36.2716 5.16031L35.4091 5.15571C34.9346 5.15318 34.55 5.15717 34.5543 5.16458ZM31.3541 9.66252C31.835 9.72883 32.2502 9.87993 32.5998 10.1159C32.7856 10.2414 32.7802 10.2301 32.7642 10.4593C32.7336 10.8997 32.5786 11.3246 32.3106 11.7029C32.1886 11.8751 31.8891 12.1943 31.7322 12.3193C31.2767 12.6822 30.7706 12.8634 30.2024 12.8669C29.8482 12.869 29.5633 12.8014 29.2788 12.6476C28.8469 12.4143 28.5777 12.0902 28.4686 11.6722C28.4277 11.5156 28.4271 11.1591 28.4675 10.9998C28.5598 10.6357 28.7881 10.325 29.155 10.0641C29.4764 9.83543 29.8915 9.68563 30.3414 9.63586C30.5462 9.61321 31.1028 9.62785 31.3541 9.66252Z" fill="#E0E0E0"/>
</svg>
