<svg width="47" height="25" viewBox="0 0 47 25" fill="none" xmlns="http://www.w3.org/2000/svg">
<path opacity="0.8" fill-rule="evenodd" clip-rule="evenodd" d="M25.1834 25C28.7137 24.6367 41.7552 22.9289 45.5669 17.2959C50.4349 10.101 41.7531 4.45139 36.6411 13.8696C34.2216 18.325 29.1721 22.8391 25.1834 24.7035V25ZM21.8198 25C18.2896 24.6367 5.24586 22.9289 1.43218 17.2959C-3.43399 10.101 5.24798 4.45139 10.3579 13.8696C12.7775 18.325 17.8289 22.8412 21.8198 24.7056V25ZM27.9864 5.57462C27.9864 2.7748 26.2505 0 23.4995 0C20.7507 0 19.0127 2.7748 19.0127 5.57462C19.0127 9.47466 22.6783 17.6488 23.3828 23.2546H23.6184C24.3206 17.6488 27.9864 9.47466 27.9864 5.57462Z" fill="#BB7D58"/>
</svg>
