<svg width="37" height="36" viewBox="0 0 37 36" fill="none" xmlns="http://www.w3.org/2000/svg">
<path d="M24.1564 0C34.2364 0 36.6364 2.4 36.6364 12.48V23.52C36.6364 33.6 34.2364 36 24.1564 36H13.1164C3.03635 36 0.636353 33.6 0.636353 23.52V12.48C0.636353 2.4 3.03635 0 13.1164 0H24.1564ZM10.0114 11.25H7.3864C6.6364 11.25 6.48639 11.6031 6.48639 11.9924C6.48639 12.6877 7.37632 16.1361 10.6301 20.6969C12.7992 23.8116 15.8554 25.5 18.6364 25.5C20.305 25.5 20.5114 25.125 20.5114 24.4791V22.125C20.5114 21.375 20.6695 21.2253 21.1979 21.2253C21.5872 21.2253 22.2546 21.42 23.812 22.9217C25.5918 24.7015 25.8853 25.5 26.8864 25.5H29.5114C30.2614 25.5 30.6364 25.125 30.4201 24.385C30.1833 23.6474 29.3336 22.5773 28.206 21.3087C27.5941 20.5857 26.6764 19.807 26.3983 19.4176C26.009 18.9171 26.1202 18.6946 26.3983 18.2497L26.4451 18.1834C26.8406 17.6212 29.6203 13.6352 29.9302 12.2149C30.097 11.6587 29.9302 11.25 29.1364 11.25H26.5114C25.8439 11.25 25.5362 11.6031 25.3694 11.9924C25.3694 11.9924 24.0345 15.2462 22.1434 17.3597C21.5316 17.9715 21.2535 18.1662 20.9197 18.1662C20.7529 18.1662 20.5114 17.9715 20.5114 17.4154V12.2149C20.5114 11.5475 20.3177 11.25 19.7614 11.25H15.6364C15.2193 11.25 14.9685 11.5598 14.9685 11.8534C14.9685 12.4861 15.9139 12.632 16.0114 14.4119V18.2775C16.0114 19.125 15.8583 19.2787 15.5246 19.2787C14.6347 19.2787 12.4701 16.0103 11.1862 12.2705C10.9346 11.5436 10.6823 11.25 10.0114 11.25Z" fill="#F2F2F2"/>
</svg>
