<svg width="39" height="18" viewBox="0 0 39 18" fill="none" xmlns="http://www.w3.org/2000/svg">
<path opacity="0.6" fill-rule="evenodd" clip-rule="evenodd" d="M7.4638 0.0462003C7.05274 0.147952 6.66989 0.353517 6.29426 0.674153C5.64883 1.2251 5.19051 2.22395 5.19051 3.07961C5.19051 3.36482 5.20351 3.37354 5.55448 3.32359C5.9933 3.26114 6.40264 3.05167 6.7765 2.69825C7.18383 2.31321 7.46841 1.83696 7.65241 1.23238C7.76058 0.876868 7.84242 0.260896 7.80415 0.0898329C7.77986 -0.0187852 7.74459 -0.0232823 7.4638 0.0462003ZM13.9175 7.70237V14.3794H14.8329H15.7483V12.0965V9.81362H17.1657C18.7115 9.81362 19.0463 9.78684 19.5515 9.62289C20.8706 9.1947 21.8114 8.10505 22.1412 6.62357C22.3912 5.50076 22.2818 4.25508 21.8481 3.28408C21.6635 2.87082 21.5083 2.62639 21.2128 2.28331C20.6518 1.63204 19.918 1.22109 19.0605 1.07783C18.7989 1.03413 18.3412 1.02531 16.3318 1.02531H13.9175V7.70237ZM18.754 2.87439C19.1949 3.01421 19.4864 3.19763 19.7643 3.51038C19.9629 3.73372 20.0373 3.84807 20.1403 4.08828C20.4208 4.74184 20.469 5.68013 20.2599 6.41502C20.0149 7.276 19.3989 7.83598 18.5032 8.01167C18.3009 8.05136 17.9631 8.06282 16.9954 8.06282H15.7483V5.41727V2.77171L17.1291 2.78434C18.4509 2.79646 18.5203 2.80031 18.754 2.87439ZM7.18765 3.54718C6.87753 3.61055 6.67614 3.68079 6.07541 3.93506C5.5917 4.13977 5.51988 4.16109 5.31256 4.16129C5.10421 4.1615 5.03479 4.1408 4.53781 3.93033C3.74356 3.59393 3.69691 3.58226 3.16133 3.58621C2.75641 3.58916 2.67207 3.60028 2.42997 3.68264C1.28643 4.07156 0.469841 5.07473 0.143555 6.49164C-0.193991 7.95723 0.0735253 9.94054 0.842844 11.6766C1.26082 12.6198 1.90201 13.6055 2.38322 14.0447C2.70465 14.338 2.94318 14.455 3.26108 14.4751C3.60058 14.4966 3.80929 14.4444 4.34362 14.2044C4.88213 13.9625 5.23057 13.882 5.61944 13.9094C5.95879 13.9333 6.16665 13.9962 6.67214 14.2276C7.37131 14.5476 7.75728 14.5585 8.27102 14.2725C8.47525 14.1588 8.58366 14.0673 8.79146 13.8336C9.19733 13.377 9.70389 12.5731 10.0162 11.8899C10.1738 11.5452 10.4694 10.7536 10.4694 10.6762C10.4694 10.6584 10.3793 10.5881 10.269 10.5199C9.55178 10.0764 9.05596 9.38121 8.84709 8.52627C8.7914 8.29832 8.77971 8.15826 8.7784 7.70237C8.77666 7.10006 8.81892 6.8534 9.00152 6.40039C9.18216 5.95219 9.54916 5.4481 9.93543 5.11768C10.0361 5.03154 10.124 4.95633 10.1307 4.95059C10.1596 4.92571 9.95508 4.64523 9.73776 4.41166C9.09016 3.7156 8.06465 3.36794 7.18765 3.54718ZM25.9248 4.61327C25.332 4.72124 24.8267 4.92914 24.398 5.2414C23.8847 5.61531 23.5049 6.12943 23.3226 6.69696C23.2469 6.93253 23.1632 7.36014 23.1632 7.51156C23.1632 7.53621 23.4313 7.54788 23.9986 7.54788H24.8339L24.8523 7.44435C24.9209 7.05828 25.2307 6.64392 25.6044 6.43853C25.9545 6.24601 26.1689 6.19496 26.6113 6.19871C27.5151 6.20633 28.058 6.57235 28.2626 7.31187C28.3088 7.47871 28.3201 7.62729 28.3201 8.06588V8.61209H28.248C27.9688 8.61209 25.6208 8.79524 25.3755 8.83616C23.7325 9.11014 22.8134 10.0177 22.7449 11.4337C22.6669 13.0438 23.6176 14.2312 25.1595 14.4495C25.7632 14.535 26.4388 14.4337 26.9739 14.1775C27.4636 13.943 27.9649 13.4825 28.2369 13.017C28.3066 12.8978 28.3744 12.8003 28.3876 12.8003C28.4008 12.8003 28.4116 13.1556 28.4116 13.5899V14.3794H29.2674H30.1231L30.1127 10.8178L30.1023 7.25608L30.0339 6.96429C29.7555 5.77786 28.9242 4.96906 27.6803 4.67445C27.2258 4.56679 26.3479 4.5362 25.9248 4.61327ZM30.8335 4.72546C30.8669 4.78643 33.9155 14.3006 33.927 14.3801C33.9442 14.4984 33.7457 15.1752 33.598 15.5022C33.4024 15.9354 33.1572 16.1824 32.7961 16.3101C32.6076 16.3768 32.5136 16.3873 32.1267 16.3848L31.6766 16.3819V17.1668C31.6766 17.8822 31.6814 17.954 31.73 17.9765C31.7594 17.9901 32.0581 18.0006 32.3937 18C32.8502 17.999 33.0718 17.9835 33.2729 17.9384C33.8639 17.8057 34.2544 17.5832 34.6391 17.1601C35.034 16.7257 35.3212 16.1942 35.6224 15.3406C35.7404 15.0062 39 4.7473 39 4.71036C39 4.70332 38.579 4.70164 38.0644 4.70665L37.1287 4.71571L36.0449 8.65566C35.4488 10.8226 34.9509 12.5837 34.9383 12.5692C34.9258 12.5547 34.4305 10.7779 33.8377 8.62085L32.7599 4.69889L31.7893 4.69872C31.2554 4.69862 30.8253 4.71067 30.8335 4.72546ZM28.3134 10.6289C28.3018 11.1912 28.2944 11.2569 28.218 11.4786C27.9978 12.1178 27.484 12.6018 26.8097 12.8054C26.4863 12.903 25.8368 12.9133 25.5497 12.8254C25.108 12.6902 24.799 12.4403 24.6419 12.0912C24.5591 11.9071 24.5518 11.8623 24.5539 11.5473C24.5564 11.1744 24.584 11.0711 24.7487 10.8161C24.944 10.5138 25.4049 10.2725 25.944 10.1904C26.2209 10.1482 27.7378 10.0312 28.1018 10.024L28.326 10.0196L28.3134 10.6289Z" fill="#E0E0E0"/>
</svg>
