<svg width="45" height="40" viewBox="0 0 45 40" fill="none" xmlns="http://www.w3.org/2000/svg">
<path fill-rule="evenodd" clip-rule="evenodd" d="M29.217 0.103282C27.8319 0.691008 21.9817 12.1885 20.1592 17.7535C20.1045 17.9005 20.0134 17.625 19.9405 17.1107C18.6283 7.652 15.6394 2.43596 13.0697 5.02563C12.0491 6.05415 12.5228 18.8188 13.8168 25.4674C14.4365 28.6448 14.5095 28.4612 12.9785 27.3409C9.26062 24.6226 3.13693 21.6105 1.35087 21.6105C-1.60159 21.6105 0.0204753 23.8695 8.85965 32.0426L12.3588 35.2935L10.5363 35.5322C4.74072 36.2669 -0.763186 38.2688 0.585472 39.1504C2.07993 40.1239 20.1592 40.3443 20.3597 39.3709C20.5055 38.5995 19.4302 38.4341 13.9262 38.4708C13.908 38.4708 5.77959 38.5076 6.01652 38.5076C5.79782 38.5076 5.76133 38.1954 5.98003 38.1403C11.0466 36.873 11.484 36.7628 13.7622 37.0751C16.4777 37.4424 17.5895 36.9832 15.6212 35.0548C13.7258 33.1814 9.16946 29.1591 5.74314 25.798C5.52444 25.5776 5.77963 25.2286 6.053 25.3571C9.2424 27.0101 13.1608 29.8754 14.9468 31.8589C16.4595 33.5486 18.5189 33.2731 17.7717 31.4916C17.4801 30.7937 16.3501 24.4206 15.9127 21.0595C15.6393 18.8739 15.3478 11.2702 15.5118 10.4988C15.6029 10.0764 16.5324 11.5824 16.9516 14.0435C17.1885 15.4577 18.0998 21.7757 18.5372 26.9551C18.7377 29.306 20.7606 29.8754 21.3802 26.3858C23.2939 15.6781 27.267 7.52347 25.5903 14.0252C25.0617 16.0822 23.4215 23.4103 22.656 27.0101C21.7812 31.1058 24.7155 29.8569 25.244 28.4244C26.1553 25.9633 33.1537 12.5742 33.1537 13.2905C33.1537 14.5211 30.8209 20.9308 28.488 26.0918C26.1552 31.2711 29.8367 30.2979 31.2218 27.8C33.3177 24.0165 35.2678 21.8492 37.0721 19.7921C37.6553 19.1126 38.5666 18.1943 38.9128 18.3964C39.2409 18.58 38.931 19.7371 38.5118 20.5085C38.5118 20.5269 33.7187 28.7917 32.0784 32.3364C30.7298 35.2566 32.8986 34.3016 35.7599 32.8323C39.7148 30.7936 40.0246 30.8304 36.9263 32.9609C33.5729 35.2751 33.0808 35.9363 34.7393 35.9363C36.5983 35.9547 45 30.2059 45 28.9386C45 27.6897 42.4485 28.1856 36.8352 30.4814C35.3954 31.0692 35.3407 31.3446 37.7282 26.7346C42.5396 17.4412 42.8495 16.6882 42.5579 15.476C42.1022 13.6394 39.8606 14.2822 36.8534 17.129L34.7028 19.1678L35.2861 17.3494C37.0174 12.0048 36.9992 8.60694 35.2132 8.27635C33.0444 7.87229 32.8439 8.05606 30.1648 12.6109C28.9984 14.5761 27.9778 16.321 27.8866 16.4679C27.6497 16.8352 28.7979 12.4089 30.3835 6.73367C31.9144 1.29721 31.9873 0.838083 31.5499 0.434022C31.149 0.0666928 29.7456 -0.135481 29.217 0.103282Z" fill="#BB7D58"/>
</svg>
