<svg width="12" height="21" viewBox="0 0 12 21" fill="none" xmlns="http://www.w3.org/2000/svg">
<path fill-rule="evenodd" clip-rule="evenodd" d="M10.0715 10.4095C9.84064 10.1034 9.58513 9.84319 9.30761 9.62907C9.02721 9.41479 8.73874 9.23724 8.44185 9.09628C8.14242 8.95548 7.80715 8.84224 7.43338 8.75356C6.52326 8.54322 5.68696 8.62812 4.81298 9.00142C4.22491 9.25245 3.722 9.62289 3.30428 10.1126C2.88386 10.6024 2.56238 11.2085 2.33432 11.9339C2.10612 12.6563 1.99067 13.4736 1.99067 14.3889C1.99067 15.6011 2.17479 16.651 2.54589 17.5295C2.91685 18.4112 3.47463 19.0936 4.21937 19.5803C4.5903 19.813 4.9998 19.9875 5.44781 20.1069C5.84264 20.2121 6.26946 20.2723 6.73027 20.2849C7.63355 20.2601 8.42877 20.0524 9.11792 19.66V14.9429C9.6885 14.9928 10.3711 14.9904 10.9437 14.9429V20.1436C10.2183 20.4131 9.48461 20.618 8.73717 20.765C6.89364 21.1284 4.35642 21.1691 2.69303 20.1558C1.78352 19.6019 1.10745 18.8334 0.66512 17.8478C0.222653 16.8591 0 15.7389 0 14.4838C0 13.4307 0.159368 12.4941 0.475459 11.6767C0.791523 10.8565 1.2394 10.1677 1.81919 9.6137C2.39902 9.05652 3.08618 8.63415 3.88027 8.34953C4.2677 8.21174 4.6745 8.10754 5.10033 8.03422C6.15815 7.85922 7.79678 7.89643 8.79491 8.1229C9.37456 8.2515 9.84177 8.39848 10.1962 8.56064C10.5288 8.70461 10.8008 8.84842 11.0096 8.99223C10.963 9.16057 10.8888 9.42997 10.7925 9.80041C10.7377 10.0024 10.6855 10.2076 10.6305 10.4095C10.3182 10.4095 10.3469 10.4095 10.0715 10.4095Z" fill="#BB7D58"/>
<path fill-rule="evenodd" clip-rule="evenodd" d="M6.71899 6.51118C7.54596 6.41657 10.6009 5.97176 11.4938 4.50466C12.6341 2.63079 10.6004 1.15935 9.40295 3.61231C8.83618 4.77271 7.65333 5.94838 6.71899 6.43396V6.51118ZM5.93108 6.51118C5.10413 6.41657 2.04866 5.97176 1.15531 4.50466C0.0154166 2.63079 2.04915 1.15935 3.24615 3.61231C3.81293 4.77271 4.99621 5.94893 5.93108 6.43451V6.51118ZM7.37559 1.45189C7.37559 0.72269 6.96895 0 6.32455 0C5.68064 0 5.27352 0.72269 5.27352 1.45189C5.27352 2.46765 6.13219 4.59657 6.29721 6.05661H6.35239C6.51689 4.59657 7.37559 2.46765 7.37559 1.45189Z" fill="#BB7D58"/>
</svg>
