<svg width="15" height="15" viewBox="0 0 15 15" fill="none" xmlns="http://www.w3.org/2000/svg">
<path fill-rule="evenodd" clip-rule="evenodd" d="M0.114691 0.0349371C0.0277463 0.0949514 0 0.146581 0 0.248442C0 0.349729 0.0277616 0.401948 0.112853 0.460689C0.161164 0.494042 0.170153 0.494446 1.00723 0.50103C1.98198 0.508685 2.02436 0.513436 2.28502 0.644319C2.61403 0.809517 2.77527 1.08909 2.8716 1.66146C2.88814 1.75967 3.13605 3.78602 3.42253 6.16446C3.98617 10.844 3.95395 10.6137 4.08069 10.869C4.31419 11.3393 4.75861 11.6398 5.34241 11.7221C5.42516 11.7338 6.86889 11.7389 10.1089 11.7389C14.3882 11.7389 14.7608 11.7369 14.8096 11.7134C14.97 11.6362 14.9835 11.3803 14.8324 11.2849L14.7766 11.2498L10.0909 11.2415L5.40532 11.2332L5.26815 11.1987C5.19272 11.1798 5.06524 11.1319 4.98487 11.0924C4.78409 10.9935 4.61888 10.8287 4.52786 10.6364C4.49349 10.5638 4.45813 10.473 4.4493 10.4346C4.44044 10.3961 4.20218 8.44314 3.91984 6.09459C3.63747 3.74604 3.38892 1.7172 3.3675 1.58607C3.22808 0.732686 2.90298 0.292758 2.25947 0.0866131C2.01663 0.00881968 1.88753 0 0.991791 0H0.165314L0.114691 0.0349371ZM4.9 2.2114C4.79023 2.26109 4.72529 2.3931 4.75568 2.50474C4.77729 2.58409 4.8524 2.66667 4.9204 2.68581C4.95798 2.6964 6.53935 2.70167 9.69665 2.70171C12.2927 2.70176 14.4167 2.7059 14.4167 2.7109C14.4167 2.73685 13.6021 8.42108 13.588 8.49361C13.5647 8.61329 13.4658 8.79902 13.3654 8.91153C13.168 9.13265 12.8811 9.27865 12.4874 9.35828C12.3682 9.38238 12.0734 9.38534 9.00105 9.39329L5.6449 9.40197L5.60262 9.43399C5.4517 9.54826 5.4543 9.76563 5.60773 9.86235L5.66563 9.89886H8.98845C12.1084 9.89886 12.3218 9.89716 12.4844 9.87103C13.1788 9.75936 13.6372 9.47997 13.9291 8.99041C14.0646 8.76321 14.0365 8.92801 14.5304 5.46364C14.7792 3.71832 14.9866 2.26761 14.9914 2.23986L15 2.18939L9.97296 2.19C5.80706 2.19051 4.93807 2.19418 4.9 2.2114ZM4.73157 12.4548C4.2942 12.5637 3.94709 12.906 3.81142 13.3623C3.77533 13.4836 3.77009 13.5278 3.77009 13.7109C3.77009 13.8939 3.77533 13.9381 3.81142 14.0595C3.94821 14.5195 4.29642 14.8605 4.73922 14.9679C4.91558 15.0107 5.15977 15.0107 5.33641 14.968C5.6952 14.8812 6.01613 14.6238 6.17768 14.2932C6.54478 13.542 6.13522 12.6481 5.33477 12.4536C5.16294 12.4118 4.90232 12.4123 4.73157 12.4548ZM13.0154 12.444C12.5189 12.5582 12.1303 12.9557 12.0272 13.4547C12.0025 13.5744 12.0025 13.8473 12.0272 13.9671C12.1333 14.4805 12.5543 14.8957 13.0594 14.9849C13.1923 15.0084 13.4903 14.9961 13.6128 14.9621C14.166 14.8086 14.5545 14.2923 14.5545 13.7109C14.5545 13.1294 14.1673 12.6149 13.6128 12.4594C13.4885 12.4246 13.1392 12.4156 13.0154 12.444ZM5.19094 12.9424C5.34736 12.9759 5.47912 13.0475 5.58769 13.1581C5.73732 13.3106 5.81058 13.4923 5.81091 13.7119C5.81159 14.1476 5.46859 14.4941 5.03782 14.4927C4.45244 14.4909 4.08248 13.8617 4.35826 13.3371C4.43855 13.1843 4.62162 13.0235 4.77388 12.9721C4.93216 12.9186 5.04258 12.9107 5.19094 12.9424ZM13.4061 12.9355C13.5297 12.9557 13.6984 13.0364 13.7923 13.1203C14.0768 13.3742 14.1355 13.8249 13.9256 14.1436C13.8046 14.3274 13.6093 14.4539 13.3945 14.4877C13.0369 14.544 12.6738 14.3206 12.5463 13.9658C12.4995 13.8354 12.4995 13.5863 12.5463 13.4559C12.6565 13.1494 12.9455 12.9352 13.2683 12.9209C13.2893 12.92 13.3514 12.9265 13.4061 12.9355Z" fill="#F2F2F2"/>
</svg>
