<svg width="52" height="48" viewBox="0 0 52 48" fill="none" xmlns="http://www.w3.org/2000/svg">
<path fill-rule="evenodd" clip-rule="evenodd" d="M16.1679 8.09512C17.942 7.9919 19.7141 8.00016 21.4882 8.00016C21.5005 8.00016 30.4781 8.00016 30.4781 8.00016C32.2869 8.00016 34.059 7.9919 35.8321 8.09512C37.4441 8.18803 39.0143 8.38622 40.5773 8.82906C43.8676 9.76015 46.7409 11.7049 48.8178 14.4621C50.8825 17.2017 52 20.5555 52 23.999C52 27.4468 50.8825 30.7985 48.8178 33.5381C46.7409 36.2942 43.8676 38.24 40.5773 39.1711C39.0143 39.6139 37.4441 39.8111 35.8321 39.905C34.059 40.0083 32.2869 39.999 30.5128 39.999C30.5006 39.999 21.5209 40 21.5209 40C19.7141 39.999 17.942 40.0083 16.1679 39.905C14.5569 39.8111 12.9867 39.6139 11.4237 39.1711C8.13341 38.24 5.26016 36.2942 3.18322 33.5381C1.11851 30.7985 0 27.4468 0 24.0001C0 20.5555 1.11851 17.2017 3.18322 14.4621C5.26016 11.7049 8.13341 9.76015 11.4237 8.82906C12.9867 8.38622 14.5569 8.18803 16.1679 8.09512Z" fill="#F6F6F6"/>
<path fill-rule="evenodd" clip-rule="evenodd" d="M36 38C43.732 38 50 31.732 50 24C50 16.268 43.732 10 36 10C28.268 10 22 16.268 22 24C22 31.732 28.268 38 36 38Z" fill="#DCC0B0"/>
</svg>
