<svg width="19" height="12" viewBox="0 0 19 12" fill="none" xmlns="http://www.w3.org/2000/svg">
<path opacity="0.6" fill-rule="evenodd" clip-rule="evenodd" d="M3.58471 0.00482662C3.45876 0.0209453 3.41749 0.0305293 3.2909 0.0730417C3.05791 0.151292 2.84983 0.283764 2.66182 0.473537C2.53061 0.605987 2.42661 0.748568 2.35281 0.897159C2.29744 1.00862 2.23745 1.19005 2.21649 1.30944C2.21307 1.32884 2.20425 1.36609 2.17861 1.46926C2.17296 1.49198 2.16684 1.51902 2.165 1.52935C2.16117 1.55087 2.14189 1.63395 2.12665 1.69459C2.12094 1.71731 2.11482 1.74435 2.11305 1.75468C2.11128 1.76501 2.10627 1.78698 2.10193 1.8035C2.09759 1.82002 2.0923 1.84368 2.0902 1.85608C2.08664 1.87696 2.07842 1.91188 2.05216 2.01756C2.04651 2.04028 2.04018 2.06901 2.03809 2.08141C2.03458 2.10229 2.02645 2.13684 2.00009 2.24289C1.99444 2.26562 1.98832 2.29265 1.98648 2.30298C1.98265 2.32451 1.96337 2.40759 1.94813 2.46823C1.94242 2.49095 1.9363 2.51799 1.93453 2.52831C1.93276 2.53864 1.92775 2.56061 1.92341 2.57713C1.91907 2.59366 1.91378 2.61732 1.91168 2.62971C1.90812 2.6506 1.8999 2.68551 1.87364 2.7912C1.86799 2.81392 1.86166 2.84265 1.85957 2.85504C1.85606 2.87592 1.84793 2.91047 1.82157 3.01653C1.81592 3.03925 1.8098 3.06629 1.80796 3.07662C1.80413 3.09814 1.78485 3.18122 1.76962 3.24186C1.7639 3.26458 1.75778 3.29162 1.75601 3.30195C1.75424 3.31228 1.74923 3.33425 1.74489 3.35077C1.74055 3.36729 1.73527 3.39095 1.73316 3.40335C1.7296 3.42424 1.72139 3.45915 1.69512 3.56483C1.68947 3.58756 1.68315 3.61629 1.68106 3.62868C1.67754 3.64956 1.66941 3.68411 1.64305 3.79017C1.6374 3.81289 1.63128 3.83993 1.62944 3.85025C1.62561 3.87178 1.60633 3.95486 1.5911 4.0155C1.58538 4.03822 1.57926 4.06526 1.57749 4.07558C1.57572 4.08591 1.57072 4.10788 1.56637 4.12441C1.56203 4.14093 1.55675 4.16459 1.55464 4.17698C1.55109 4.19787 1.54287 4.23278 1.5166 4.33847C1.51095 4.36119 1.50463 4.38992 1.50254 4.40231C1.49902 4.42319 1.49089 4.45775 1.46453 4.5638C1.45888 4.58652 1.45276 4.61356 1.45092 4.62389C1.44709 4.64542 1.42781 4.7285 1.41258 4.78913C1.40686 4.81185 1.40074 4.83889 1.39897 4.84922C1.3972 4.85955 1.3922 4.88152 1.38785 4.89804C1.38351 4.91457 1.37823 4.93823 1.37612 4.95062C1.37257 4.97151 1.36435 5.00642 1.33808 5.11211C1.33243 5.13483 1.32611 5.16356 1.32402 5.17595C1.3205 5.19683 1.31237 5.23138 1.28601 5.33744C1.28036 5.36016 1.27424 5.3872 1.2724 5.39752C1.26857 5.41905 1.24929 5.50213 1.23406 5.56277C1.22835 5.58549 1.22222 5.61253 1.22045 5.62286C1.21868 5.63318 1.21368 5.65515 1.20933 5.67168C1.20499 5.6882 1.19971 5.71186 1.1976 5.72425C1.19405 5.74514 1.18583 5.78005 1.15956 5.88574C1.15391 5.90846 1.14759 5.93719 1.1455 5.94958C1.14198 5.97047 1.13385 6.00502 1.1075 6.11107C1.10184 6.13379 1.09572 6.16083 1.09388 6.17116C1.09005 6.19269 1.07077 6.27577 1.05554 6.3364C1.04983 6.35912 1.0437 6.38616 1.04193 6.39649C1.04016 6.40682 1.03516 6.42879 1.03081 6.44531C1.02647 6.46184 1.02119 6.4855 1.01908 6.49789C1.01553 6.51878 1.00731 6.55369 0.981045 6.65938C0.975391 6.6821 0.969069 6.71083 0.966979 6.72322C0.963461 6.7441 0.95533 6.77865 0.928976 6.88471C0.923323 6.90743 0.917202 6.93447 0.915364 6.9448C0.911534 6.96632 0.892254 7.0494 0.87702 7.11004C0.871307 7.13276 0.865186 7.1598 0.863415 7.17013C0.861645 7.18045 0.856639 7.20242 0.852295 7.21895C0.847951 7.23547 0.84267 7.25913 0.840565 7.27153C0.837009 7.29241 0.82879 7.32732 0.802525 7.43301C0.796872 7.45573 0.79055 7.48446 0.78846 7.49686C0.784941 7.51774 0.776811 7.55229 0.750457 7.65834C0.744804 7.68106 0.738683 7.7081 0.736845 7.71843C0.733015 7.73996 0.713735 7.82304 0.698501 7.88367C0.692788 7.90639 0.686667 7.93343 0.684896 7.94376C0.683126 7.95409 0.67812 7.97606 0.673776 7.99258C0.669432 8.00911 0.664151 8.03277 0.662046 8.04516C0.65849 8.06605 0.650271 8.10096 0.624006 8.20665C0.618353 8.22937 0.612031 8.2581 0.60994 8.27049C0.606422 8.29137 0.598292 8.32592 0.571938 8.43198C0.566285 8.4547 0.560163 8.48174 0.558326 8.49207C0.554495 8.51359 0.535215 8.59667 0.519982 8.65731C0.514269 8.68003 0.508147 8.70707 0.506377 8.7174C0.504607 8.72773 0.499601 8.7497 0.495257 8.76622C0.490913 8.78274 0.485632 8.8064 0.483527 8.8188C0.479971 8.83968 0.471752 8.8746 0.445487 8.98028C0.439834 9.00301 0.433512 9.03173 0.431421 9.04413C0.427903 9.06501 0.419773 9.09956 0.393419 9.20561C0.387766 9.22834 0.381644 9.25537 0.379807 9.2657C0.375976 9.28723 0.356696 9.37031 0.341463 9.43095C0.33575 9.45367 0.329628 9.48071 0.327858 9.49103C0.326088 9.50136 0.321082 9.52333 0.316738 9.53986C0.312394 9.55638 0.307113 9.58004 0.305008 9.59243C0.301452 9.61332 0.293233 9.64823 0.266968 9.75392C0.261315 9.77664 0.254992 9.80537 0.252902 9.81776C0.249384 9.83864 0.241254 9.87319 0.2149 9.97925C0.209247 10.002 0.203125 10.029 0.201288 10.0393C0.197457 10.0609 0.178177 10.1439 0.162943 10.2046C0.157231 10.2273 0.151109 10.2543 0.149339 10.2647C0.147569 10.275 0.142563 10.297 0.138219 10.3135C0.133875 10.33 0.128593 10.3537 0.126488 10.3661C0.122933 10.387 0.114714 10.4219 0.0884489 10.5276C0.0827958 10.5503 0.0764733 10.579 0.0743831 10.5914C0.0708871 10.6122 0.0644158 10.6397 0.0364329 10.7529C0.00693264 10.8722 -3.70437e-05 10.9312 1.47766e-07 11.0608C2.24627e-05 11.1385 0.00391269 11.2107 0.00949885 11.2373C0.0147057 11.2621 0.0205894 11.2909 0.0225679 11.3012C0.0301253 11.3406 0.0718615 11.4553 0.0969435 11.5056C0.157335 11.6267 0.255997 11.7426 0.370375 11.8268C0.480663 11.908 0.633758 11.9681 0.790862 11.9919C0.83088 11.9979 2.82916 12.0001 8.11758 12C14.5003 11.9998 15.3981 11.9984 15.4618 11.9887C15.6147 11.9652 15.8072 11.9 15.9434 11.8255C16.2921 11.6347 16.5839 11.3029 16.7084 10.9557C16.7455 10.8524 16.759 10.8006 16.8253 10.5088C16.8319 10.4799 16.8439 10.4275 16.8522 10.3924C16.8801 10.2728 16.926 10.0736 16.9517 9.96047C16.9583 9.93155 16.9704 9.87917 16.9786 9.84405C17.0066 9.72445 17.0525 9.52534 17.0782 9.41217C17.0848 9.38325 17.0968 9.33086 17.1051 9.29575C17.133 9.17614 17.1789 8.97704 17.2046 8.86386C17.2112 8.83495 17.2233 8.78256 17.2315 8.74744C17.2595 8.62784 17.3054 8.42873 17.3311 8.31556C17.3377 8.28664 17.3497 8.23425 17.358 8.19914C17.3859 8.07953 17.4318 7.88043 17.4575 7.76725C17.4641 7.73834 17.4762 7.68595 17.4844 7.65083C17.5124 7.53123 17.5583 7.33212 17.584 7.21895C17.5906 7.19003 17.6026 7.13764 17.6109 7.10253C17.6388 6.98292 17.6847 6.78382 17.7104 6.67064C17.717 6.64173 17.7291 6.58934 17.7373 6.55422C17.7589 6.46208 17.77 6.41419 17.7991 6.28758C17.8133 6.22562 17.8302 6.15295 17.8365 6.12609C17.8429 6.09924 17.8494 6.07051 17.8509 6.06225C17.8525 6.05399 17.8593 6.02357 17.8661 5.99465C17.8729 5.96573 17.8832 5.92179 17.889 5.89701C17.8948 5.87222 17.9113 5.80124 17.9255 5.73928C17.9398 5.67731 17.9566 5.60464 17.963 5.57779C17.9694 5.55094 17.9759 5.52221 17.9774 5.51395C17.9789 5.50568 17.9858 5.47526 17.9925 5.44635C17.9993 5.41743 18.0097 5.37349 18.0155 5.3487C18.0213 5.32392 18.0377 5.25294 18.052 5.19097C18.0662 5.12901 18.0831 5.05634 18.0894 5.02948C18.0958 5.00263 18.1023 4.9739 18.1038 4.96564C18.1054 4.95738 18.1122 4.92696 18.119 4.89804C18.1258 4.86912 18.1361 4.82518 18.1419 4.8004C18.1477 4.77561 18.1642 4.70463 18.1784 4.64267C18.1927 4.5807 18.2095 4.50803 18.2159 4.48118C18.2223 4.45433 18.2288 4.4256 18.2303 4.41734C18.2318 4.40907 18.2387 4.37865 18.2455 4.34974C18.2522 4.32082 18.2626 4.27688 18.2684 4.25209C18.2742 4.22731 18.2906 4.15633 18.3049 4.09436C18.3191 4.0324 18.336 3.95973 18.3424 3.93287C18.3487 3.90602 18.3552 3.87729 18.3567 3.86903C18.3583 3.86077 18.3651 3.83035 18.3719 3.80143C18.3787 3.77251 18.389 3.72857 18.3948 3.70379C18.4007 3.679 18.4171 3.60802 18.4313 3.54606C18.4456 3.48409 18.4624 3.41142 18.4688 3.38457C18.4752 3.35772 18.4817 3.32899 18.4832 3.32073C18.4847 3.31246 18.4916 3.28204 18.4984 3.25313C18.5052 3.22421 18.5155 3.18027 18.5213 3.15548C18.5271 3.1307 18.5435 3.05972 18.5578 2.99775C18.572 2.93579 18.5889 2.86312 18.5953 2.83627C18.6016 2.80941 18.6081 2.78068 18.6096 2.77242C18.6112 2.76416 18.618 2.73374 18.6248 2.70482C18.6316 2.6759 18.6419 2.63197 18.6477 2.60718C18.6536 2.58239 18.67 2.51141 18.6842 2.44945C18.6985 2.38748 18.7153 2.31481 18.7217 2.28796C18.7281 2.26111 18.7346 2.23238 18.7361 2.22412C18.7376 2.21585 18.7445 2.18544 18.7513 2.15652C18.7581 2.1276 18.7684 2.08366 18.7742 2.05887C18.78 2.03409 18.7964 1.96311 18.8107 1.90114C18.8249 1.83918 18.8418 1.76651 18.8482 1.73966C18.8545 1.7128 18.861 1.68407 18.8625 1.67581C18.8641 1.66755 18.8709 1.63713 18.8777 1.60821C18.8845 1.5793 18.8947 1.53536 18.9004 1.51057C18.9061 1.48578 18.9179 1.43508 18.9265 1.3979C18.9352 1.36072 18.9473 1.30833 18.9534 1.28148C18.9594 1.25463 18.9675 1.22034 18.9714 1.20528C19.0003 1.09234 19.0089 0.891984 18.9898 0.778244C18.9753 0.691943 18.9757 0.69337 18.9451 0.600714C18.8863 0.422282 18.7676 0.267217 18.6063 0.158457C18.5099 0.0933666 18.4046 0.0493445 18.2679 0.0169269L18.201 0.00104857L10.9152 7.96501e-05C6.90795 -0.000446122 3.60926 0.00168701 3.58471 0.00482662ZM13.3861 3.06144C13.6987 3.08277 13.8715 3.15231 13.98 3.3004C14.0535 3.40075 14.0811 3.51256 14.0745 3.68324C14.0636 3.9659 13.9399 4.27873 13.759 4.48112C13.6142 4.64303 13.4598 4.74523 13.2601 4.81125C13.0729 4.87317 12.9227 4.89335 12.6036 4.89946C12.3482 4.90434 12.3491 4.90419 12.322 4.94951C12.3037 4.98007 12.2322 5.28394 12.1572 5.65002C12.1245 5.80918 12.0978 5.94085 12.0978 5.94261C12.0978 5.94438 11.9368 5.94583 11.74 5.94583H11.3821L11.3873 5.92517C11.3902 5.91381 11.4943 5.48105 11.6188 4.96348C11.8058 4.18621 12.0017 3.32079 12.0392 3.10666C12.0432 3.08394 12.0475 3.06197 12.0489 3.05784C12.0522 3.04769 13.2311 3.05087 13.3861 3.06144ZM3.00452 3.06637C3.31843 3.06783 3.39114 3.07003 3.39041 3.07803C3.38991 3.08345 3.37925 3.12337 3.36671 3.16675C3.33173 3.28784 3.24458 3.6248 3.10835 4.16572C2.99822 4.60296 2.98071 4.68109 2.95099 4.868C2.9072 5.1434 2.91082 5.21806 2.97307 5.32266C3.0659 5.47865 3.31926 5.51829 3.53636 5.4108C3.58827 5.3851 3.6123 5.36667 3.67066 5.30777C3.73095 5.24692 3.74748 5.22464 3.77956 5.16093C3.85729 5.00661 3.86845 4.96218 4.09693 3.89847L4.27744 3.05814L4.36621 3.06175C4.41504 3.06373 4.56793 3.06531 4.70597 3.06526C4.92651 3.06519 4.95653 3.06655 4.95351 3.07653C4.92211 3.18019 4.79973 3.6596 4.64095 4.30091C4.50667 4.8433 4.47231 4.97239 4.42504 5.11214C4.30917 5.45469 4.13897 5.65895 3.85249 5.7993C3.6617 5.89276 3.43583 5.9417 3.15329 5.95078C2.9172 5.95836 2.71978 5.93424 2.54868 5.87689C2.28589 5.78879 2.15191 5.62482 2.13383 5.36915C2.13004 5.31552 2.13468 5.26373 2.15941 5.08366C2.18775 4.87733 2.20159 4.81021 2.38249 4.00207C2.48857 3.52819 2.57933 3.12078 2.58417 3.09672C2.59154 3.06012 2.595 3.05392 2.60535 3.05877C2.61216 3.06196 2.79179 3.06537 3.00452 3.06637ZM12.6387 3.51383C12.6364 3.53569 12.591 3.74454 12.5379 3.97794C12.4847 4.21135 12.4388 4.41553 12.4359 4.43167L12.4305 4.46103L12.5784 4.45573C12.7451 4.44976 12.8131 4.44211 12.8933 4.42035C13.1388 4.35371 13.3253 4.10074 13.3274 3.83148C13.3283 3.72256 13.2976 3.64157 13.2326 3.58104C13.1719 3.52458 13.1641 3.52258 12.9227 3.50144C12.8025 3.49091 12.6903 3.48046 12.6735 3.4782L12.643 3.47411L12.6387 3.51383ZM7.41966 4.07879C7.48144 4.09202 7.52912 4.11455 7.56052 4.14536C7.70309 4.28524 7.5262 4.50542 7.23208 4.55418C7.06725 4.5815 6.92099 4.53154 6.87541 4.43236C6.85568 4.38942 6.85777 4.34975 6.88253 4.29689C6.95397 4.1444 7.22053 4.03617 7.41966 4.07879ZM5.66717 4.23302C5.68104 4.2485 5.6794 4.25861 5.64196 4.3893L5.63492 4.41385L5.66606 4.3947C5.84324 4.28568 5.99316 4.23892 6.1658 4.23881C6.40558 4.23864 6.52656 4.3539 6.52656 4.5825C6.52656 4.67985 6.5112 4.77051 6.44161 5.08398C6.3849 5.33941 6.30442 5.74224 6.28765 5.85457C6.28036 5.90347 6.27491 5.91942 6.26296 5.92695C6.24124 5.94063 5.64414 5.94886 5.63908 5.93555C5.6372 5.9306 5.66205 5.81343 5.69432 5.67518C5.76502 5.37227 5.82969 5.053 5.84682 4.92234C5.85718 4.84341 5.85778 4.82101 5.85024 4.79561C5.82453 4.70895 5.72738 4.69254 5.60401 4.75402L5.55615 4.77786L5.5431 4.83044C5.52451 4.90535 5.37163 5.64018 5.34387 5.7881C5.32851 5.86986 5.31634 5.91621 5.30806 5.9243C5.29701 5.93511 5.25891 5.93706 4.98825 5.94066C4.71619 5.94429 4.68048 5.94343 4.67659 5.93321C4.67418 5.92686 4.70448 5.78598 4.74392 5.62016C4.86735 5.10126 4.93311 4.77322 4.96902 4.49714C4.98376 4.38381 4.99117 4.3471 5.00107 4.33834C5.00953 4.33086 5.07887 4.31715 5.20308 4.29842C5.30711 4.28273 5.44744 4.25867 5.51495 4.24497C5.66568 4.21435 5.65144 4.21547 5.66717 4.23302ZM10.412 4.23478C10.4179 4.24424 10.4154 4.26639 10.4024 4.32116C10.3928 4.36166 10.3835 4.39881 10.3817 4.4037C10.3798 4.4086 10.4157 4.39108 10.4614 4.36476C10.5586 4.30879 10.6401 4.27736 10.7459 4.25514C10.835 4.23643 10.9647 4.23312 11.0267 4.24796C11.1981 4.28898 11.2818 4.41519 11.27 4.61496C11.2645 4.7087 11.253 4.77188 11.1896 5.05953C11.1167 5.38947 11.0753 5.59265 11.0461 5.76342C11.0272 5.87339 11.0175 5.91324 11.0071 5.92327C10.9944 5.93547 10.9673 5.93694 10.6896 5.9405C10.4549 5.94349 10.3852 5.9423 10.3825 5.93523C10.3806 5.9302 10.3974 5.84856 10.4198 5.75381C10.5668 5.13318 10.6174 4.83147 10.585 4.76827C10.5559 4.71147 10.4715 4.70197 10.3661 4.74361C10.3213 4.76134 10.3025 4.77275 10.2978 4.78517C10.2821 4.82687 10.1391 5.50768 10.0926 5.76181C10.0748 5.85899 10.0609 5.91636 10.0531 5.92431C10.0426 5.93516 10.0051 5.93706 9.73384 5.94057C9.46807 5.944 9.42597 5.94305 9.42234 5.93352C9.41694 5.91928 9.42194 5.89577 9.49764 5.57964C9.60806 5.11862 9.67095 4.80448 9.71111 4.51355C9.7326 4.35782 9.73673 4.3388 9.75052 4.33217C9.759 4.32809 9.84961 4.3124 9.95189 4.29729C10.0542 4.2822 10.1931 4.2586 10.2606 4.24486C10.3281 4.23112 10.388 4.22037 10.3937 4.22097C10.3994 4.22156 10.4076 4.22778 10.412 4.23478ZM16.4722 4.25045C16.4821 4.26427 16.4875 4.33643 16.5042 4.67271C16.5153 4.89579 16.5251 5.08298 16.5259 5.0887C16.5267 5.09442 16.5583 5.03696 16.5961 4.96101C16.6339 4.88507 16.6915 4.77223 16.7242 4.71027C16.7569 4.6483 16.8074 4.54458 16.8366 4.47977C16.8658 4.41496 16.8951 4.35696 16.9019 4.35087C16.9094 4.34405 16.9584 4.3336 17.0294 4.32366C17.1405 4.30811 17.364 4.26857 17.472 4.24534C17.5208 4.23486 17.5249 4.23501 17.5377 4.24773C17.551 4.26089 17.5476 4.26781 17.4328 4.46701C16.8845 5.41828 16.4494 6.19347 16.2287 6.61237C16.213 6.64227 16.1398 6.77071 16.0662 6.89778C15.9485 7.10077 15.9255 7.13576 15.8765 7.186C15.8132 7.25093 15.7575 7.28323 15.67 7.30584C15.6205 7.31861 15.5868 7.32035 15.3881 7.32035C15.264 7.32035 15.1627 7.31782 15.163 7.31471C15.1633 7.31161 15.1876 7.22965 15.2169 7.13257L15.2703 6.95606L15.346 6.95231C15.4073 6.94926 15.4258 6.94557 15.4427 6.93288C15.4613 6.91899 15.524 6.82606 15.597 6.70444C15.6106 6.68172 15.6518 6.61412 15.6885 6.55422C15.7253 6.49432 15.793 6.37771 15.839 6.29509C15.885 6.21247 15.9462 6.10451 15.975 6.05517L16.0274 5.96546L16.0072 5.76599C15.9961 5.65629 15.9723 5.44991 15.9545 5.30739C15.8775 4.6924 15.8608 4.56381 15.8496 4.49996C15.8292 4.38415 15.8286 4.36628 15.8441 4.35259C15.8534 4.34442 15.9029 4.33379 15.9955 4.32012C16.0712 4.30894 16.2034 4.28518 16.2893 4.2673C16.3752 4.24943 16.4489 4.23458 16.453 4.2343C16.4571 4.23402 16.4657 4.24128 16.4722 4.25045ZM8.90586 4.26009C9.15291 4.29681 9.31175 4.41401 9.37267 4.60453C9.41276 4.72991 9.40318 4.95334 9.34904 5.15506C9.2526 5.5144 9.10921 5.72043 8.86218 5.85465C8.71299 5.9357 8.47787 5.9838 8.28379 5.97297C8.0376 5.95922 7.89708 5.91087 7.79094 5.8034C7.69333 5.70457 7.65586 5.60009 7.65481 5.42381C7.65412 5.30904 7.66208 5.24571 7.69443 5.10835C7.78381 4.72884 7.94747 4.49151 8.21133 4.35879C8.31803 4.30511 8.40163 4.28116 8.57952 4.25329C8.6313 4.24518 8.83398 4.2494 8.90586 4.26009ZM15.5689 4.27472C15.5712 4.28096 15.5344 4.45081 15.487 4.65215C15.356 5.20823 15.3036 5.45628 15.2479 5.78434C15.231 5.88378 15.2172 5.94509 15.2106 5.95024C15.1961 5.96148 14.5613 5.97132 14.5483 5.9605C14.541 5.95435 14.5412 5.94472 14.5494 5.91361C14.5551 5.89209 14.5598 5.87037 14.5598 5.86533C14.5599 5.86031 14.539 5.87094 14.5134 5.88896C14.4008 5.96832 14.3242 5.99407 14.2029 5.99335C14.1047 5.99276 14.0245 5.97615 13.9256 5.93588C13.7737 5.87402 13.6874 5.77928 13.6436 5.62635C13.6286 5.57419 13.6265 5.55064 13.627 5.44259C13.6274 5.33269 13.6302 5.30548 13.6518 5.20224C13.7195 4.87722 13.8359 4.65228 14.0127 4.50459C14.1375 4.40034 14.2802 4.32412 14.4167 4.28878C14.4765 4.27332 14.5032 4.27042 14.5681 4.27232C14.6424 4.27449 14.6501 4.27625 14.702 4.30293C14.7576 4.33154 14.8053 4.37109 14.8473 4.42341L14.8702 4.45201L14.8745 4.41992C14.8769 4.40226 14.8837 4.3842 14.8897 4.37977C14.8957 4.37533 14.9854 4.35893 15.0892 4.34331C15.1929 4.32768 15.338 4.30365 15.4116 4.2899C15.5726 4.25984 15.5635 4.26071 15.5689 4.27472ZM7.5275 4.59619C7.52956 4.60161 7.50621 4.71061 7.47562 4.83842C7.36034 5.3199 7.27144 5.72706 7.25476 5.84991C7.24912 5.89146 7.24149 5.91932 7.23394 5.92595C7.22431 5.93441 7.15993 5.93718 6.89715 5.94044C6.60954 5.944 6.57175 5.94313 6.56787 5.93293C6.56233 5.91833 6.58515 5.83596 6.63175 5.70246C6.6729 5.58459 6.69311 5.50793 6.73533 5.30971C6.765 5.17041 6.80751 4.92199 6.82473 4.78724C6.83116 4.73698 6.83808 4.71036 6.84679 4.7024C6.85545 4.69449 6.92988 4.68022 7.08167 4.65739C7.20387 4.63901 7.34402 4.61589 7.39312 4.60601C7.49888 4.58473 7.52249 4.58301 7.5275 4.59619ZM8.57848 4.63522C8.53489 4.64934 8.47914 4.69983 8.44637 4.75488C8.36916 4.88456 8.28199 5.22734 8.28199 5.40125C8.28199 5.46949 8.28413 5.48172 8.30245 5.51823C8.32954 5.57224 8.37093 5.5957 8.42925 5.5901C8.55293 5.57822 8.64672 5.44044 8.71341 5.17267C8.75933 4.98834 8.7682 4.93283 8.76871 4.82669C8.76917 4.73189 8.76799 4.72313 8.75061 4.69216C8.74038 4.67393 8.72345 4.65263 8.71298 4.64481C8.68734 4.62568 8.6223 4.62104 8.57848 4.63522ZM14.5502 4.67229C14.4372 4.71301 14.3697 4.83389 14.2992 5.12216C14.2306 5.40279 14.2335 5.53996 14.3092 5.59438C14.3717 5.63932 14.5109 5.60866 14.5936 5.53177C14.6565 5.47317 14.6874 5.38776 14.7574 5.07831C14.7815 4.97178 14.7841 4.95003 14.7808 4.88678C14.7762 4.79848 14.7602 4.75158 14.7207 4.71011C14.6763 4.66357 14.6133 4.64958 14.5502 4.67229ZM9.27873 6.67159C9.27873 6.67417 9.25507 6.72149 9.22617 6.77674L9.1736 6.8772H9.48279C9.65283 6.8772 9.79192 6.87973 9.79188 6.88283C9.79183 6.88593 9.76715 6.97127 9.73704 7.07248L9.6823 7.2565L9.25526 7.26026L8.82823 7.26401L8.77268 7.31181C8.73742 7.34214 8.70084 7.36586 8.6725 7.37675C8.64796 7.3862 8.60758 7.40259 8.58279 7.41319C8.48924 7.45318 8.461 7.45748 8.26791 7.46116C8.09392 7.46448 8.08661 7.46406 8.09023 7.4507C8.0923 7.44304 8.11683 7.35988 8.14473 7.26589L8.19545 7.09502H8.26374C8.3013 7.09502 8.35006 7.09169 8.3721 7.08763C8.43132 7.0767 8.46184 7.03909 8.56756 6.84666C8.61622 6.75812 8.65931 6.68144 8.66332 6.67628C8.66893 6.66904 8.74027 6.66689 8.97466 6.66689C9.1419 6.66689 9.27873 6.66901 9.27873 6.67159ZM10.5851 6.68754C10.583 6.69477 10.5673 6.7497 10.5501 6.8096C10.5329 6.8695 10.5171 6.92345 10.5148 6.9295C10.5125 6.93554 10.5306 6.92593 10.5548 6.90813C10.7462 6.768 10.8053 6.74312 11.0565 6.69681L11.1792 6.67419L11.6042 6.67617L12.0291 6.67815L11.8745 7.19641C11.7041 7.7678 11.7023 7.77328 11.6604 7.86357C11.5852 8.02564 11.4945 8.10913 11.3354 8.16257L11.2833 8.18007L10.7292 8.18246C10.4244 8.18376 10.1727 8.18721 10.1699 8.19011C10.1618 8.19836 9.91821 9.01779 9.91338 9.05313C9.90954 9.08116 9.91159 9.0872 9.93176 9.10758C9.96006 9.13616 9.97733 9.13664 10.1952 9.11498C10.2811 9.10644 10.3529 9.10105 10.3548 9.103C10.3568 9.10495 10.3305 9.20066 10.2964 9.31569L10.2345 9.52483L10.0709 9.52711C9.86997 9.5299 9.47211 9.51663 9.42031 9.50541C9.39017 9.49888 9.37291 9.48845 9.33749 9.45533C9.27417 9.39613 9.26772 9.38112 9.2791 9.31923C9.28413 9.29186 9.29759 9.23566 9.30901 9.19435C9.32632 9.13171 9.96808 6.97814 10.0381 6.74763L10.0604 6.6744H10.3246C10.5728 6.6744 10.5886 6.6752 10.5851 6.68754ZM13.2061 6.67694C13.2061 6.67833 13.1945 6.71951 13.1802 6.76844C13.166 6.81736 13.1556 6.85866 13.1571 6.86021C13.1586 6.86177 13.1778 6.85146 13.1998 6.83733C13.2598 6.79862 13.3403 6.75935 13.4038 6.73783C13.5154 6.69997 13.8175 6.68262 14.4688 6.67662L14.9318 6.67236V6.72103C14.9318 6.7478 14.934 6.8059 14.9367 6.85015C14.9415 6.92853 14.9421 6.93087 14.9624 6.94145C14.977 6.94909 15.0088 6.95231 15.0697 6.95231H15.1562L15.1516 6.97296C15.1491 6.98433 15.1245 7.06798 15.0969 7.15886L15.0468 7.3241L14.818 7.32609C14.5309 7.32858 14.4819 7.31939 14.4043 7.2486C14.3553 7.2039 14.3463 7.17092 14.34 7.01239C14.3369 6.93597 14.3335 6.87682 14.3323 6.88095C14.3311 6.88508 14.3181 6.92818 14.3033 6.97672L14.2764 7.06497H14.1807H14.085L14.0773 7.08938C14.046 7.18848 13.5111 8.9819 13.5111 8.98779C13.5111 8.9923 13.5409 8.99531 13.5855 8.99531C13.6264 8.99531 13.6599 8.99801 13.6599 9.00131C13.6599 9.00461 13.6499 9.03926 13.6377 9.07829C13.6255 9.11734 13.6155 9.15207 13.6154 9.15547C13.6153 9.15887 13.6629 9.16056 13.7212 9.15923C13.8237 9.15688 13.8291 9.15594 13.8806 9.13155C13.9099 9.11767 13.942 9.09739 13.952 9.08648C13.962 9.07558 14.0691 8.92559 14.1901 8.75317L14.4102 8.43966L14.1251 8.4377L13.8401 8.43573L13.8766 8.3118C13.8967 8.24364 13.9183 8.17013 13.9247 8.14844L13.9362 8.109H14.2625H14.5889L14.6231 7.99822C14.642 7.93729 14.6623 7.87246 14.6682 7.85417C14.6741 7.83587 14.6789 7.81813 14.6789 7.81474C14.6789 7.81134 14.5348 7.80856 14.3585 7.80856C14.0925 7.80856 14.0386 7.80684 14.0406 7.79837C14.0419 7.79276 14.0664 7.70828 14.095 7.61062L14.1471 7.43306L15.0445 7.43303L15.942 7.43301L15.9202 7.50624C15.9083 7.54652 15.8831 7.63099 15.8642 7.69394L15.8298 7.8084L15.5282 7.81036L15.2267 7.81232L15.1836 7.95127C15.1598 8.0277 15.1403 8.09446 15.1403 8.09962C15.1401 8.10698 15.2045 8.109 15.4376 8.109C15.6013 8.109 15.7352 8.11167 15.7352 8.11494C15.7352 8.1182 15.7254 8.15285 15.7135 8.19193C15.7016 8.23101 15.6797 8.30269 15.6649 8.35124L15.638 8.43949H15.3123H14.9867L14.9332 8.50321C14.9038 8.53826 14.8798 8.56868 14.8798 8.57081C14.8798 8.57295 14.9364 8.57469 15.0057 8.57469C15.1193 8.57469 15.132 8.57598 15.1354 8.58783C15.1375 8.59507 15.1546 8.70238 15.1734 8.82631C15.1921 8.95024 15.2106 9.05907 15.2144 9.06816C15.2233 9.08962 15.2571 9.09826 15.3577 9.10481C15.4016 9.10768 15.4376 9.11095 15.4376 9.11209C15.4376 9.11323 15.4124 9.19811 15.3815 9.30072C15.3506 9.40333 15.3236 9.49319 15.3215 9.50042C15.318 9.51226 15.3056 9.51353 15.1973 9.5132C15.131 9.513 15.0442 9.51018 15.0043 9.50693C14.939 9.50161 14.9254 9.49773 14.8678 9.46786C14.796 9.43068 14.7556 9.39546 14.7353 9.35231C14.7271 9.33471 14.7089 9.24005 14.6895 9.11352C14.6719 8.99823 14.6563 8.90061 14.655 8.8966C14.6537 8.89259 14.5826 8.98668 14.4969 9.10567C14.3218 9.34893 14.2585 9.4194 14.1768 9.46203C14.0674 9.51913 14.0032 9.52827 13.7101 9.52846C13.5404 9.52857 13.5111 9.52697 13.5111 9.51761C13.5111 9.51157 13.5194 9.48045 13.5294 9.44845C13.5395 9.41646 13.5462 9.38873 13.5443 9.38683C13.5424 9.38492 13.5409 9.38732 13.5409 9.39214C13.5409 9.39826 13.5174 9.4009 13.4632 9.4009H13.3854L13.368 9.45911L13.3506 9.51732L13.0744 9.51929L12.7981 9.52126L12.8161 9.46296C12.8259 9.43089 12.8341 9.40382 12.8341 9.40278C12.8342 9.40174 12.583 9.4009 12.2759 9.4009C11.7475 9.4009 11.7177 9.4002 11.7215 9.38776C11.7237 9.38052 11.7459 9.30701 11.7707 9.22439C11.7956 9.14177 11.8193 9.06318 11.8235 9.04976L11.8312 9.02535L11.8883 9.02526L11.9454 9.02518L12.1679 8.27979C12.2902 7.86983 12.4467 7.34513 12.5156 7.11379C12.5844 6.88245 12.6423 6.68896 12.6443 6.68379C12.647 6.67651 12.7105 6.6744 12.927 6.6744C13.0805 6.6744 13.2061 6.67554 13.2061 6.67694ZM13.0881 7.08938C13.0839 7.10281 13.0517 7.21012 13.0165 7.32786C12.9813 7.44559 12.9513 7.5457 12.9498 7.55032C12.9483 7.55493 12.9948 7.53897 13.0531 7.51484C13.1814 7.46182 13.2197 7.45126 13.34 7.43575C13.3912 7.42915 13.4334 7.42331 13.4339 7.42275C13.4346 7.42187 13.5178 7.14127 13.5339 7.08563L13.5398 7.06497H13.3178H13.0957L13.0881 7.08938ZM10.4876 7.08938C10.4858 7.09455 10.4587 7.18496 10.4273 7.2903C10.3959 7.39564 10.3685 7.48615 10.3666 7.49142C10.3646 7.49668 10.3901 7.48212 10.4233 7.45905C10.4918 7.4114 10.5936 7.36115 10.6805 7.33213C10.7874 7.29643 10.8463 7.2903 11.0824 7.2903H11.2997L11.328 7.19454C11.3435 7.14186 11.3577 7.09455 11.3596 7.08938C11.3623 7.08194 11.2727 7.07999 10.9269 7.07999C10.5846 7.07999 10.49 7.08201 10.4876 7.08938ZM9.66217 7.55131C9.65968 7.56267 9.63504 7.64464 9.60742 7.73345L9.5572 7.89494L9.25471 7.8969L8.95221 7.89886L8.92524 7.98703C8.91041 8.03553 8.89015 8.10158 8.88023 8.13381C8.8703 8.16604 8.86218 8.19561 8.86218 8.19953C8.86218 8.2039 8.97986 8.20665 9.16715 8.20665C9.33488 8.20665 9.47225 8.20919 9.47241 8.21228C9.47257 8.21538 9.44834 8.29988 9.41857 8.40006L9.36443 8.5822H9.05522H8.74601L8.66961 8.83809C8.62758 8.97884 8.5951 9.09898 8.59742 9.10508C8.60416 9.12281 8.6477 9.13716 8.7198 9.14541C8.77937 9.15222 8.80439 9.1506 8.9451 9.13087C9.03215 9.11867 9.10472 9.11003 9.10636 9.11168C9.10976 9.11511 8.99757 9.49508 8.98696 9.51608C8.98031 9.52924 8.96284 9.5297 8.59567 9.52642C8.19662 9.52285 8.1499 9.51929 8.08976 9.48789C8.03507 9.45933 7.97519 9.3675 7.97554 9.31273C7.97568 9.28881 8.00922 9.16568 8.07681 8.94095C8.13239 8.75613 8.17786 8.6015 8.17786 8.59732C8.17786 8.59241 8.11851 8.58971 8.0105 8.58971C7.88147 8.58971 7.84317 8.58756 7.8433 8.58032C7.8434 8.57516 7.86789 8.48981 7.89772 8.39067L7.95197 8.2104L8.12545 8.20665L8.29894 8.20289L8.34231 8.05643C8.36617 7.97587 8.38579 7.90742 8.38591 7.90433C8.38603 7.90124 8.31082 7.8987 8.21877 7.8987C8.07168 7.8987 8.05141 7.89727 8.05141 7.88691C8.05141 7.87685 8.10893 7.68055 8.14536 7.56633L8.15674 7.53066H8.91172H9.6667L9.66217 7.55131ZM10.2915 7.74664C10.2786 7.79107 10.268 7.83005 10.268 7.83325C10.268 7.83645 10.4613 7.83873 10.6976 7.83831L11.1272 7.83753L11.1541 7.7517L11.1809 7.66585H10.748H10.315L10.2915 7.74664ZM12.8498 7.8818C12.7731 8.13393 12.7229 8.307 12.7255 8.30965C12.7272 8.31134 12.7665 8.29517 12.813 8.27371C12.8594 8.25225 12.9176 8.22703 12.9421 8.21767C12.9838 8.2018 13.1494 8.16909 13.188 8.16909C13.1975 8.16909 13.2073 8.16585 13.2097 8.16188C13.2121 8.15792 13.2358 8.08272 13.2623 7.99476C13.2889 7.90682 13.3124 7.82894 13.3147 7.82171C13.3185 7.80939 13.3047 7.80856 13.0954 7.80856H12.8721L12.8498 7.8818ZM11.5955 8.28364C11.5805 8.37331 11.5388 8.54213 11.523 8.57704C11.4996 8.62858 11.4676 8.66473 11.4122 8.70206C11.3353 8.7539 11.2943 8.76249 11.0825 8.77112C10.9802 8.77528 10.8924 8.78 10.8873 8.78161C10.8802 8.78382 10.878 8.82208 10.878 8.93949V9.09445L10.9032 9.11999C10.9331 9.15012 10.9266 9.14969 11.1552 9.13699C11.2402 9.13228 11.3114 9.13003 11.3133 9.132C11.3153 9.13397 11.2918 9.21932 11.2611 9.32167C11.2304 9.42401 11.2052 9.50936 11.2052 9.51132C11.2052 9.51329 11.0571 9.51345 10.8761 9.5117C10.5951 9.50897 10.5405 9.50663 10.5027 9.49573C10.4242 9.47304 10.3874 9.4387 10.3768 9.37837C10.3743 9.36391 10.3772 9.11886 10.3833 8.83382C10.3893 8.54878 10.3944 8.30627 10.3944 8.2949L10.3945 8.27425H10.6522H10.91L10.9049 8.38316L10.8998 8.49207L10.9726 8.49174C11.0656 8.49132 11.1081 8.48299 11.1251 8.46183C11.1324 8.45269 11.152 8.40166 11.1686 8.34846L11.1988 8.25171H11.3998H11.6008L11.5955 8.28364ZM12.6457 8.57286C12.643 8.57726 12.558 8.85742 12.5214 8.98227L12.5154 9.00304L12.7391 9.00105L12.9628 8.99906L13.0249 8.78875C13.0591 8.67308 13.0871 8.5759 13.0871 8.57281C13.0871 8.56541 12.6502 8.56546 12.6457 8.57286Z" fill="#E0E0E0"/>
</svg>
