<svg width="102" height="16" viewBox="0 0 102 16" fill="none" xmlns="http://www.w3.org/2000/svg">
<path opacity="0.6" fill-rule="evenodd" clip-rule="evenodd" d="M22.25 0.216311C20.1331 0.671721 18.7723 2.11762 18.7697 3.91449C18.7676 5.26184 19.4634 6.12557 21.3744 7.14828C22.762 7.89084 23.103 8.35252 22.7287 8.98178C22.1632 9.93269 20.2534 9.89973 18.0142 8.90033C17.9718 8.88139 17.8814 9.30717 17.7552 10.1188C17.6486 10.805 17.5499 11.4084 17.5359 11.4597C17.5006 11.589 18.3496 11.8593 19.2787 12.0146C25.4842 13.0516 28.6465 7.55924 23.3862 4.88033C20.4855 3.40301 22.4612 1.66947 25.5853 2.9508C25.7986 3.03828 25.984 3.09871 25.9973 3.08506C26.027 3.05463 26.3845 0.802664 26.3845 0.645901C26.3845 0.209918 23.6166 -0.077726 22.25 0.216311ZM43.557 0.207274C39.6523 1.25678 37.9043 5.99992 40.1647 9.41236C41.9754 12.1459 45.6201 12.8925 48.2256 11.0635C48.614 10.7909 48.6225 10.7882 48.7607 10.8957C52.5565 13.8466 58.0098 10.9889 58.0098 6.04879C58.0098 1.28525 52.7995 -1.64516 49.0256 0.995758L48.6103 1.28641L48.1311 0.963176C46.9169 0.144262 44.9814 -0.175595 43.557 0.207274ZM60.3245 6.17174V12.1963H62.1235H63.9224V8.62885C63.9224 3.70086 63.8428 3.65021 65.6636 9.73732C65.79 10.16 66.0114 10.8792 66.1556 11.3357L66.4178 12.1656L67.7486 12.1821C68.8138 12.1954 69.0794 12.1826 69.0794 12.1182C69.0794 12.0739 69.1568 11.7898 69.2514 11.4868C69.6196 10.3082 70.0541 8.89922 70.5493 7.2783C70.8333 6.34848 71.1071 5.45475 71.1578 5.29221C71.2342 5.04748 71.2721 5.00002 71.379 5.01557L71.5079 5.03445L71.5234 8.61539L71.5389 12.1963H73.3823H75.2258V6.16965V0.142971L73.0071 0.16043C69.9089 0.184836 69.8559 0.22043 69.138 2.75986C68.9659 3.36846 68.6125 4.59551 68.3526 5.48666C68.0927 6.37781 67.8801 7.14213 67.8801 7.1851C67.8801 7.98551 67.6827 7.48375 66.8045 4.45043C65.8056 1.00025 65.8063 1.00203 65.3521 0.608954C64.8279 0.155204 64.785 0.148442 62.4383 0.147766L60.3245 0.147151V6.17174ZM76.8148 6.17174V12.1963H78.8566C81.6986 12.1963 81.2574 12.6727 83.7535 6.90945C84.9635 4.1157 84.8759 3.98721 84.8955 8.58465L84.911 12.1963H86.7395H88.5679V6.17174V0.147151H86.5681H84.5683L84.3246 0.328073C83.9263 0.623893 83.7502 0.935512 82.8107 3.00576C82.7187 3.20863 82.4496 3.78957 82.2127 4.29674C81.9757 4.80391 81.5785 5.6615 81.3299 6.20248C80.5016 8.00457 80.5326 8.10152 80.5326 3.71463V0.147151H78.6737H76.8148V6.17174ZM89.8487 0.254733C89.8651 0.313872 89.9337 0.587069 90.0012 0.861803C90.4377 2.63807 91.7527 4.04377 93.575 4.68213C94.5429 5.02117 94.571 5.02332 98.4171 5.04865L102 5.07225V4.31316C102 2.32227 100.844 0.71045 99.0831 0.24459C98.4908 0.0879503 89.8054 0.097479 89.8487 0.254733ZM0.000179894 0.408422C0.000359788 0.531618 0.0871288 0.575512 0.794713 0.809856C2.09205 1.23957 3.03523 1.73672 3.11223 2.03156C3.32235 2.83572 5.20206 10.1277 5.41158 10.9515L5.66571 11.9504L7.25525 11.9494L8.8448 11.9485L10.7522 7.139C11.8012 4.49377 12.8441 1.8657 13.0697 1.29883L13.4798 0.268135L11.8849 0.284487L10.29 0.30084L8.87784 4.21621L7.46561 8.13158L7.39191 7.78178C7.35144 7.58943 7.04544 6.00809 6.71197 4.26773C5.86725 -0.141169 6.29804 0.270963 2.53351 0.270471L0 0.270102L0.000179894 0.408422ZM14.5443 0.56211C14.5218 0.722745 14.4118 1.43506 14.2997 2.1451C14.1877 2.85514 13.8918 4.73629 13.6425 6.32543C13.393 7.91457 13.0952 9.80174 12.9807 10.5192C12.8662 11.2366 12.7725 11.8659 12.7725 11.9177C12.7725 11.9998 12.9643 12.0119 14.2634 12.0119H15.7543L15.8269 11.5355C15.8668 11.2735 15.9909 10.4781 16.1026 9.76805C16.2144 9.05801 16.5102 7.17687 16.76 5.58773C17.0097 3.99859 17.2941 2.19693 17.3919 1.58408C17.4897 0.971229 17.5697 0.424836 17.5697 0.369938C17.5697 0.280491 17.4145 0.270102 16.0774 0.270102H14.585L14.5443 0.56211ZM31.0821 0.328995C30.8026 0.397295 30.5267 0.580245 30.3366 0.823381C30.2018 0.995942 25.7249 11.8223 25.7249 11.9758C25.7249 11.9968 26.4293 12.0066 27.2904 11.9976L28.8558 11.9812L29.1605 11.1051L29.4652 10.2291H31.3304H33.1958L33.3653 11.1205L33.5348 12.0119H34.9379H36.3409L36.3103 11.8736C36.2493 11.5984 35.4792 7.81658 34.5108 3.0365C34.2265 1.63332 33.98 0.436823 33.9629 0.377684C33.9297 0.26211 31.5225 0.221413 31.0821 0.328995ZM32.2807 5.73656C32.5005 6.83279 32.6708 7.73937 32.6592 7.75123C32.6476 7.76309 32.1254 7.76531 31.4988 7.75609L30.3593 7.73937L31.0853 5.70004C31.4846 4.57842 31.827 3.67934 31.8462 3.70209C31.8654 3.72484 32.061 4.64039 32.2807 5.73656ZM90.3069 8.9074V12.1963H92.1658H94.0247V10.2956V8.39476L96.3783 8.36851C99.2392 8.3366 99.4531 8.29117 100.484 7.49648C100.99 7.10691 101.82 5.96266 101.82 5.65559C101.82 5.63518 99.2296 5.61846 96.0635 5.61846H90.3069V8.9074ZM36.9241 10.6294C36.4505 10.9025 36.4797 11.6164 36.9743 11.857C37.6214 12.1719 38.2134 11.3309 37.7328 10.7796C37.5325 10.5498 37.1768 10.4837 36.9241 10.6294ZM37.5791 10.8546C37.7844 11.0525 37.7743 11.4656 37.5598 11.6386C37.2176 11.9145 36.7584 11.6881 36.7584 11.2435C36.7584 10.7936 37.266 10.5531 37.5791 10.8546ZM36.9982 11.2127C36.9982 11.4996 37.0182 11.5816 37.0882 11.5816C37.1381 11.5816 37.1781 11.5269 37.1781 11.4586C37.1781 11.3903 37.2181 11.3357 37.2681 11.3357C37.318 11.3357 37.358 11.3903 37.358 11.4586C37.358 11.5263 37.3969 11.5816 37.4446 11.5816C37.5841 11.5816 37.559 10.9827 37.4162 10.9044C37.109 10.7358 36.9982 10.8176 36.9982 11.2127ZM37.358 11.0898C37.358 11.1236 37.3176 11.1513 37.2681 11.1513C37.2186 11.1513 37.1781 11.1236 37.1781 11.0898C37.1781 11.056 37.2186 11.0283 37.2681 11.0283C37.3176 11.0283 37.358 11.056 37.358 11.0898ZM56.7266 13.1206C56.7266 13.4684 56.7194 13.4876 56.6107 13.428C55.7578 12.96 55.0326 14.3351 55.8041 14.9573C55.985 15.1032 56.5314 15.1382 56.6547 15.0119C56.7106 14.9546 56.7266 14.9546 56.7266 15.0119C56.7266 15.0552 56.8132 15.0857 56.9365 15.0857H57.1464V13.9176V12.7496H56.9365H56.7266V13.1206ZM46.7525 12.9136C46.7305 12.9361 46.7125 13.0467 46.7125 13.1595C46.7125 13.3371 46.6926 13.3644 46.5626 13.3644C46.4313 13.3644 46.4127 13.391 46.4127 13.5795C46.4127 13.7681 46.4313 13.7947 46.5626 13.7947C46.7083 13.7947 46.7125 13.8068 46.7125 14.2281C46.7125 14.8965 46.8448 15.0857 47.3122 15.0857C47.6169 15.0857 47.7319 15.0347 47.7319 14.8997C47.7319 14.6499 47.6678 14.5891 47.4485 14.6313C47.1828 14.6824 47.1344 14.6088 47.1332 14.1516L47.1323 13.8015L47.4171 13.7827C47.6895 13.7648 47.7019 13.756 47.7019 13.5795C47.7019 13.4031 47.6895 13.3943 47.4171 13.3764L47.1323 13.3576V13.1151C47.1323 12.8783 46.9047 12.7575 46.7525 12.9136ZM55.1983 13.3536C55.0668 13.3646 54.92 13.406 54.872 13.4458C54.804 13.5021 54.7947 13.5011 54.8298 13.4412C54.8629 13.3848 54.8102 13.3644 54.6314 13.3644H54.388V14.225V15.0857H54.6258H54.8635L54.8806 14.4556L54.8977 13.8254L55.1465 13.8068C55.3792 13.7894 55.3978 13.7742 55.4352 13.57C55.4822 13.3132 55.4989 13.3285 55.1983 13.3536ZM40.1164 14.225V15.0857H40.3263H40.5362V14.5419C40.5362 13.9607 40.6111 13.7947 40.8737 13.7947C41.0911 13.7947 41.1358 13.9173 41.1358 14.514V15.0857H41.3757H41.6155V14.514C41.6155 13.8889 41.6565 13.7947 41.9288 13.7947C42.1485 13.7947 42.2251 13.9923 42.2142 14.5307C42.2097 14.7514 42.2081 14.9666 42.2106 15.0088C42.2134 15.0567 42.3055 15.0857 42.455 15.0857H42.6949V14.4679C42.6949 13.4756 42.1798 13.0191 41.5936 13.4918C41.5067 13.5618 41.4356 13.594 41.4356 13.5631C41.4356 13.396 40.7502 13.2924 40.6081 13.4381C40.5522 13.4955 40.5362 13.4955 40.5362 13.4381C40.5362 13.3948 40.4496 13.3644 40.3263 13.3644H40.1164V14.225ZM43.2598 13.4803C42.5687 13.9123 42.8956 15.0857 43.7069 15.0857C43.8627 15.0857 44.0225 15.0525 44.0621 15.0119C44.118 14.9546 44.134 14.9546 44.134 15.0119C44.134 15.0571 44.2277 15.0857 44.3756 15.0857H44.6171L44.6004 14.2404L44.5838 13.3951L44.3589 13.376C44.2246 13.3646 44.134 13.384 44.134 13.4243C44.134 13.4718 44.0999 13.4729 44.0181 13.428C43.8358 13.328 43.4621 13.3538 43.2598 13.4803ZM45.0289 13.5441C44.6668 13.9153 44.9088 14.3638 45.5157 14.4463C45.7085 14.4725 45.8131 14.5164 45.8131 14.5711C45.8131 14.6719 45.1831 14.6928 45.1235 14.5939C45.0328 14.4435 44.7937 14.6641 44.7937 14.8981C44.7937 14.9906 45.1605 15.0857 45.5175 15.0857C46.4189 15.0857 46.5361 14.191 45.6584 14.0113C45.4768 13.9742 45.3298 13.9172 45.3317 13.8846C45.3357 13.8147 45.7984 13.8112 45.9439 13.88C46.0309 13.921 46.2328 13.6745 46.2328 13.5271C46.2328 13.3045 45.2491 13.3183 45.0289 13.5441ZM48.2533 13.4789C47.7584 13.8134 47.7307 14.487 48.1947 14.9048C48.5864 15.2573 49.5072 15.0777 49.329 14.6836C49.2562 14.5227 49.1726 14.4939 49.0734 14.5957C48.9508 14.7213 48.5596 14.7047 48.4264 14.5681L48.3016 14.4402L48.8862 14.4226L49.4709 14.405V14.2208C49.4709 13.5462 48.7781 13.1241 48.2533 13.4789ZM49.7108 14.225V15.0857H49.9485H50.1863L50.2034 14.4556L50.2205 13.8254L50.4483 13.8062C50.6653 13.7878 50.7901 13.6475 50.7901 13.4218C50.7901 13.3422 50.3894 13.3496 50.2393 13.432C50.1496 13.4811 50.1272 13.4811 50.1568 13.432C50.1839 13.3871 50.1159 13.3644 49.9542 13.3644H49.7108V14.225ZM51.3298 13.4043C50.7646 13.6358 50.649 14.4691 51.1229 14.8957C51.5323 15.2642 52.4538 15.0929 52.1998 14.6955C52.0939 14.5298 52.02 14.4934 51.9672 14.581C51.8078 14.8453 51.2698 14.5706 51.2698 14.225C51.2698 13.8386 51.5784 13.6939 52.0003 13.8825C52.155 13.9516 52.326 13.5951 52.1927 13.4817C52.0935 13.3973 51.4811 13.3424 51.3298 13.4043ZM52.7269 13.4849C52.2439 13.7868 52.2265 14.5868 52.6947 14.9644C52.8672 15.1035 53.4169 15.1345 53.5365 15.0119C53.5925 14.9546 53.6085 14.9546 53.6085 15.0119C53.6085 15.0552 53.6951 15.0857 53.8183 15.0857H54.0282V14.225V13.3644H53.8183C53.7029 13.3644 53.6085 13.393 53.6085 13.428C53.6085 13.4719 53.5724 13.4719 53.4925 13.428C53.3079 13.3267 52.9355 13.3544 52.7269 13.4849ZM48.9462 13.8715L49.0811 14.0099L48.8862 14.0291C48.779 14.0397 48.6037 14.0397 48.4965 14.0291L48.3016 14.0099L48.4365 13.8715C48.5107 13.7954 48.6254 13.7332 48.6914 13.7332C48.7573 13.7332 48.872 13.7954 48.9462 13.8715ZM44.0398 13.8913C44.3006 14.1587 44.0804 14.6718 43.7169 14.6435C43.2016 14.6032 43.2276 13.7947 43.7443 13.7947C43.855 13.7947 43.988 13.8382 44.0398 13.8913ZM53.4988 13.8964C53.7502 14.1296 53.5674 14.6554 53.235 14.6554C52.973 14.6554 52.8289 14.5009 52.8289 14.2199C52.8289 13.8313 53.2234 13.6409 53.4988 13.8964ZM56.6067 13.9176C56.9703 14.2904 56.4373 14.9067 56.0568 14.5536C55.9181 14.425 55.9122 14.059 56.0463 13.9071C56.1773 13.7588 56.4569 13.764 56.6067 13.9176Z" fill="#E0E0E0"/>
</svg>
