<svg width="60" height="50" viewBox="0 0 60 50" fill="none" xmlns="http://www.w3.org/2000/svg">
<path d="M17.752 4.34414C22.1567 3.99791 22.1981 3.97474 22.1981 3.32843C22.1981 2.42822 20.2542 0.396889 19.6751 0.696959C19.6544 0.720041 18.6412 0.81237 17.4418 0.927782C10.1213 1.59717 9.72832 1.78192 11.4034 3.67467C12.3753 4.75953 12.5408 4.75962 17.752 4.34414Z" fill="#BB7D58"/>
<path d="M20.7298 11.1993C21.1847 12.3304 22.9632 12.3998 29.8701 11.615C32.0001 11.3611 32.2482 10.5069 30.5318 9.23735C29.4151 8.40639 28.65 8.36036 25.0932 8.91433C21.1434 9.49139 20.2335 9.97598 20.7298 11.1993Z" fill="#BB7D58"/>
<path d="M41.6368 18.8166C41.6368 17.0854 39.2792 16.5314 34.8538 17.2008C31.5451 17.7086 30.6766 18.2857 31.3797 19.509C32.3723 21.1479 41.6368 20.5477 41.6368 18.8166Z" fill="#BB7D58"/>
<path d="M38.0179 2.98223C39.0725 2.01277 37.2527 -0.11089 35.4743 0.00452146C35.1641 0.0276038 33.7786 0.119933 32.3517 0.235344C27.5955 0.604661 26.8303 1.02023 28.0504 2.63599C28.8362 3.65162 36.9839 3.95168 38.0179 2.98223Z" fill="#BB7D58"/>
<path d="M25.7136 20.0168C25.7136 19.0474 23.2941 17.8009 21.8672 18.0086C21.7638 18.0317 20.9367 18.1241 20.0268 18.2395C15.3119 18.7934 13.8022 20.0168 15.9529 21.5864C17.173 22.4635 25.7136 21.1017 25.7136 20.0168Z" fill="#BB7D58"/>
<path d="M49.4949 9.97604C49.4949 8.45261 47.0961 7.66776 43.8081 8.08325C40.1272 8.56797 38.8243 9.19138 39.424 10.2301C40.1892 11.4996 49.4949 11.2686 49.4949 9.97604Z" fill="#BB7D58"/>
<path d="M27.4506 30.2194C28.9395 30.0809 31.1315 29.9192 32.2896 29.8269C34.6264 29.6653 34.9779 29.3191 33.7785 28.3266C32.7652 27.4956 26.1478 27.1263 23.9765 27.7957C20.5644 28.8575 23.0459 30.5887 27.4506 30.2194Z" fill="#BB7D58"/>
<path d="M10.7417 28.2574C6.54373 29.0191 5.11677 30.0577 6.72976 31.2119C8.21868 32.2506 17.2556 30.6349 16.5525 29.4577C15.7253 28.0728 13.9263 27.6803 10.7417 28.2574Z" fill="#BB7D58"/>
<path d="M12.0652 13.4384C12.0652 12.7459 11.2173 11.8227 10.4935 11.6842C9.29413 11.4534 1.95297 11.5457 1.02239 11.7996C-1.31438 12.4228 0.877577 15.308 2.40785 15.1695C2.51125 15.1465 12.0652 14.4078 12.0652 13.4384Z" fill="#BB7D58"/>
<path d="M47.1375 46.354C45.876 46.654 46 47.7849 47.4683 48.9852C47.9646 49.4007 55.1817 48.662 55.6367 48.1311C56.8774 46.7693 50.7564 45.4768 47.1375 46.354Z" fill="#BB7D58"/>
<path d="M59.5864 18.4937C58.7592 17.6165 51.6869 16.7624 51.2733 17.478C50.8804 18.1935 51.5214 19.9709 55.5332 19.8786C59.7518 19.8094 60.6617 19.6478 59.5864 18.4937Z" fill="#BB7D58"/>
<path d="M52.4313 26.6879C52.0177 26.2724 44.4077 26.1568 42.0089 26.5492C39.9617 26.8955 39.4033 27.6574 40.7062 28.3498C41.5126 28.7884 43.0842 28.4652 51.2113 27.7728C52.8863 27.6112 53.1344 27.4034 52.4313 26.6879Z" fill="#BB7D58"/>
<path d="M43.8908 36.4746C43.2911 36.2438 39.6515 36.1747 37.9145 36.3824C33.9854 36.821 32.8273 37.4903 33.882 38.6675C34.5437 39.4061 35.2882 39.4062 39.9824 38.6445C41.9676 38.3213 43.9114 38.0674 44.2837 38.0674C45.3177 38.0674 45.0488 36.9132 43.8908 36.4746Z" fill="#BB7D58"/>
<path d="M26.8096 38.506C25.6101 38.2752 19.4891 38.2983 18.4758 38.506C15.7461 39.1061 18.6205 41.622 19.7786 41.4143C22.074 40.9988 26.7682 40.3756 27.7401 40.3756C29.4979 40.3756 28.7534 38.8753 26.8096 38.506Z" fill="#BB7D58"/>
<path d="M36.5081 48.1543C35.8878 47.5311 29.5393 46.8847 28.009 47.3002C25.9204 47.8772 27.4506 50.2546 29.7253 49.9776C31.5865 49.7468 34.1093 49.4007 35.681 49.3776C37.0045 49.3776 37.294 48.9391 36.5081 48.1543Z" fill="#BB7D58"/>
</svg>
