<svg width="84" height="16" viewBox="0 0 84 16" fill="none" xmlns="http://www.w3.org/2000/svg">
<path opacity="0.6" fill-rule="evenodd" clip-rule="evenodd" d="M6.54397 0.0205377C4.96927 0.122154 3.96655 0.363437 2.99731 0.873895C1.98028 1.40952 1.32874 2.10627 0.817126 3.20522C0.465433 3.96068 0.254659 4.76063 0.132113 5.80503C-0.0385007 7.25882 -0.0439144 8.76926 0.116167 10.2471C0.326645 12.1902 1.07994 13.807 2.16209 14.6385C3.1067 15.3643 4.17795 15.7609 5.6909 15.9451C6.28578 16.0175 8.94161 16.0186 9.58748 15.9466C11.258 15.7606 12.5628 15.2281 13.4779 14.359C14.1666 13.7049 14.7693 12.5005 15.0386 11.2405C15.3389 9.83507 15.4112 7.39666 15.2032 5.68836C14.9543 3.64481 14.1737 2.09178 12.9747 1.25447C12.0194 0.587468 11.0074 0.244569 9.48049 0.0705712C8.91632 0.00631628 7.21409 -0.0227121 6.54397 0.0205377ZM72.7059 4.32672C72.194 4.39166 71.6096 4.6253 71.2142 4.92319C70.9837 5.09685 70.5914 5.50982 70.4237 5.7553C69.9683 6.42213 69.7297 7.37679 69.8158 8.18755C69.9895 9.8222 71.0985 11.1041 72.5518 11.3501C72.8959 11.4084 73.5012 11.3758 73.8379 11.281C74.2033 11.1782 74.5491 10.9911 74.759 10.7828L74.937 10.6061V10.9259V11.2457H75.6425H76.3479V7.85388V4.46208H75.6425H74.937V4.79299V5.12391L74.7604 4.93555C74.5752 4.73811 74.3225 4.5679 74.0801 4.47747C73.7036 4.33698 73.1252 4.27355 72.7059 4.32672ZM65.1346 4.36019C64.6869 4.44465 64.2917 4.64692 64.0206 4.93046L63.8495 5.10934L63.8401 4.79434L63.8308 4.4793L63.1171 4.47L62.4035 4.46074V9.14449V13.8283H63.1089H63.8144V12.2236V10.6189L63.9968 10.7939C64.4695 11.2474 65.3538 11.4946 66.1086 11.3844C67.3868 11.1978 68.3831 10.29 68.7955 8.93616C69.1721 7.70006 68.883 6.35326 68.0372 5.40342C67.758 5.08989 67.4671 4.86613 67.079 4.66648C66.6178 4.42923 66.3272 4.35712 65.7666 4.3409C65.5139 4.3336 65.2295 4.34228 65.1346 4.36019ZM77.2788 4.57399C77.3039 4.63553 77.9258 6.07517 78.6607 7.77317L79.9968 10.8605L79.4027 12.3237C79.076 13.1285 78.8087 13.7962 78.8087 13.8076C78.8087 13.819 79.1391 13.8283 79.543 13.8283H80.2773L80.3935 13.5442C81.4519 10.9565 83.9736 4.6575 83.9849 4.57334L84 4.46074L83.2703 4.47003L82.5407 4.4793L81.6451 6.82085C81.1526 8.1087 80.737 9.18357 80.7216 9.20943C80.7027 9.24118 80.3753 8.47673 79.7148 6.85927L78.736 4.46208H77.9844H77.2329L77.2788 4.57399ZM22.8343 5.24209C21.7447 5.41571 21.243 6.05423 21.364 7.11354C21.4361 7.74466 21.7317 8.07392 22.7761 8.68648C23.7022 9.22961 23.8637 9.39276 23.8637 9.78542C23.8637 10.0214 23.8166 10.1253 23.6506 10.2554C23.5204 10.3573 23.2367 10.3729 23.054 10.2881C22.8189 10.1789 22.7689 10.0646 22.7688 9.63587L22.7687 9.28292H22.0304H21.2922L21.2927 9.61865C21.294 10.55 21.6602 11.0639 22.4898 11.2988C22.7528 11.3733 23.5038 11.4032 23.8178 11.3517C24.5321 11.2346 24.9596 10.9226 25.1661 10.3676C25.2346 10.1834 25.2431 10.103 25.2444 9.62726C25.2458 9.11729 25.2419 9.08468 25.157 8.89446C25.0481 8.65053 24.7623 8.32991 24.4759 8.13029C24.358 8.04813 24.0401 7.85357 23.7694 7.69796C22.9086 7.20307 22.7609 7.06075 22.7579 6.72291C22.7557 6.47561 22.8349 6.3326 23.0225 6.24555C23.1381 6.19186 23.212 6.18036 23.3396 6.19624C23.6534 6.23525 23.7857 6.42295 23.7857 6.82945L23.7858 7.0791H24.4618H25.1378L25.1255 6.65728C25.1149 6.29014 25.1021 6.21025 25.0271 6.04097C24.7866 5.4987 24.1683 5.21217 23.2647 5.22432C23.0731 5.2269 22.8794 5.23489 22.8343 5.24209ZM57.2307 5.30259C56.613 5.42659 56.2566 5.66767 56.0368 6.11022C55.8763 6.43346 55.8672 6.52805 55.8503 8.05312C55.8397 9.0146 55.8468 9.60299 55.8718 9.8265C55.9575 10.5938 56.3389 11.0219 57.1088 11.2145C57.36 11.2774 57.4697 11.2852 57.9085 11.2715C58.3442 11.2579 58.4554 11.2425 58.6847 11.1641C59.1719 10.9974 59.4937 10.7062 59.6538 10.2868C59.7246 10.1016 59.7287 10.0397 59.7392 9.01605L59.7501 7.93997H58.7801H57.8101V8.35318V8.7664H58.089H58.3678V9.31225C58.3678 9.82164 58.3629 9.86572 58.294 9.97195C58.1789 10.1495 58.062 10.2223 57.8643 10.2395C57.5125 10.2701 57.3092 10.1208 57.2507 9.78903C57.2289 9.66538 57.2198 9.06099 57.226 8.15518C57.2351 6.83138 57.2407 6.70725 57.2973 6.58772C57.3979 6.37543 57.5239 6.30433 57.7995 6.30433C57.9861 6.30433 58.0537 6.31903 58.1255 6.37533C58.3057 6.51651 58.3417 6.60294 58.3599 6.93789L58.3769 7.25128H59.0614H59.7459L59.7452 7.05328C59.7443 6.76482 59.691 6.42323 59.6128 6.20381C59.4742 5.81494 59.0832 5.49071 58.5826 5.34942C58.2752 5.26272 57.554 5.23772 57.2307 5.30259ZM40.7222 5.32298C39.932 5.44005 39.4457 5.83182 39.307 6.46324C39.2293 6.81723 39.28 7.3447 39.4193 7.63006C39.5676 7.93401 39.8974 8.23538 40.4206 8.54516C41.138 8.96987 41.3349 9.10058 41.4918 9.2564C41.7056 9.46859 41.7443 9.56714 41.7269 9.85515C41.7141 10.0648 41.7033 10.093 41.5962 10.196C41.3368 10.4455 40.8444 10.3732 40.7051 10.0652C40.6657 9.97812 40.6503 9.85088 40.6503 9.61345V9.28292H39.9285H39.2066V9.63725C39.2066 10.2062 39.3159 10.5372 39.6034 10.839C39.7969 11.0421 40.1433 11.2236 40.4874 11.3024C40.8358 11.3821 41.5402 11.3814 41.8807 11.3009C42.7564 11.094 43.1442 10.5641 43.1431 9.57561C43.1422 8.77824 42.8348 8.3944 41.6681 7.73364C41.0995 7.41167 40.9885 7.33871 40.8395 7.18916C40.6905 7.03961 40.6364 6.88283 40.665 6.68294C40.7039 6.41042 40.8876 6.25268 41.1659 6.25268C41.5064 6.25268 41.6674 6.44878 41.6674 6.86334V7.11354H42.3564H43.0454L43.0452 6.89832C43.0448 6.59547 42.9897 6.27416 42.9059 6.08612C42.7564 5.75103 42.4023 5.48651 41.9511 5.37308C41.7017 5.31037 41.0003 5.28179 40.7222 5.32298ZM26.6798 8.27581C26.4038 9.84296 26.1786 11.1371 26.1794 11.1516C26.1802 11.1662 26.5091 11.174 26.9101 11.1689L27.6394 11.1596L28.0159 8.5696C28.223 7.14512 28.4006 5.98805 28.4105 5.99831C28.4203 6.00857 28.593 7.17108 28.794 8.58169C28.9951 9.9923 29.1664 11.1536 29.1747 11.1623C29.183 11.171 29.5141 11.174 29.9104 11.1689L30.6311 11.1596L30.1957 8.69753C29.9563 7.34339 29.7281 6.0534 29.6887 5.83085L29.6169 5.42625L28.3993 5.42635L27.1816 5.42642L26.6798 8.27581ZM31.8437 6.08911C31.8324 6.4537 31.8089 7.44928 31.7915 8.30153C31.7741 9.15379 31.7506 10.1494 31.7393 10.514L31.7187 11.1768H32.406H33.0932L33.115 9.82822C33.1269 9.0865 33.1367 7.92434 33.1367 7.24563C33.1367 6.56693 33.1478 6.01167 33.1613 6.01174C33.1749 6.01181 33.3758 7.10035 33.6079 8.43076C33.84 9.76118 34.0442 10.9233 34.0617 11.0133L34.0937 11.1768H34.7927H35.4917L35.5111 11.0649C35.5217 11.0033 35.7227 9.85584 35.9577 8.51485C36.1927 7.1739 36.3849 6.06208 36.3849 6.04417C36.3849 6.02627 36.3997 6.01163 36.4178 6.01163C36.4392 6.01163 36.4506 6.687 36.4506 7.96889C36.4506 9.04539 36.4603 10.2076 36.4721 10.5515L36.4937 11.1768H37.177H37.8603L37.8429 10.6517C37.8239 10.0786 37.7302 5.87465 37.7302 5.59749V5.42625H36.6168C35.5848 5.42625 35.5022 5.43065 35.4867 5.48651C35.4775 5.51967 35.3186 6.51496 35.1337 7.69831C34.8922 9.2437 34.7907 9.82092 34.7734 9.74716C34.7602 9.69069 34.605 8.69539 34.4285 7.53536L34.1076 5.42625H32.986H31.8643L31.8437 6.08911ZM44.3912 7.51815C44.3915 8.66871 44.406 9.75212 44.4235 9.92574C44.4666 10.3551 44.5542 10.5842 44.7682 10.8268C44.9675 11.0526 45.1882 11.1799 45.565 11.2861C45.927 11.3881 46.7251 11.3883 47.0862 11.2866C47.7266 11.106 48.0816 10.7542 48.2128 10.1703C48.253 9.99141 48.2614 9.56624 48.2618 7.69032L48.2623 5.42625H47.5744H46.8865L46.8772 7.6731C46.8681 9.86176 46.8661 9.92305 46.8011 10.0393C46.7052 10.2106 46.5453 10.2976 46.3265 10.2976C46.1038 10.2976 45.9395 10.2068 45.859 10.0393C45.8061 9.92932 45.8016 9.74368 45.8016 7.6731L45.8015 5.42625H45.0961H44.3907L44.3912 7.51815ZM49.8044 8.28431V11.1424H50.4586C50.8185 11.1424 51.1203 11.1298 51.1293 11.1146C51.1383 11.0993 51.131 10.2354 51.1132 9.19483C51.0953 8.15429 51.0851 7.10149 51.0905 6.85528L51.1004 6.40763L51.7769 8.7664L52.4534 11.1252H53.4338H54.4142L54.4226 8.27571L54.431 5.42625H53.7372H53.0435L53.0642 6.29572C53.095 7.58557 53.1203 9.95952 53.1029 9.91996C53.0946 9.90102 52.8136 8.9093 52.4784 7.71614C52.1432 6.52299 51.8612 5.51967 51.8516 5.48651C51.8355 5.43079 51.7573 5.42625 50.8193 5.42625H49.8044V8.28431ZM66.0211 5.68337C66.625 5.81766 67.1638 6.32723 67.3746 6.96351C67.6225 7.7116 67.5441 8.61478 67.1814 9.18815C66.92 9.60161 66.4526 9.94299 66.0192 10.0371C65.6079 10.1265 65.0679 10.0542 64.704 9.86118C64.0557 9.51714 63.7199 8.75462 63.7594 7.71614C63.7869 6.99226 63.9372 6.57161 64.3082 6.1806C64.7434 5.72197 65.3729 5.53923 66.0211 5.68337ZM73.746 5.71811C74.5664 5.99135 75.0018 6.72316 75.0024 7.8295C75.0029 8.62807 74.8247 9.16429 74.4302 9.55157C74.0743 9.90095 73.6969 10.0454 73.1398 10.0454C72.8052 10.0454 72.6024 10.0005 72.3286 9.86596C71.471 9.44445 71.0529 8.33955 71.3131 7.18241C71.4763 6.45698 72.0098 5.87042 72.6731 5.68723C72.9729 5.60444 73.4456 5.61805 73.746 5.71811ZM4.53273 5.70572C4.81103 5.76722 5.03427 5.90127 5.24878 6.13574C5.4775 6.38577 5.59106 6.62164 5.64064 6.94998C5.71597 7.44862 5.55841 7.92805 5.20698 8.26951C4.86287 8.60387 4.58726 8.69753 3.94749 8.69753H3.57464V9.30127V9.90501L3.20552 9.89526L2.8364 9.88552L2.82794 7.7764L2.81951 5.66729H3.58917C4.02985 5.66729 4.43318 5.68371 4.53273 5.70572ZM3.57464 7.16526V7.94706L3.97656 7.93491C4.34594 7.92375 4.39105 7.915 4.53345 7.82713C4.76368 7.68512 4.87064 7.4751 4.87064 7.16519C4.87064 6.96309 4.85578 6.8976 4.77861 6.75983C4.72798 6.66944 4.62571 6.55322 4.55137 6.50157C4.42495 6.41369 4.38899 6.40684 3.99543 6.39558L3.57464 6.38349V7.16526ZM7.84598 6.56173C7.96137 6.59912 8.12903 6.68448 8.21857 6.75139L8.38134 6.87308L8.39119 6.68338L8.40103 6.49372H8.79341H9.18582L9.17729 8.18962L9.16879 9.88552H8.79147H8.41416L8.39775 9.66631C8.38144 9.44824 8.38102 9.44748 8.31917 9.51958C8.1101 9.76331 7.64075 9.92763 7.26579 9.88845C6.24405 9.7816 5.60339 8.83685 5.82119 7.75815C5.9395 7.17229 6.37083 6.714 6.96086 6.54733C7.2173 6.47488 7.59715 6.48105 7.84598 6.56173ZM10.645 7.62152C10.8858 8.23235 11.0884 8.74977 11.0952 8.77132C11.1021 8.79291 11.2383 8.44812 11.398 8.00508C11.5576 7.56208 11.7467 7.04078 11.8182 6.84667L11.9481 6.49372H12.3384C12.5531 6.49372 12.7287 6.50191 12.7287 6.51197C12.7287 6.52199 12.3061 7.61832 11.7896 8.94821C11.2732 10.2781 10.8434 11.3856 10.8346 11.4092C10.8232 11.4402 10.7128 11.4523 10.4413 11.4523C10.0663 11.4523 10.0641 11.4518 10.0826 11.3748C10.0929 11.3322 10.2407 10.9455 10.4111 10.5155L10.7209 9.7336L10.0679 8.12667C9.70872 7.24284 9.41487 6.51338 9.41487 6.50567C9.41487 6.49792 9.59313 6.49596 9.81102 6.50126L10.2072 6.51093L10.645 7.62152ZM7.24293 7.26302C6.6654 7.43371 6.39524 8.06421 6.66071 8.62177C6.83545 8.98881 7.10243 9.15761 7.51187 9.15998C7.90156 9.16222 8.20036 8.98044 8.36579 8.64047C8.47626 8.41351 8.48056 7.99303 8.37462 7.78267C8.16923 7.37486 7.6583 7.14026 7.24293 7.26302Z" fill="#E0E0E0"/>
</svg>
