<svg width="12" height="12" viewBox="0 0 12 12" fill="none" xmlns="http://www.w3.org/2000/svg">
<path fill-rule="evenodd" clip-rule="evenodd" d="M6.0366 3.22489L6.17801 3.66677C6.06016 3.75665 5.04668 4.61794 4.98383 4.52057C4.97597 4.51308 3.23169 3.6443 2.05316 3.95137C0.764638 4.2884 -0.170312 5.57659 0.026109 7.2093C0.253958 9.06669 3.35745 10.0778 4.88953 8.78958L5.18025 8.54242C5.29025 8.58736 6.06803 8.93937 6.19374 8.93937C6.25659 8.93937 6.27231 8.98431 6.23302 9.07418C5.32948 11.2162 9.05368 13.0211 10.9158 11.336C12.0314 10.3249 11.4972 7.71858 10.1301 7.54632C9.6508 7.48641 9.61148 7.67364 10.02 8.07059C11.4343 9.46363 9.59576 12.3096 8.00081 11.1937C6.26445 9.9879 7.55302 7.53883 9.22653 7.52386C9.45438 7.52386 9.52506 7.39653 9.35221 7.30666C8.69223 6.96963 7.71795 7.23926 6.96369 7.97322L6.50801 8.48251C6.42944 8.45255 5.72231 8.18293 5.51018 8.09305L5.69095 7.66616C6.00522 6.91721 6.02089 6.30307 5.72233 5.644C5.50234 5.1422 5.48662 5.0748 5.60447 5.00739C5.77732 4.91003 6.53161 4.37079 6.65732 4.28091L7.07372 4.54304C9.25793 5.92111 12.0078 4.70781 12 2.3636C11.9921 1.14282 10.9786 0.498724 9.91792 0.199145C6.73589 -0.684614 5.49448 1.56223 6.0366 3.22489ZM10.9236 2.1539C10.9236 4.36329 8.08729 5.34442 7.3016 3.40464C6.98733 2.61825 7.1287 -0.145371 9.61147 0.573619C10.3186 0.775835 10.9236 1.34503 10.9236 2.1539ZM4.88953 5.22458C5.53379 6.12332 5.01526 7.95825 3.60888 8.63979C2.79177 9.03673 1.69963 8.51996 1.3775 7.58377C1.09466 6.7824 1.39323 5.79378 1.90393 5.14969C2.82318 3.98882 4.55954 4.76773 4.88953 5.22458Z" fill="#B2896F"/>
</svg>
