<svg width="34" height="18" viewBox="0 0 34 18" fill="none" xmlns="http://www.w3.org/2000/svg">
<path opacity="0.8" fill-rule="evenodd" clip-rule="evenodd" d="M18.0093 17.8451C20.534 17.5858 29.8603 16.3667 32.5862 12.3459C36.0674 7.21017 29.8588 3.17742 26.2031 9.90022C24.4728 13.0805 20.8618 16.3026 18.0093 17.6335V17.8451ZM15.6039 17.8451C13.0794 17.5858 3.75146 16.3667 1.02419 12.3459C-2.45575 7.21017 3.75298 3.17742 7.40724 9.90022C9.13753 13.0805 12.7499 16.3042 15.6039 17.635V17.8451ZM20.0138 3.97919C20.0138 1.98067 18.7724 0 16.8052 0C14.8394 0 13.5965 1.98067 13.5965 3.97919C13.5965 6.76305 16.2179 12.5978 16.7217 16.5993H16.8902C17.3923 12.5978 20.0138 6.76305 20.0138 3.97919Z" fill="#BB7D58"/>
</svg>
