<svg width="55" height="53" viewBox="0 0 55 53" fill="none" xmlns="http://www.w3.org/2000/svg">
<rect opacity="0.8" width="55" height="52.9673" fill="#333333"/>
<path fill-rule="evenodd" clip-rule="evenodd" d="M26.1582 6.69869L24.4375 8.39739L25.19 10.1226C25.604 11.0715 26.2153 12.3761 26.5487 13.0215C27.2477 14.3752 27.2491 14.3702 25.6631 16.7326C22.0832 22.0659 18.8815 23.0315 15.6726 19.7463C14.5112 18.5574 13.0103 16.267 12.6772 15.1754C12.4411 14.4022 12.3651 14.3428 11.6705 14.3887C10.9882 14.4337 10.9311 14.4889 11.048 14.9909C11.3052 16.0959 12.7882 18.6967 13.9475 20.0761C16.5128 23.1283 19.0793 23.9528 21.8772 22.6237C23.2602 21.9665 25.3353 19.9215 26.6984 17.8724C27.3118 16.9502 27.8943 16.1957 27.9929 16.1957C28.0914 16.1957 28.7041 16.9761 29.354 17.93C33.6417 24.2213 38.1163 24.9272 42.1574 19.95C43.2696 18.58 44.7125 16.0198 44.9519 14.9909C45.0693 14.4872 45.0128 14.4339 44.3118 14.3876C43.6249 14.3422 43.5279 14.4046 43.4003 14.9741C43.0769 16.4196 40.7586 19.5878 39.2289 20.6754C36.1655 22.8533 32.9324 21.1593 29.6444 15.6535L28.8282 14.2865L29.3325 13.2846C29.6099 12.7335 30.2263 11.4096 30.7023 10.3426L31.5677 8.40261L29.8444 6.70131C28.8966 5.76565 28.0666 5 28 5C27.9333 5 27.1044 5.76435 26.1582 6.69869ZM28.9602 8.00674L29.7888 8.83957L28.9735 10.6154C28.5249 11.5922 28.0895 12.3913 28.0057 12.3913C27.9222 12.3913 27.4863 11.5898 27.0375 10.6102L26.2213 8.82935L27.0448 8.00152C27.4978 7.54631 27.9275 7.17391 28 7.17391C28.0724 7.17391 28.5046 7.54869 28.9602 8.00674ZM27.0143 20.2026C25.7931 21.835 23.8399 23.4761 22.2433 24.2109C19.3959 25.5211 16.6893 24.9443 14.0011 22.4546C13.2535 21.7622 12.6916 21.3424 12.7521 21.5217C12.8125 21.7011 13.4463 24.1222 14.1604 26.9022L15.4586 31.9565H28.006H40.5535L41.8185 27.0109C42.5143 24.2909 43.1418 21.8696 43.2129 21.6304C43.2942 21.3565 42.8421 21.6615 41.9908 22.4546C39.3204 24.9424 36.6052 25.5215 33.7566 24.2109C32.16 23.4761 30.2068 21.835 28.9857 20.2026C28.5446 19.6128 28.101 19.1304 28 19.1304C27.899 19.1304 27.4553 19.6128 27.0143 20.2026ZM15.3742 34.2391V35H28H40.6257V34.2391V33.4783H28H15.3742V34.2391Z" fill="white"/>
<path d="M3.6782 49C3.53154 49 3.4082 48.95 3.3082 48.85C3.2082 48.75 3.1582 48.6267 3.1582 48.48V41.71C3.1582 41.5567 3.2082 41.4333 3.3082 41.34C3.4082 41.24 3.53154 41.19 3.6782 41.19H5.6782C6.1782 41.19 6.62154 41.3 7.0082 41.52C7.39487 41.74 7.69487 42.0467 7.9082 42.44C8.1282 42.8267 8.2382 43.2733 8.2382 43.78C8.2382 44.2667 8.1282 44.7 7.9082 45.08C7.69487 45.46 7.39487 45.7567 7.0082 45.97C6.62154 46.1833 6.1782 46.29 5.6782 46.29H4.1982V48.48C4.1982 48.6267 4.1482 48.75 4.0482 48.85C3.95487 48.95 3.83154 49 3.6782 49ZM4.1982 45.33H5.6782C5.98487 45.33 6.25487 45.2633 6.4882 45.13C6.72154 44.9967 6.90487 44.8133 7.0382 44.58C7.17154 44.3467 7.2382 44.08 7.2382 43.78C7.2382 43.46 7.17154 43.18 7.0382 42.94C6.90487 42.6933 6.72154 42.5 6.4882 42.36C6.25487 42.22 5.98487 42.15 5.6782 42.15H4.1982V45.33Z" fill="white"/>
<path d="M9.90867 49C9.76201 49 9.63867 48.95 9.53867 48.85C9.43867 48.75 9.38867 48.6267 9.38867 48.48V41.71C9.38867 41.5567 9.43867 41.4333 9.53867 41.34C9.63867 41.24 9.76201 41.19 9.90867 41.19H11.7087C12.2087 41.19 12.652 41.2967 13.0387 41.51C13.4253 41.7167 13.7253 42.0033 13.9387 42.37C14.1587 42.7367 14.2687 43.1633 14.2687 43.65C14.2687 44.1033 14.1587 44.5067 13.9387 44.86C13.7253 45.2133 13.4253 45.49 13.0387 45.69C12.652 45.89 12.2087 45.99 11.7087 45.99H10.4287V48.48C10.4287 48.6267 10.3787 48.75 10.2787 48.85C10.1853 48.95 10.062 49 9.90867 49ZM14.0587 49C13.9653 49 13.8787 48.98 13.7987 48.94C13.7253 48.9 13.662 48.8367 13.6087 48.75L11.8087 45.85L12.8187 45.56L14.4587 48.2C14.5787 48.3933 14.5953 48.5767 14.5087 48.75C14.422 48.9167 14.272 49 14.0587 49ZM10.4287 45.03H11.7087C12.0153 45.03 12.2853 44.9733 12.5187 44.86C12.752 44.74 12.9353 44.5767 13.0687 44.37C13.202 44.1567 13.2687 43.9167 13.2687 43.65C13.2687 43.3567 13.202 43.0967 13.0687 42.87C12.9353 42.6433 12.752 42.4667 12.5187 42.34C12.2853 42.2133 12.0153 42.15 11.7087 42.15H10.4287V45.03Z" fill="white"/>
<path d="M16.227 49C16.0804 49 15.957 48.95 15.857 48.85C15.757 48.75 15.707 48.6267 15.707 48.48V41.71C15.707 41.5567 15.757 41.4333 15.857 41.34C15.957 41.24 16.0804 41.19 16.227 41.19H20.747C20.9004 41.19 21.0237 41.2367 21.117 41.33C21.2104 41.4167 21.257 41.5333 21.257 41.68C21.257 41.82 21.2104 41.9333 21.117 42.02C21.0237 42.1067 20.9004 42.15 20.747 42.15H16.747V44.58H19.617C19.7704 44.58 19.8937 44.6267 19.987 44.72C20.0804 44.8067 20.127 44.92 20.127 45.06C20.127 45.2 20.0804 45.3167 19.987 45.41C19.8937 45.4967 19.7704 45.54 19.617 45.54H16.747V48.04H20.747C20.9004 48.04 21.0237 48.0833 21.117 48.17C21.2104 48.2567 21.257 48.37 21.257 48.51C21.257 48.6567 21.2104 48.7767 21.117 48.87C21.0237 48.9567 20.9004 49 20.747 49H16.227Z" fill="white"/>
<path d="M23.229 49C23.0823 49 22.959 48.95 22.859 48.85C22.759 48.75 22.709 48.6267 22.709 48.48V41.71C22.709 41.5567 22.759 41.4333 22.859 41.34C22.959 41.24 23.0823 41.19 23.229 41.19C23.429 41.19 23.5823 41.2833 23.689 41.47L26.819 47.74H26.499L29.549 41.47C29.6557 41.2833 29.809 41.19 30.009 41.19C30.1557 41.19 30.279 41.24 30.379 41.34C30.479 41.4333 30.529 41.5567 30.529 41.71V48.48C30.529 48.6267 30.4757 48.75 30.369 48.85C30.269 48.95 30.149 49 30.009 49C29.8623 49 29.739 48.95 29.639 48.85C29.539 48.75 29.489 48.6267 29.489 48.48V43.15L29.689 43.1L27.069 48.44C26.9557 48.6133 26.8057 48.7 26.619 48.7C26.399 48.7 26.239 48.5967 26.139 48.39L23.549 43.2L23.749 43.15V48.48C23.749 48.6267 23.699 48.75 23.599 48.85C23.499 48.95 23.3757 49 23.229 49Z" fill="white"/>
<path d="M33.0532 49C32.9065 49 32.7832 48.95 32.6832 48.85C32.5832 48.75 32.5332 48.6267 32.5332 48.48V41.71C32.5332 41.5567 32.5832 41.4333 32.6832 41.34C32.7832 41.24 32.9065 41.19 33.0532 41.19C33.2065 41.19 33.3299 41.24 33.4232 41.34C33.5232 41.4333 33.5732 41.5567 33.5732 41.71V48.48C33.5732 48.6267 33.5232 48.75 33.4232 48.85C33.3299 48.95 33.2065 49 33.0532 49Z" fill="white"/>
<path d="M38.8403 49.16C38.2003 49.16 37.6336 49.0433 37.1403 48.81C36.647 48.57 36.2603 48.24 35.9803 47.82C35.707 47.4 35.5703 46.92 35.5703 46.38V41.71C35.5703 41.5567 35.6203 41.4333 35.7203 41.34C35.8203 41.24 35.9436 41.19 36.0903 41.19C36.2436 41.19 36.367 41.24 36.4603 41.34C36.5603 41.4333 36.6103 41.5567 36.6103 41.71V46.38C36.6103 46.74 36.7036 47.06 36.8903 47.34C37.0836 47.6133 37.347 47.83 37.6803 47.99C38.0203 48.1433 38.407 48.22 38.8403 48.22C39.2603 48.22 39.6303 48.1433 39.9503 47.99C40.277 47.83 40.5303 47.6133 40.7103 47.34C40.897 47.06 40.9903 46.74 40.9903 46.38V41.71C40.9903 41.5567 41.0403 41.4333 41.1403 41.34C41.2403 41.24 41.3636 41.19 41.5103 41.19C41.6636 41.19 41.787 41.24 41.8803 41.34C41.9736 41.4333 42.0203 41.5567 42.0203 41.71V46.38C42.0203 46.92 41.8836 47.4 41.6103 47.82C41.3436 48.24 40.9703 48.57 40.4903 48.81C40.0103 49.0433 39.4603 49.16 38.8403 49.16Z" fill="white"/>
<path d="M44.5376 49C44.3909 49 44.2676 48.95 44.1676 48.85C44.0676 48.75 44.0176 48.6267 44.0176 48.48V41.71C44.0176 41.5567 44.0676 41.4333 44.1676 41.34C44.2676 41.24 44.3909 41.19 44.5376 41.19C44.7376 41.19 44.8909 41.2833 44.9976 41.47L48.1276 47.74H47.8076L50.8576 41.47C50.9642 41.2833 51.1176 41.19 51.3176 41.19C51.4642 41.19 51.5876 41.24 51.6876 41.34C51.7876 41.4333 51.8376 41.5567 51.8376 41.71V48.48C51.8376 48.6267 51.7842 48.75 51.6776 48.85C51.5776 48.95 51.4576 49 51.3176 49C51.1709 49 51.0476 48.95 50.9476 48.85C50.8476 48.75 50.7976 48.6267 50.7976 48.48V43.15L50.9976 43.1L48.3776 48.44C48.2642 48.6133 48.1142 48.7 47.9276 48.7C47.7076 48.7 47.5476 48.5967 47.4476 48.39L44.8576 43.2L45.0576 43.15V48.48C45.0576 48.6267 45.0076 48.75 44.9076 48.85C44.8076 48.95 44.6842 49 44.5376 49Z" fill="white"/>
</svg>
