<svg width="37" height="36" viewBox="0 0 37 36" fill="none" xmlns="http://www.w3.org/2000/svg">
<path fill-rule="evenodd" clip-rule="evenodd" d="M4.90918 0C2.70004 0 0.90918 1.79086 0.90918 4V30.4122C0.90918 32.6214 2.70004 34.4122 4.90918 34.4122H11.524C11.5276 34.9099 11.5327 35.2202 11.539 35.2379C11.6207 35.4711 11.7995 35.5284 12.0234 35.3929C12.1219 35.3334 12.434 34.9883 12.9151 34.4122H32.9092C35.1183 34.4122 36.9092 32.6214 36.9092 30.4122V4C36.9092 1.79086 35.1183 0 32.9092 0H4.90918ZM12.9151 34.4122C13.6117 33.5782 14.6626 32.2599 15.9321 30.623L16.7311 29.5927L17.1139 29.6201C17.7039 29.6623 19.9617 29.6482 20.5763 29.5986C21.8862 29.4928 23.0635 29.3352 24.1072 29.1258C24.8213 28.9826 26.5414 28.5144 27.0761 28.3176C29.2496 27.5179 30.7776 25.9126 31.6507 23.5117C32.1437 22.156 32.4271 20.3101 32.5639 17.5629C32.6132 16.5716 32.5861 14.2134 32.5163 13.4315C32.2638 10.603 31.6795 8.4601 30.7377 6.90928C30.0851 5.83459 29.4035 5.18384 28.2981 4.5801C26.3931 3.53956 23.945 2.91783 20.9605 2.71654C20.2279 2.66712 17.3262 2.64243 16.7977 2.6811C13.1781 2.94596 10.4537 3.80747 8.61711 5.26801C7.31146 6.30634 6.29971 8.11761 5.77862 10.3496C5.37352 12.0848 5.23 13.7989 5.22907 16.9137C5.2285 18.8333 5.28793 19.8056 5.47953 21.0116C6.11168 24.9911 8.01136 27.5166 11.1816 28.5923L11.5249 28.7088L11.5194 31.9375C11.5177 32.9145 11.5196 33.8035 11.524 34.4122H12.9151ZM23.8556 8.22749C22.5873 7.28137 20.9524 6.68427 19.4127 6.60482C19.2012 6.59389 18.9383 6.57866 18.8285 6.57099C18.7186 6.56332 18.5856 6.57095 18.5328 6.58798C18.1316 6.71738 18.1247 7.3538 18.5227 7.5161C18.5742 7.53714 18.7541 7.55434 18.9224 7.55434C19.6118 7.55434 20.622 7.7394 21.3604 8.001C23.3667 8.7116 25.068 10.3414 25.9053 12.3548C26.3522 13.4293 26.5981 14.6244 26.6675 16.0583C26.7036 16.8025 26.7287 16.8979 26.9137 16.9924C27.1674 17.122 27.4598 17.022 27.5572 16.7725C27.6031 16.6547 27.6048 16.5536 27.5711 15.9221C27.4437 13.5319 26.8815 11.7429 25.7584 10.1541C25.3223 9.53698 24.514 8.71863 23.8556 8.22749ZM14.4352 8.91547C13.8017 8.06393 13.6285 7.86644 13.407 7.74355C13.1588 7.60583 12.6962 7.58863 12.3863 7.70557C11.8351 7.9136 10.8378 8.77224 10.3829 9.43044C9.83637 10.2212 9.73017 10.899 10.0143 11.783C10.2463 12.5048 10.4889 13.1012 10.9543 14.0945C12.3125 16.9926 13.4452 18.7627 15.0494 20.4932C16.653 22.2231 18.3876 23.5071 21.0757 24.954C21.9473 25.4232 22.4167 25.6459 23.0399 25.886C23.4426 26.0411 23.5255 26.0607 23.8364 26.0747C24.2684 26.0941 24.4686 26.0495 24.8544 25.8475C25.239 25.6463 25.5274 25.4089 25.8884 24.9966C26.7406 24.0231 27.1128 23.2389 27.0087 22.6364C26.9308 22.1854 26.8431 22.0688 26.0695 21.3882C25.1613 20.5891 24.7248 20.2554 23.8457 19.6881C23.2624 19.3117 22.9149 19.2157 22.4658 19.3069C22.097 19.3818 21.8989 19.5285 21.5644 19.9744C21.0368 20.6776 20.9428 20.7818 20.7497 20.8769C20.6474 20.9274 20.4803 20.9735 20.3645 20.9834C20.1854 20.9986 20.1028 20.98 19.6953 20.8331C18.5965 20.4371 17.6451 19.8036 16.8142 18.9145C16.3571 18.4255 16.0742 18.0521 15.7003 17.4452C15.2621 16.7335 14.9176 15.993 14.6837 15.2594C14.5791 14.9316 14.5766 14.9108 14.6151 14.6863C14.6853 14.2762 14.7698 14.1589 15.3514 13.6639C15.9116 13.1871 16.0332 13.0334 16.1289 12.6814C16.2028 12.4091 16.1968 11.9865 16.115 11.7012C15.9795 11.2292 15.2226 9.9739 14.4352 8.91547ZM22.1828 9.70947C21.6254 9.40865 20.839 9.15615 20.106 9.04259C19.9113 9.01245 19.6391 8.98779 19.5009 8.98779C19.2797 8.98779 19.2376 8.99876 19.1479 9.08004C19.0268 9.18973 18.9611 9.39772 18.9919 9.57425C19.0199 9.73509 19.1814 9.91162 19.3208 9.93391C19.3796 9.9433 19.6173 9.9762 19.8489 10.007C21.448 10.2197 22.6863 10.9662 23.513 12.2158C24.0869 13.0832 24.3676 14.0368 24.4245 15.3129L24.4485 15.8505L24.5566 15.9669C24.6543 16.0723 24.6835 16.0834 24.8632 16.0834C25.203 16.0834 25.3374 15.8982 25.3368 15.4305C25.3344 13.6713 24.7922 12.1334 23.7663 10.9769C23.2647 10.4113 22.8122 10.0492 22.1828 9.70947ZM22.92 13.5425C22.5592 12.3858 21.7774 11.7086 20.5763 11.5125C20.1241 11.4387 19.9753 11.4447 19.841 11.5422C19.6958 11.6475 19.6452 11.7591 19.6446 11.9754C19.6442 12.1296 19.6586 12.1653 19.769 12.2837C19.8839 12.4069 19.9137 12.4196 20.1435 12.4431C21.444 12.576 22.0617 13.2526 22.203 14.6992C22.2467 15.1465 22.3612 15.2933 22.6671 15.2945C22.8475 15.2951 22.991 15.2164 23.056 15.0812C23.158 14.8689 23.0885 14.0829 22.92 13.5425Z" fill="#F2F2F2"/>
</svg>
