<svg width="37" height="36" viewBox="0 0 37 36" fill="none" xmlns="http://www.w3.org/2000/svg">
<path fill-rule="evenodd" clip-rule="evenodd" d="M7.68445 0.12717C6.70668 0.284452 6.61984 0.307696 6.0692 0.55927C5.84707 0.660845 5.62026 0.743903 5.56525 0.743903C5.36874 0.743903 3.87019 1.77089 3.27816 2.3113C2.14805 3.34286 1.03232 5.25155 0.797479 6.55482C0.77835 6.66136 0.713232 7.01001 0.652781 7.32961C0.560882 7.81595 0.543435 9.5156 0.545578 17.7505C0.546955 23.1624 0.579399 27.9415 0.617659 28.3707C0.702595 29.3239 1.22652 31.028 1.59726 31.5571C1.6809 31.6765 1.82552 31.9118 1.91849 32.08C2.01154 32.2482 2.29473 32.6393 2.54794 32.9492C3.57108 34.2016 5.06381 35.1611 6.84687 35.7124L7.62101 35.9517L18.244 35.9758L28.8671 36L29.792 35.8023C30.3007 35.6935 30.8231 35.5571 30.9529 35.4992C31.928 35.0638 32.2674 34.8818 32.8368 34.4892C33.6249 33.9456 34.4237 33.1733 34.8438 32.549C35.0158 32.2933 35.1793 32.0667 35.2071 32.0454C35.3072 31.9689 35.6611 31.2987 35.8914 30.7499C36.0205 30.4421 36.2164 29.7797 36.3268 29.2778L36.5275 28.3651L36.5433 18.8352C36.5519 13.5938 36.5338 8.78234 36.503 8.14314C36.4552 7.15056 36.4116 6.86792 36.2046 6.20617C35.3197 3.37764 33.5457 1.48863 30.8446 0.498759C29.4465 -0.0136865 30.2962 0.0214889 18.9076 0.0049084C9.30689 -0.00911529 8.47596 -0.000127737 7.68445 0.12717ZM30.6982 7.35146C31.074 7.64364 31.0789 8.00957 30.7328 9.97258C30.1511 13.2727 27.6875 25.2698 27.1651 27.3468C26.9312 28.2768 26.5998 28.6435 25.8892 28.7586C25.4832 28.8243 25.0397 28.6206 24.2389 28.0006C20.5229 25.124 19.4144 24.3061 19.3108 24.3648C19.249 24.3999 18.6251 25.0031 17.9243 25.7055C16.5333 27.0996 15.9625 27.5403 15.4588 27.6086L15.1338 27.6528L15.1816 26.3819C15.2938 23.3957 15.8716 21.7545 17.3719 20.1608C17.6484 19.8673 18.701 18.9024 19.7111 18.0168C21.6435 16.3225 21.9019 16.0919 24.8379 13.4422C26.2848 12.1362 26.6795 11.7395 26.6985 11.5716C26.7391 11.215 26.3489 11.2816 25.6101 11.7573C21.717 14.2643 12.8108 19.9094 12.7039 19.9378C12.6276 19.9579 12.0381 19.7988 11.394 19.584C10.7497 19.3692 9.55121 18.978 8.73054 18.7147C7.01085 18.1629 6.67837 18.0191 6.35998 17.6893C6.18635 17.5094 6.12889 17.378 6.12889 17.1607C6.12889 16.7594 6.39104 16.4729 7.02355 16.1829C8.05335 15.7107 14.9998 12.7955 16.5355 12.191C19.2679 11.1155 29.1503 7.43925 29.6586 7.30924C29.9564 7.23307 30.5784 7.25833 30.6982 7.35146Z" fill="#F2F2F2"/>
</svg>
