<svg width="30" height="30" viewBox="0 0 30 30" fill="none" xmlns="http://www.w3.org/2000/svg">
<path fill-rule="evenodd" clip-rule="evenodd" d="M26.6521 0.618789C26.2291 0.8675 25.2773 1.75871 24.5581 2.58775C23.6063 3.66549 23.141 4.05931 22.8872 3.95568C16.6264 1.38567 9.83677 2.67066 6.11411 5.03341L5.54298 5.40649L4.06238 3.95568C2.07414 2.02817 -2.53693 1.21985 1.79913 5.65519L3.51242 7.39617C3.36436 7.89359 -3.17143 17.0544 3.32207 24.8474L4.29506 26.0287L3.32207 27.3759C1.46074 29.9874 3.55472 30.8164 5.94484 28.3915L6.6429 27.6868L7.61578 28.1842C15.3995 32.06 24.1775 27.3966 24.1986 27.3759L25.0447 28.2878C26.483 29.863 27.9847 30.3812 29.2326 29.7179C30.7767 28.9096 27.2444 26.5676 26.9272 26.2567L25.9965 25.3655L26.3772 24.8059C31.1363 17.6762 31.2208 10.2356 26.5464 6.15261L25.785 5.48937C26.208 4.9505 26.6733 4.32872 28.1539 2.69138C30.0998 0.535886 29.1268 -0.873474 26.6521 0.618789ZM21.4489 6.02826C21.3855 6.15262 14.765 13.6347 14.6169 13.6139C14.4054 13.5932 7.99655 7.9143 7.76389 7.54124C7.55237 7.1889 8.0177 6.67077 8.82146 6.13189C15.1881 1.98672 21.8931 5.32358 21.4489 6.02826ZM24.537 8.20448C26.8425 11.3963 27.0751 16.9508 25.0658 20.8265C23.8178 23.21 23.966 23.1685 22.4008 21.5519C21.6605 20.7851 16.6687 15.728 16.6687 15.728C16.6687 15.728 21.6604 10.0905 22.4218 9.22003C24.0293 7.39615 23.9659 7.4169 24.537 8.20448ZM8.65229 12.0388C11.5077 14.5259 12.0365 15.1269 12.7345 15.8316L9.49835 19.6866C5.73339 24.1634 6.13522 23.9147 5.33147 22.2773C3.68165 18.9405 3.68167 14.7124 5.35264 10.8781C5.92373 9.5931 5.77569 9.55166 8.65229 12.0388ZM22.0835 25.4484C22.0623 25.4484 15.0823 31.0858 8.80029 26.1738L8.18692 25.6971L14.9342 17.9249C20.1163 23.3136 20.1375 23.3551 22.0835 25.4484Z" fill="#BB7D58"/>
</svg>
