<svg width="60" height="33" viewBox="0 0 60 33" fill="none" xmlns="http://www.w3.org/2000/svg">
<path fill-rule="evenodd" clip-rule="evenodd" d="M26.8834 0.311139C25.0964 0.878579 22.9802 2.7025 22.1337 4.42509L21.9142 4.89121L21.3656 4.4048C17.9954 1.44601 12.1171 4.66829 12.1171 9.45099C12.1171 10.5453 12.1014 10.5859 11.7723 10.444C6.89721 8.33636 1.44219 14.0918 3.44864 19.1988C3.68377 19.7865 3.8405 20.3134 3.80914 20.3337C3.77779 20.3742 3.35459 20.6174 2.9 20.8808C1.22273 21.8739 0.0157263 23.941 5.09379e-05 25.8662C-0.0156245 29.129 3.58969 31.0948 6.55234 29.4127L7.17936 29.0479L8.21395 30.4057C10.5496 33.4861 13.8571 32.9997 16.8981 29.129L18.1521 27.528L18.8732 28.4197C20.9267 30.9934 24.0775 31.2366 27.3536 29.0276L28.3725 28.3386L29.3914 29.6154C32.793 33.8914 38.5459 34.1549 41.6183 30.1828C41.6653 30.122 43.0291 28.4805 43.0291 28.4805L43.4679 29.0276C45.6782 31.7838 50.0673 30.8111 52.4029 27.0822L52.9829 26.1499L53.7667 26.3121C58.0931 27.143 60.9774 24.8124 59.692 21.5091C59.3628 20.6782 58.2342 19.5028 57.5915 19.3407C57.0115 19.1785 56.9488 19.0367 57.231 18.3274C58.1088 16.1387 56.2904 12.957 53.8764 12.4503C53.5316 12.3693 53.2337 12.2882 53.2337 12.2679C53.2337 12.2274 53.4062 11.7208 53.6256 11.1331C55.0207 7.24204 50.7413 3.49288 46.7284 5.09387C46.1484 5.31679 45.6625 5.47893 45.6468 5.45866C44.2361 1.52711 39.8783 1.1015 36.0848 4.46561L35.3951 5.07358L35.207 4.26295C34.4232 1.12177 30.4103 -0.78321 26.8834 0.311139ZM30.4103 1.54737C32.1973 2.2364 33.4357 4.30349 33.514 6.75565C33.5767 8.78222 34.2978 8.94433 35.3324 7.20148C38.2794 2.13505 44.4085 1.97296 44.048 6.97859C43.9226 8.57958 44.8317 9.16726 45.9917 8.21477C50.5062 4.52641 54.4721 7.97161 50.6473 12.2477C49.456 13.3218 49.6597 14.0918 52.2619 14.1323C54.8953 14.1729 55.6948 14.6593 55.6948 16.2805C55.6948 17.5775 55.2715 18.145 54.0488 18.4692C52.9672 18.753 53.8294 20.435 54.958 20.2323C55.6791 20.1107 57.8737 20.739 58.0618 21.1443C59.3315 23.7586 56.1494 25.8459 53.0456 24.6705C52.3873 24.4273 52.3402 24.1234 51.9483 25.1366C50.5062 28.825 45.0668 30.3044 43.3896 27.4672C42.9036 26.6363 42.449 26.5958 42.0258 27.3051C41.5712 28.0549 40.1918 29.3114 39.3139 29.7977C35.1913 32.027 31.2411 31.2771 29.4541 27.913C28.6077 26.3323 28.3412 26.231 27.1342 27.0822C23.905 29.3519 20.5505 29.3114 18.8575 26.9808C17.87 25.6028 17.6035 25.5217 17.1489 26.4742C14.829 31.3177 8.73124 32.5944 8.0572 28.3994C7.88477 27.2646 7.47722 27.1227 6.34859 27.832C-0.250755 31.9054 -0.658332 22.6439 5.62751 21.732C6.50533 21.6104 6.58369 21.0835 6.08208 20.2323C3.27618 15.4902 7.08532 9.26858 11.1923 11.8626C12.9166 12.9569 13.5906 12.6327 13.7474 10.6264C14.1706 5.60052 18.3246 2.92541 20.5505 6.22872C20.817 6.63403 21.0207 7.03935 21.0521 7.14067C21.491 8.86326 23.4348 8.43769 23.1526 6.99882C22.5413 4.08056 27.4477 0.412487 30.4103 1.54737Z" fill="#BB7D58"/>
</svg>
