<svg width="55" height="45" viewBox="0 0 55 45" fill="none" xmlns="http://www.w3.org/2000/svg">
<path d="M32.8672 8.28638C34.2415 7.20361 35.2585 5.38253 35.6433 3.93063C36.1655 1.86352 33.032 -0.94166 30.4757 4.00465C28.5241 7.79436 26.4351 8.26173 24.7584 5.2841C23.0817 2.28186 19.8932 2.35588 20.9102 5.35812C22.1471 9.09861 29.5137 10.8949 32.8672 8.28638Z" fill="#BB7D58"/>
<path d="M2.74111 9.73831C7.22154 12.7405 12.6365 10.6242 13.4061 5.55487C13.9009 2.33116 9.77778 2.35567 8.29346 5.57938C6.42433 9.63978 4.72014 9.27066 3.78557 4.59504C3.48321 3.04471 1.64153 2.20816 0.597017 3.14328C-0.804835 4.39832 0.404687 8.16337 2.74111 9.73831Z" fill="#BB7D58"/>
<path d="M14.8904 19.8524C18.2988 23.0269 25.638 20.9844 26.8749 16.5302C27.5621 14.094 23.2741 14.34 21.1576 16.8501C20.0581 18.1789 19.2335 18.7943 19.261 18.7697C18.9586 19.0158 18.4638 18.991 18.2164 18.6957C17.969 18.4004 17.4467 17.49 17.0894 16.6533C16.2923 14.8568 14.1208 13.7494 13.1313 14.6353C12.4166 15.2751 13.516 18.5727 14.8904 19.8524Z" fill="#BB7D58"/>
<path d="M13.7635 27.5796C15.0554 25.291 13.2411 23.5683 10.7673 24.7741C10.1626 25.0694 9.42043 25.8324 8.73324 26.8413C6.28687 30.4096 5.73715 30.508 4.22535 27.6289C3.42822 26.1031 3.04343 25.7832 1.91645 25.7832C-0.337513 25.7832 0.734465 29.819 3.40073 31.3201C7.27644 33.5349 11.1797 32.1322 13.7635 27.5796Z" fill="#BB7D58"/>
<path d="M20.2504 39.5638C18.5462 39.4162 18.1339 39.5884 16.4572 41.1634C14.2857 43.2059 12.389 41.9262 12.0317 38.1611C11.9217 36.9307 10.8772 36.7338 9.97014 37.7427C6.50674 41.6801 14.3132 47.0938 19.2334 44.1654C21.7348 42.6643 22.3944 39.7361 20.2504 39.5638Z" fill="#BB7D58"/>
<path d="M51.4211 0.75624C50.9813 1.19919 50.1841 2.20809 49.6618 3.04478C47.4353 6.63762 46.7756 6.61301 44.3018 2.92174C42.1028 -0.375799 39.574 0.0918583 40.9209 3.51244C42.6801 7.99119 49.6344 9.66437 52.8504 6.39144C57.3308 1.83887 53.785 -1.58157 51.4211 0.75624Z" fill="#BB7D58"/>
<path d="M42.8175 14.2417C42.2678 14.6847 41.4157 15.5459 40.9484 16.1612C38.4746 19.4341 37.5949 19.3357 35.7807 15.6445C34.6537 13.3313 31.3554 12.5437 32.0426 16.0381C33.3345 22.4363 45.2914 22.3872 46.5833 15.2753C46.9132 13.4789 44.6042 12.8144 42.8175 14.2417Z" fill="#BB7D58"/>
<path d="M33.1694 25.4386C32.7296 25.6354 31.4102 26.6445 30.2833 27.6288C26.6824 30.7787 25.1156 30.7787 23.6863 27.5058C23.0266 26.0046 22.7793 25.8077 21.7073 25.8077C19.5083 25.8077 20.0855 29.4989 22.5044 30.9262C27.4521 33.83 36.358 30.8769 36.358 26.3244C36.3305 25.34 34.4888 24.8233 33.1694 25.4386Z" fill="#BB7D58"/>
</svg>
