<svg width="39" height="34" viewBox="0 0 39 34" fill="none" xmlns="http://www.w3.org/2000/svg">
<path fill-rule="evenodd" clip-rule="evenodd" d="M14.4417 0.0445295C8.01298 0.491914 4.85488 0.983899 3.45394 1.75618C2.48872 2.28827 1.50989 3.37398 1.09147 4.37668C0.345368 6.16483 -0.0883737 11.8576 0.0151748 18.5018C0.106044 24.3348 0.497785 27.9814 1.21034 29.6302C1.63008 30.6014 2.7003 31.7743 3.58588 32.2335C6.80724 33.9038 20.6714 34.5542 29.7626 33.4615C34.1645 32.9324 35.6355 32.4283 36.8644 31.0279C37.7684 29.9978 38.0943 29.0254 38.4045 26.433C38.9054 22.2467 39.0009 20.6338 39 16.3672C38.9991 12.0632 38.9089 10.6636 38.4016 7.07571C38.0093 4.30142 37.572 3.29206 36.2803 2.18033C35.0282 1.10267 33.9218 0.839415 28.5079 0.331636C26.1102 0.106782 16.3966 -0.0914359 14.4417 0.0445295ZM28.5079 2.49268C31.4501 2.81091 33.4188 3.14277 34.2377 3.45868C35.0942 3.789 36.0935 4.91853 36.2883 5.77645C36.5188 6.79201 36.9364 10.224 37.1057 12.4957C37.3329 15.5418 37.1847 20.8256 36.7675 24.56C36.3555 28.2462 36.2722 28.6202 35.6952 29.3691C35.0649 30.1872 34.234 30.6073 32.6023 30.9334C26.7255 32.1079 16.8635 32.3334 9.57333 31.46C5.62806 30.9873 4.03309 30.4114 3.2755 29.1863C1.8982 26.9587 1.31666 16.2565 2.16196 8.69583C2.54868 5.23661 2.79104 4.661 4.21536 3.81796C5.31913 3.16476 8.26405 2.64351 12.9228 2.27727C15.6322 2.06419 25.8522 2.20542 28.5079 2.49268ZM14.5077 17.0055C14.5077 24.0183 14.5385 25.4973 14.6822 25.3954C14.7781 25.3273 17.6012 23.4324 20.9559 21.1845C24.3104 18.9367 27.0551 17.0476 27.0551 16.9865C27.0551 16.8946 22.1229 13.5483 15.7955 9.34701L14.5077 8.49188V17.0055ZM19.9524 14.5476C21.8935 15.8464 23.4817 16.944 23.4817 16.9866C23.4817 17.0806 16.4639 21.7874 16.3238 21.7872C16.2694 21.7872 16.2247 19.627 16.2247 16.9866C16.2247 14.3463 16.2694 12.186 16.3238 12.186C16.3782 12.1859 18.0111 13.2487 19.9524 14.5476Z" fill="#333333"/>
</svg>
