<svg width="25" height="25" viewBox="0 0 25 25" fill="none" xmlns="http://www.w3.org/2000/svg">
<path fill-rule="evenodd" clip-rule="evenodd" d="M0.191151 0.0582286C0.0462438 0.158252 0 0.244301 0 0.41407C0 0.582881 0.0462693 0.669913 0.188089 0.767815C0.268607 0.823404 0.283588 0.824076 1.67871 0.835049C3.30329 0.847808 3.37393 0.855727 3.80837 1.07386C4.35672 1.34919 4.62545 1.81515 4.786 2.76909C4.81357 2.93278 5.22675 6.31004 5.70422 10.2741C6.64361 18.0734 6.58992 17.6895 6.80115 18.115C7.19032 18.8988 7.93101 19.3997 8.90402 19.5369C9.04194 19.5563 11.4481 19.5648 16.8481 19.5648C23.9803 19.5648 24.6014 19.5614 24.6827 19.5223C24.95 19.3937 24.9726 18.9671 24.7206 18.8082L24.6276 18.7496L16.8182 18.7358L9.00886 18.722L8.78025 18.6646C8.65453 18.633 8.44207 18.5532 8.30811 18.4873C7.97348 18.3225 7.69814 18.0478 7.54644 17.7274C7.48915 17.6064 7.43022 17.455 7.41549 17.3909C7.40074 17.3269 7.00364 14.0719 6.53306 10.1576C6.06245 6.2434 5.6482 2.862 5.61249 2.64345C5.38013 1.22114 4.83829 0.487929 3.76578 0.144355C3.36105 0.0146995 3.14588 0 1.65299 0H0.275523L0.191151 0.0582286ZM8.16667 3.68566C7.98371 3.76847 7.87548 3.9885 7.92614 4.17457C7.96215 4.30682 8.08733 4.44444 8.20067 4.47635C8.2633 4.494 10.8989 4.50278 16.1611 4.50285C20.4878 4.50293 24.0279 4.50984 24.0279 4.51817C24.0279 4.56142 22.6702 14.0351 22.6467 14.156C22.6079 14.3555 22.4429 14.665 22.2756 14.8526C21.9467 15.2211 21.4684 15.4644 20.8123 15.5971C20.6137 15.6373 20.1224 15.6422 15.0017 15.6555L9.40816 15.67L9.3377 15.7233C9.08616 15.9138 9.0905 16.276 9.34622 16.4373L9.44272 16.4981H14.9807C20.1807 16.4981 20.5364 16.4953 20.8073 16.4517C21.9647 16.2656 22.7287 15.7999 23.2152 14.984C23.441 14.6054 23.3942 14.88 24.2173 9.10607C24.632 6.1972 24.9777 3.77934 24.9856 3.7331L25 3.64899L16.6216 3.65C9.67843 3.65085 8.23012 3.65696 8.16667 3.68566ZM7.88594 20.758C7.15699 20.9395 6.57849 21.51 6.35237 22.2705C6.29222 22.4727 6.28349 22.5464 6.28349 22.8515C6.28349 23.1565 6.29222 23.2302 6.35237 23.4325C6.58035 24.1992 7.16069 24.7675 7.8987 24.9465C8.19263 25.0178 8.59961 25.0178 8.89402 24.9466C9.492 24.802 10.0269 24.373 10.2961 23.822C10.908 22.57 10.2254 21.0802 8.89129 20.7559C8.60489 20.6863 8.17053 20.6872 7.88594 20.758ZM21.6924 20.7401C20.8649 20.9304 20.2171 21.5928 20.0454 22.4245C20.0042 22.6241 20.0042 23.0789 20.0454 23.2785C20.2221 24.1342 20.9239 24.8262 21.7656 24.9748C21.9872 25.014 22.4838 24.9935 22.688 24.9368C23.61 24.681 24.2576 23.8205 24.2576 22.8515C24.2576 21.8824 23.6122 21.0248 22.688 20.7657C22.4809 20.7077 21.8986 20.6927 21.6924 20.7401ZM8.65157 21.5707C8.91227 21.6265 9.13187 21.7459 9.31281 21.9302C9.5622 22.1843 9.6843 22.4872 9.68486 22.8532C9.68598 23.5794 9.11431 24.1568 8.39636 24.1545C7.42072 24.1514 6.80414 23.1029 7.26377 22.2284C7.39758 21.9738 7.7027 21.7059 7.95646 21.6201C8.22027 21.5309 8.4043 21.5179 8.65157 21.5707ZM22.3435 21.5592C22.5496 21.5929 22.8306 21.7274 22.9872 21.8671C23.4613 22.2904 23.5592 23.0415 23.2094 23.5727C23.0077 23.879 22.6821 24.0899 22.3242 24.1462C21.7281 24.24 21.123 23.8677 20.9106 23.2764C20.8325 23.0591 20.8325 22.6439 20.9106 22.4266C21.0941 21.9157 21.5759 21.5587 22.1138 21.5348C22.1489 21.5333 22.2523 21.5442 22.3435 21.5592Z" fill="black"/>
</svg>
