<svg width="283" height="288" viewBox="0 0 283 288" fill="none" xmlns="http://www.w3.org/2000/svg">
<path fill-rule="evenodd" clip-rule="evenodd" d="M105.108 1.30929C103.845 3.31547 103.782 3.75539 103.772 10.5707C103.767 14.0702 103.62 17.2016 103.445 17.5295C103.271 17.8573 102.62 18.2211 101.999 18.3377C100.633 18.5947 97.8177 20.5806 96.963 21.891C95.9404 23.4579 96.148 31.2002 97.34 35.9618C97.8449 37.9781 98.2578 39.9916 98.2581 40.4365C98.2585 40.8809 98.425 41.5569 98.6289 41.9385C98.8327 42.3201 99.2365 43.6846 99.5264 44.9704C99.8163 46.2567 100.139 47.6679 100.244 48.1068C100.423 48.8526 100.376 48.8777 99.5334 48.493C99.0379 48.2664 98.2017 47.4588 97.6756 46.6984C97.1498 45.9376 95.8341 44.5071 94.7522 43.5191C92.2661 41.2489 91.9665 40.6547 91.7595 37.5885C91.6264 35.6148 91.7243 34.832 92.2243 33.867C92.7936 32.7686 92.9853 32.6561 94.1187 32.7542C95.0783 32.8377 95.4376 32.7127 95.6215 32.2316C95.987 31.2774 94.3536 30.025 92.7511 30.0313C91.5692 30.0362 91.3856 30.179 90.5058 31.7773C89.7173 33.2099 89.5476 33.9508 89.5476 35.9622C89.5476 37.9362 89.4438 38.4058 89.0079 38.4058C88.711 38.4058 87.234 37.424 85.726 36.2237C84.218 35.0237 81.6301 33.0989 79.9751 31.9467C78.32 30.7945 76.1266 29.2234 75.1005 28.4552C73.3019 27.1089 70.9325 25.5399 69.0297 24.4352C68.5287 24.1444 67.2565 23.3567 66.2025 22.6853C63.0865 20.6997 62.953 20.6208 61.4987 19.9012C60.7321 19.522 59.8697 19.0737 59.5823 18.9048C59.2948 18.7358 58.5108 18.4009 57.8401 18.1604C57.1694 17.9198 55.3662 17.2746 53.8331 16.7271C50.7906 15.6399 49.2198 15.4741 48.3519 16.1479C48.0428 16.3881 47.2442 17.6094 46.5773 18.8625C45.9104 20.1156 44.6438 22.2181 43.7627 23.5351C42.8815 24.8517 42.164 26.1834 42.1682 26.4937C42.1874 27.9008 43.7654 30.2764 46.7013 33.3174C49.9017 36.6322 50.4693 37.8011 48.9515 37.9502C44.4968 38.388 44.294 38.4474 42.8539 39.7378C39.4821 42.7597 40.6571 48.0248 45.9724 53.7102C47.5742 55.4231 47.8254 56.5603 46.6031 56.5634C44.5864 56.5683 43.101 57.3591 40.8254 59.6401C38.7689 61.7014 38.4222 62.2471 37.848 64.326C37.2048 66.6547 37.2058 66.7085 37.9288 69.5264C38.3306 71.0924 38.8658 72.6258 39.1184 72.9341C39.3706 73.2424 39.7954 73.9309 40.0616 74.464C40.6808 75.7035 45.9627 81.6498 48.6404 84.1224C49.7718 85.167 51.984 87.2486 53.5564 88.7486C56.4422 91.5009 57.3742 91.9352 58.2154 90.9195C58.6168 90.4353 58.2296 89.9535 55.2091 87.1788C47.3728 79.9795 43.5076 75.8013 41.5247 72.3866C40.1274 69.9807 40.0699 69.7639 40.0699 66.9145C40.0699 64.0983 40.1281 63.871 41.2166 62.4367C41.8477 61.6054 43.1393 60.4152 44.0874 59.7909C45.6261 58.778 46.078 58.6562 48.2989 58.6562H50.7867L53.1808 60.8401C59.2871 66.4096 61.6293 68.4322 61.9729 68.4322C62.5133 68.4322 63.0154 67.3024 62.7614 66.6565C62.6419 66.352 61.9168 65.5686 61.1502 64.9156C55.1091 59.7693 48.7327 53.6348 46.2376 50.5679C44.6641 48.634 42.8525 45.2033 42.8696 44.1901C42.8881 43.1109 43.6031 42.0188 44.9362 41.0331C46.0303 40.2245 46.4184 40.153 49.6324 40.169L53.1362 40.1868L65.3663 52.3018C79.4183 66.2221 84.5981 71.7858 84.0336 72.3514C83.6957 72.69 80.6375 71.3982 75.905 68.9172C75.3712 68.6375 73.9447 68.4322 72.5332 68.4322C70.1301 68.4322 70.0667 68.4556 69.0046 69.7415C67.6182 71.4195 65.5053 75.8578 65.5074 77.0868C65.5119 79.755 69.0444 85.0717 74.7113 90.9401C77.0611 93.3737 77.9085 94.5265 77.5852 94.8506C77.4904 94.9455 76.4528 94.7765 75.2796 94.4756C72.782 93.8342 63.0314 93.3807 61.4987 93.8345C60.8711 94.0203 60.0356 94.7392 59.4081 95.6337C58.4485 97.0013 58.3641 97.3574 58.3791 99.9732C58.406 104.665 60.2046 108.952 63.3342 111.786C64.9325 113.233 68.1795 115.401 69.2193 115.715C70.1705 116.003 70.4872 116.792 69.8607 117.313C69.5959 117.533 68.2332 117.869 66.8328 118.059C63.7346 118.479 60.5924 119.554 58.6749 120.849C56.9924 121.985 55.6091 124.738 55.9363 126.298C56.6063 129.493 57.2739 130.936 58.9565 132.828C61.7879 136.011 64.8638 137.579 69.774 138.343C71.0844 138.547 72.1259 138.884 72.1259 139.105C72.1259 139.678 71.105 141.054 70.6803 141.054C70.4817 141.054 69.9207 141.368 69.4336 141.752C68.9461 142.137 68.2858 142.451 67.966 142.451C67.6461 142.451 66.8443 143.01 66.1837 143.694C65.0325 144.886 64.9844 145.041 65.0147 147.447C65.053 150.476 65.6767 152.071 67.4917 153.784C69.6914 155.86 72.7067 156.713 78.8207 156.989C83.4201 157.197 83.9769 157.161 84.1765 156.64C84.6117 155.504 83.6852 155.02 81.0556 155.013C78.6503 155.006 76.1545 154.699 72.7514 153.991C69.4635 153.307 67.3245 151.016 66.9959 147.827C66.828 146.196 66.8917 145.966 67.6384 145.499C71.7458 142.932 73.5632 141.62 74.5054 140.545C75.113 139.852 75.6103 139.16 75.6103 139.008C75.6103 138.856 75.2364 138.38 74.7796 137.95C74.0385 137.252 71.7531 136.504 67.0736 135.429C64.0806 134.741 61.0276 132.443 59.3906 129.645C58.2903 127.765 58.2042 124.813 59.2119 123.53C60.4391 121.966 64.5523 120.411 68.7949 119.906C71.1684 119.623 74.3716 118.321 74.6813 117.512C75.0806 116.469 74.4872 115.937 70.9614 114.177C66.9217 112.16 63.8868 109.669 62.5436 107.269C61.5687 105.527 60.1952 99.85 60.5098 98.864C61.0234 97.2544 61.929 95.9636 62.6764 95.7758C64.1231 95.4116 71.5249 95.9329 73.128 96.5114C73.9663 96.8145 75.3775 97.0631 76.2639 97.0641C77.15 97.0655 78.3242 97.3012 78.873 97.5879C80.6831 98.534 82.2305 98.0836 82.2305 96.6109C82.2305 95.7692 81.788 95.2165 77.0925 90.1982C67.5788 80.0304 66.6799 77.9726 69.5238 72.874C70.6782 70.8043 71.8897 70.2803 74.1336 70.8797C75.5778 71.2652 81.4678 73.8314 82.9274 74.7109C83.2148 74.8841 84.4302 75.5111 85.6281 76.104C88.9887 77.768 90.2553 78.7533 92.3867 81.3614C93.4693 82.686 95.0609 84.5218 95.9243 85.4408C96.7874 86.3597 98.724 88.6201 100.228 90.4639C102.985 93.8443 105.766 97.1161 111.089 103.241C112.951 105.385 113.868 106.699 113.652 106.915C113.25 107.318 112.247 106.838 110.317 105.322C109.571 104.737 108.526 104.013 107.995 103.715C107.464 103.416 106.349 102.787 105.518 102.316C98.5459 98.3622 95.0034 99.1876 91.6347 105.55L90.7964 107.134L91.9518 108.819C93.494 111.068 97.9578 114.557 103.034 117.481C104.223 118.165 105.271 118.848 105.363 118.996C105.799 119.702 104.683 120.052 100.214 120.61C92.4647 121.578 89.5041 123.651 87.8232 129.289C86.6821 133.115 86.6413 133.973 87.4755 136.573C88.7351 140.498 91.2793 141.979 97.3874 142.341C98.9205 142.432 100.41 142.584 100.698 142.678C101.535 142.953 100.079 143.848 98.8017 143.844C96.4194 143.836 89.0086 146.906 87.4838 148.532C86.4072 149.68 86.1748 151.795 86.9462 153.424C87.2835 154.136 88.4278 155.454 89.4894 156.353C90.5511 157.252 91.7612 158.341 92.1786 158.773C93.0553 159.681 94.602 159.813 94.9107 159.008C95.0428 158.663 94.7494 158.107 94.1274 157.524C89.9752 153.629 88.5023 152.042 88.5023 151.465C88.5023 150.035 92.663 147.462 95.9815 146.84C96.7414 146.697 97.7923 146.358 98.3163 146.087C98.8404 145.815 99.7867 145.59 100.419 145.585C101.051 145.581 102.214 145.284 103.003 144.925C103.792 144.566 104.966 144.156 105.613 144.014C107.087 143.689 109.06 142.21 109.06 141.428C109.06 141.104 108.843 140.541 108.577 140.176C108.128 139.562 107.539 139.513 100.289 139.499C92.5027 139.483 92.4821 139.481 91.3779 138.61C89.9156 137.457 89.4204 135.635 89.648 132.247C89.7901 130.128 90.042 129.182 90.8208 127.84C92.9194 124.225 95.5734 122.986 101.854 122.691C108.32 122.387 110.915 121.221 109.599 119.209C109.294 118.742 108.867 118.36 108.651 118.36C108.044 118.36 97.616 111.259 95.5581 109.444C94.417 108.438 93.7288 107.549 93.7288 107.08C93.7288 106.667 94.2382 105.58 94.8612 104.666C97.2808 101.113 99.6344 101.335 106.969 105.805C108.023 106.447 109.371 107.335 109.964 107.778C110.557 108.221 111.155 108.584 111.294 108.584C111.432 108.584 112.045 108.961 112.655 109.422C114.935 111.145 117.523 112.461 118.428 112.356C119.172 112.269 119.359 112.044 119.447 111.125C119.539 110.171 119.169 109.527 117.008 106.88C114.497 103.805 105.951 93.6904 104.139 91.6503C103.628 91.0742 102.213 89.4008 100.995 87.9316C96.9564 83.0582 91.4929 76.6972 89.3581 74.382C88.1995 73.1261 85.8497 70.4485 84.1361 68.4322C82.4221 66.4159 74.1026 57.8532 65.6478 49.4039C48.9993 32.7661 44.7944 28.3662 44.5135 27.2901C44.3968 26.8429 44.763 25.9896 45.5365 24.9058C46.1989 23.9775 47.2933 22.2338 47.9683 21.0303C49.455 18.38 49.9118 18.0937 51.939 18.5437C53.9432 18.9882 58.8976 20.963 60.6276 22.0065C60.915 22.1797 62.0126 22.7778 63.0666 23.3357C65.3422 24.5396 70.8228 28.1117 74.404 30.7247C75.0618 31.2047 76.4256 32.1921 77.4343 32.9187C87.7459 40.3453 89.7978 42.0443 90.0835 43.3909C90.4473 45.107 91.2069 45.785 92.4936 45.543C93.5166 45.351 93.7539 45.5375 96.5292 48.7192C98.1512 50.578 100.06 52.9068 100.77 53.8939C103.588 57.8064 108.202 64.5592 115.238 75.066C116.035 76.2548 121.893 85.261 123.415 87.6351C124.091 88.6913 124.941 90.0928 125.302 90.7492C125.664 91.4059 126.618 93.1342 127.422 94.5898C128.227 96.0457 129.186 97.7865 129.553 98.4586C130.904 100.931 134.463 107.777 135.544 109.98C137.112 113.177 138.059 114.514 138.757 114.517C139.711 114.521 139.937 112.89 139.137 111.785C138.765 111.273 137.59 109.125 136.524 107.013C134.998 103.99 134.649 103.003 134.881 102.379C135.173 101.593 134.747 100.342 133.052 97.0146C132.696 96.3163 132.405 95.4322 132.405 95.0496C132.405 94.6673 132.17 94.1589 131.882 93.9197C131.595 93.6806 131.36 93.3276 131.36 93.1352C131.36 92.9425 130.952 91.8228 130.454 90.6465C129.956 89.4702 129.235 87.7224 128.85 86.7623C128.466 85.8021 127.873 84.3881 127.532 83.62C127.192 82.8519 126.581 81.4728 126.175 80.5555C125.769 79.6384 125.436 78.7253 125.436 78.5263C125.436 78.3277 125.029 77.2715 124.531 76.179C123.167 73.1858 122.771 72.2229 122.316 70.7938C122.088 70.0763 121.756 69.3994 121.578 69.2894C121.4 69.1794 121.254 68.8236 121.253 68.4989C121.252 68.1742 121.034 67.4916 120.768 66.9822C120.503 66.4725 120.095 65.4512 119.861 64.7128C119.627 63.974 119.242 63.0554 119.007 62.6713C118.771 62.2873 118.469 61.5017 118.337 60.9256C118.204 60.3495 117.88 59.4069 117.617 58.8308C117.354 58.2547 116.713 56.605 116.192 55.1648C115.671 53.7245 114.952 51.8102 114.592 50.9104C114.232 50.0107 113.938 49.0327 113.938 48.7374C113.938 48.4423 113.643 47.5286 113.283 46.7074C112.684 45.3405 112.224 43.9244 110.42 37.8821C108.531 31.5542 107.307 25.8929 107.364 23.7418C107.387 22.8777 107.057 20.9923 106.63 19.5521C105.544 15.8829 105.426 7.52266 106.415 4.27701C107.031 2.25407 107.667 1.59733 108.189 2.44401C108.903 3.60212 110.411 1.92343 109.757 0.698288C109.461 0.144196 109.027 0 107.658 0C106.043 0 105.88 0.0837946 105.108 1.30929ZM111.275 4.71868C111.163 5.00952 111.158 5.52032 111.262 5.8534C111.763 7.4455 112.65 9.73762 113.261 11.0211C113.633 11.8018 113.938 12.72 113.938 13.0618C113.938 13.4036 114.171 14.1005 114.456 14.6103C114.741 15.12 115.194 16.1654 115.464 16.9335C116.653 20.3195 116.837 20.8107 117.155 21.4357C117.34 21.7995 117.772 22.8993 118.115 23.8797C118.458 24.8601 119.086 26.5262 119.513 27.5824C119.939 28.6385 120.501 30.2669 120.762 31.2016C121.023 32.1359 121.398 33.0957 121.596 33.3342C121.794 33.573 122.179 34.4584 122.451 35.3016C123.214 37.6625 124.018 39.8708 124.534 41.0244C124.792 41.6005 125.193 42.6218 125.427 43.2939C125.661 43.966 126.237 45.5371 126.708 46.7853C127.18 48.0335 127.71 49.5261 127.887 50.1022C128.064 50.6783 128.526 51.7721 128.913 52.5326C129.301 53.2933 129.618 54.162 129.618 54.4626C129.618 54.7632 129.829 55.3194 130.088 55.6979C130.347 56.0767 130.666 56.8581 130.797 57.4342C130.928 58.0103 131.251 58.953 131.514 59.5291C131.777 60.1051 132.413 61.7548 132.928 63.1951C133.442 64.6353 134.079 66.285 134.342 66.8611C134.856 67.9857 135.644 70.1361 136.426 72.5518C137.02 74.3869 138.204 76.1134 138.868 76.1134C139.748 76.1134 139.887 74.361 139.13 72.8213C138.279 71.0899 136.935 67.6652 136.935 67.2263C136.935 67.0507 136.644 66.2682 136.29 65.4875C135.935 64.7069 135.214 62.8896 134.688 61.4493C134.162 60.0091 133.433 58.1587 133.068 57.3375C132.704 56.5163 132.405 55.5977 132.405 55.2967C132.405 54.9954 132.172 54.3317 131.887 53.8219C131.602 53.3122 131.149 52.2669 130.879 51.4987C129.71 48.1707 129.487 47.5827 128.872 46.2232C128.516 45.4341 128.223 44.57 128.222 44.3029C128.22 44.0361 127.97 43.3462 127.665 42.7701C127.359 42.1941 126.902 41.0942 126.647 40.3261C125.823 37.8413 125.076 35.811 124.591 34.7398C123.86 33.1247 122.65 29.878 122.637 29.496C122.63 29.3075 122.322 28.5251 121.952 27.7569C121.582 26.9888 121.274 26.1418 121.267 25.8751C121.26 25.608 120.96 24.7438 120.598 23.9548C119.639 21.8585 117.15 15.3449 116.881 14.2269C116.754 13.6983 116.353 12.683 115.991 11.9707C115.628 11.2585 115.332 10.5064 115.332 10.2997C115.332 10.0931 115.018 9.30748 114.635 8.55403C114.252 7.80058 113.938 6.92457 113.938 6.60685C113.938 5.82617 112.616 4.18973 111.985 4.18973C111.706 4.18973 111.386 4.42784 111.275 4.71868ZM104.399 21.7548C104.651 22.4863 105.008 24.2931 105.193 25.77C105.553 28.6357 106.26 31.6963 107.345 35.089C107.713 36.2411 108.02 37.5766 108.026 38.0567C108.033 38.5368 108.341 39.558 108.712 40.3261C109.082 41.0942 109.39 42.0027 109.397 42.3449C109.403 42.687 109.658 43.5512 109.962 44.2652C110.267 44.9792 110.724 46.2703 110.979 47.1344C111.774 49.8277 112.581 52.1698 112.953 52.8587C113.306 53.5116 114.204 55.9797 115.177 58.9673C115.452 59.8105 115.816 60.6746 115.986 60.8876C116.157 61.1005 116.408 61.8247 116.545 62.4968C116.682 63.1689 116.981 64.033 117.211 64.4171C117.439 64.8011 118.066 66.2937 118.602 67.7339C119.139 69.1742 119.786 70.8239 120.042 71.3999C120.48 72.3901 121.11 73.9075 123.195 78.9938C123.687 80.1942 124.392 81.7472 124.763 82.4455C125.133 83.1438 125.436 84.0278 125.436 84.4105C125.436 84.7928 125.679 85.3074 125.976 85.5543C126.552 86.0336 126.54 87.4606 125.959 87.4606C125.767 87.4606 125.563 87.1264 125.505 86.7183C125.447 86.3101 125.015 85.615 124.547 85.1737C124.078 84.7324 123.694 84.2558 123.694 84.1144C123.694 83.8871 119.649 77.6158 116.731 73.3202C115.23 71.1105 111.182 64.9911 110.311 63.6154C109.91 62.9824 109.027 61.7255 108.348 60.8223C107.669 59.9191 106.739 58.5515 106.28 57.7833C105.822 57.0152 105.084 55.9426 104.64 55.3997C104.091 54.7273 103.83 53.9487 103.821 52.9557C103.814 52.1544 103.585 51.106 103.311 50.6259C103.037 50.1458 102.807 49.4028 102.8 48.9748C102.794 48.5467 102.486 47.2113 102.118 46.0071C101.31 43.3689 100.442 39.7958 99.8045 36.4855C99.5456 35.1413 99.1439 33.4131 98.9118 32.645C98.6797 31.8768 98.4773 29.5987 98.4613 27.5824C98.4337 24.0627 98.4724 23.864 99.4324 22.6071C99.9818 21.8871 100.629 21.2978 100.87 21.2978C101.112 21.2978 101.511 21.0541 101.757 20.7563C102.004 20.4588 102.596 20.2622 103.074 20.3198C103.728 20.3991 104.055 20.7531 104.399 21.7548ZM164.113 71.2219C163.059 71.3898 161.569 71.7665 160.802 72.0591C160.036 72.3517 159.06 72.5982 158.634 72.6066C157.771 72.6237 156.081 73.3401 151.286 75.7227C147.728 77.4901 143.996 80.6003 142.158 83.3299C141.565 84.21 140.696 86.1087 140.227 87.5493C139.411 90.0547 139.375 90.5488 139.395 98.9397C139.418 108.787 139.621 110.737 140.736 111.84C141.502 112.596 141.507 112.596 142.032 111.901C142.403 111.409 142.494 110.79 142.34 109.806C141.148 102.162 140.941 93.1167 141.89 90.0792C142.22 89.023 142.569 87.7661 142.664 87.286C143.431 83.4433 150.58 77.7582 157.667 75.3558C163.982 73.2148 170.782 72.439 175.959 73.2693C184.08 74.5716 187.275 75.7489 191.589 79.0274L193.456 80.4463L193.245 82.0331C193.128 82.906 192.805 84.6412 192.527 85.8894C192.249 87.1376 191.851 89.3306 191.644 90.7624C191.437 92.1943 191.038 93.6209 190.757 93.9323C190.001 94.7692 190.116 95.1351 191.462 96.1637C193.002 97.34 194.788 97.8759 199.87 98.6856C203.257 99.225 203.972 99.4467 204.204 100.03C204.762 101.426 205.204 110.43 204.848 113.128C204.434 116.258 202.335 120.911 199.851 124.202C197.852 126.851 196.624 127.765 194.293 128.339C193.312 128.58 192.04 128.935 191.465 129.127C189.576 129.758 187.325 130.256 184.67 130.629C180.597 131.203 180.489 131.237 180.489 131.94C180.489 132.995 181.274 133.351 183.472 133.296C184.61 133.267 186.119 133.37 186.826 133.525C187.841 133.747 188.46 133.64 189.787 133.014C190.71 132.578 191.857 131.88 192.336 131.463C192.815 131.046 194.264 130.266 195.557 129.731C197.358 128.984 198.352 128.276 199.815 126.692C201.893 124.443 204.02 121.03 205.29 117.905C205.735 116.812 206.205 115.917 206.335 115.916C206.465 115.916 206.678 116.819 206.807 117.923C206.937 119.028 207.668 122.995 208.432 126.739C209.196 130.484 210.02 134.883 210.264 136.515C210.508 138.148 210.82 139.993 210.957 140.618C211.118 141.352 211.074 141.752 210.83 141.752C210.624 141.752 210.454 141.627 210.454 141.473C210.454 140.742 207.161 137.574 205.833 137.028C204.044 136.293 199.47 136.23 198.035 136.921C196.717 137.556 195.472 139.507 195.472 140.939C195.472 142.965 198.227 148.297 200.613 150.889C201.651 152.017 201.398 152.576 199.849 152.576C199.213 152.576 198.505 152.803 198.275 153.081C197.951 153.471 197.646 153.504 196.926 153.225C196.413 153.027 192.88 152.775 189.073 152.666L182.151 152.468L181.692 151.368C181.44 150.763 181.131 148.862 181.006 147.145C180.882 145.427 180.556 143.208 180.283 142.213C180.01 141.217 179.687 139.41 179.564 138.197C179.255 135.123 178.943 134.42 177.891 134.42C176.855 134.42 176.376 135.688 176.983 136.824C177.196 137.222 177.52 139.004 177.705 140.785C177.889 142.565 178.275 144.965 178.562 146.117C178.849 147.269 179.087 149.203 179.09 150.415L179.095 152.619L176.918 152.561C173.931 152.48 168.711 151.931 165.181 151.327C161.774 150.744 160.977 150.885 160.977 152.071C160.977 152.78 161.228 152.978 162.545 153.311C164.298 153.753 164.631 154.322 163.137 154.322C162.6 154.322 162.013 154.45 161.83 154.607C161.648 154.764 160.637 155.102 159.583 155.359C158.529 155.615 157.431 155.942 157.144 156.085C156.856 156.228 155.965 156.616 155.163 156.947C151.33 158.531 149.01 162.532 147.169 170.731C146.404 174.142 145.515 185.741 145.77 188.989C146.627 199.891 146.805 200.955 148.208 203.551C148.572 204.223 149.657 206.266 150.621 208.09C152.745 212.112 153.35 213.027 155.29 215.145C156.118 216.049 156.795 216.919 156.795 217.079C156.795 218.14 146.099 227.991 144.946 227.991C144.773 227.991 144.109 228.346 143.471 228.78C142.502 229.439 138.868 231.288 132.841 234.189C131.797 234.692 131.657 234.686 131.034 234.122C130.287 233.444 130.12 233.503 128.048 235.183C127.281 235.805 126.221 236.423 125.693 236.556C125.165 236.688 124.647 236.937 124.542 237.108C124.436 237.278 124.027 237.418 123.633 237.418C122.958 237.418 122.93 237.285 123.159 235.148C123.503 231.923 122.81 230.042 120.394 227.652C119.261 226.531 118.403 225.341 118.265 224.7C117.94 223.19 116.937 221.316 115.975 220.423C113.984 218.575 109.333 217.684 106.27 218.565C105.601 218.758 103.72 219.075 102.091 219.272C99.6278 219.568 99 219.774 98.3581 220.497C97.3864 221.593 97.6334 222.249 99.3466 223.125C100.814 223.875 101.093 224.822 100.219 226.08C99.9564 226.459 99.6358 227.255 99.5069 227.849C99.3003 228.8 99.4376 229.078 100.654 230.179C101.414 230.867 102.342 232.125 102.717 232.973C103.3 234.296 103.336 234.665 102.963 235.553C102.511 236.631 99.0585 239.384 98.6606 238.985C98.5358 238.86 98.6822 238.574 98.986 238.349C99.6505 237.859 100.349 236.609 100.349 235.91C100.349 235.632 100.043 235.324 99.6682 235.226C99.1808 235.098 98.4648 235.567 97.1421 236.88C93.6341 240.362 87.6208 245.914 84.8438 248.234C77.9524 253.993 71.6315 258.847 68.6924 260.636C68.3771 260.828 67.2565 261.548 66.2025 262.236C61.6725 265.194 60.306 266.04 52.4247 270.761C47.6125 273.644 44.9898 275.125 44.6992 275.125C44.5121 275.125 44.0752 275.44 43.7285 275.824C43.3818 276.208 42.9466 276.522 42.762 276.522C42.5773 276.522 41.5431 277.053 40.464 277.703C37.1166 279.716 33.1953 281.737 33.0051 281.547C32.7229 281.264 21.3524 282.454 18.8155 283.032C17.5698 283.316 15.0611 284.058 13.2405 284.682C10.0743 285.766 9.76383 285.807 6.0976 285.62L2.26482 285.425L4.35125 283.212C6.33802 281.104 6.499 281.008 7.72723 281.205C9.27706 281.453 9.63386 281.033 8.86835 279.862C8.30981 279.008 8.32898 278.967 9.98648 277.443C10.9137 276.59 12.8485 274.991 14.2858 273.89C15.7231 272.788 17.1475 271.633 17.451 271.324C17.7545 271.014 20.7162 268.562 24.0326 265.873C27.349 263.185 30.8636 260.316 31.8431 259.498C32.8225 258.68 37.171 255.115 41.5058 251.575C45.8411 248.035 49.6042 244.928 49.8683 244.67C50.1327 244.413 53.6408 241.536 57.6641 238.279C64.3907 232.832 67.1475 230.536 69.267 228.613C70.1694 227.794 70.1576 226.836 69.2433 226.659C68.7085 226.556 66.2851 228.172 64.3248 229.939C63.9628 230.265 59.9969 233.535 55.5115 237.205C51.0265 240.874 46.2083 244.82 44.8045 245.972C40.0957 249.837 32.0371 256.427 29.5089 258.481C28.1308 259.6 26.1521 261.25 25.1113 262.147C22.5224 264.378 16.4447 269.19 16.2151 269.19C15.729 269.19 16.1325 268.408 17.1604 267.358C18.9824 265.497 26.7566 257.093 30.1497 253.317C31.8689 251.403 33.7459 249.354 34.3208 248.763C34.8957 248.172 36.4581 246.359 37.7929 244.735C39.1274 243.111 40.9578 240.958 41.8595 239.951C45.4933 235.894 52.5875 226.65 54.1868 223.888C54.3812 223.552 55.345 222.073 56.3282 220.601C58.5993 217.201 63.7227 208.312 65.6527 204.424C65.9388 203.848 66.8987 202.041 67.7858 200.409C69.1398 197.918 72.4231 191.704 73.9235 188.793C74.144 188.365 74.4482 187.778 74.5987 187.49C77.1737 182.568 78.7462 179.237 78.7462 178.704C78.7462 177.821 77.7779 177.487 77.1225 178.144C76.6308 178.637 75.1207 181.43 71.7862 188.014C71.0081 189.55 70.2419 191.043 70.0834 191.331C69.5736 192.258 68.8987 193.538 67.4158 196.394C66.6179 197.93 65.3652 200.286 64.6318 201.631C63.8983 202.975 63.0088 204.625 62.6548 205.297C62.3008 205.969 61.8638 206.754 61.6833 207.042C61.275 207.695 56.4666 216.118 55.731 217.469C55.4335 218.016 54.6105 219.272 53.9017 220.26C53.1934 221.249 52.6136 222.13 52.6136 222.219C52.6136 222.307 52.1822 222.991 51.6554 223.737C51.1286 224.483 50.1589 225.864 49.5007 226.804C47.7669 229.283 41.5755 236.907 39.3835 239.264C38.3497 240.375 37.2699 241.632 36.9842 242.057C36.4891 242.792 31.6389 248.378 30.856 249.114C30.6518 249.306 28.3033 251.899 25.6374 254.875C16.9001 264.63 14.2785 267.194 11.1443 269.053C8.28821 270.747 7.50737 271.51 3.6833 276.347C1.46133 279.158 1.29896 279.895 2.78747 280.415C3.36239 280.616 3.83278 280.902 3.83278 281.051C3.83278 281.2 2.9704 282.29 1.91639 283.474C0.862375 284.658 0 285.768 0 285.942C0 286.827 1.64043 287.346 4.43766 287.346C6.11293 287.346 7.61364 287.525 8.01016 287.773C8.5673 288.122 9.00076 288.082 10.3572 287.558C13.7956 286.229 16.6158 285.27 18.6325 284.744C21.835 283.908 30.4298 283.106 33.3445 283.37C35.2072 283.54 35.8887 283.49 35.8887 283.186C35.8887 282.958 36.3985 282.533 37.0211 282.241C37.6438 281.95 38.7807 281.335 39.5473 280.874C41.4989 279.702 43.202 278.736 44.4254 278.107C45.0003 277.812 46.0979 277.184 46.8644 276.713C47.631 276.241 49.4129 275.181 50.8237 274.356C52.2348 273.531 53.9132 272.542 54.5537 272.158C57.4265 270.435 60.1621 268.791 60.8018 268.404C61.1851 268.172 62.5293 267.311 63.7889 266.491C65.0489 265.671 66.1823 265 66.3081 265C66.4339 265 67.3632 264.373 68.3733 263.605C69.383 262.838 70.3398 262.21 70.4994 262.209C70.6586 262.208 71.4426 261.688 72.2416 261.053C73.0402 260.418 74.0311 259.672 74.4433 259.394C75.8082 258.477 81.9333 253.743 82.5225 253.15C82.841 252.831 84.041 251.791 85.1891 250.841C89.0581 247.64 92.5023 244.611 93.6299 243.419C94.7546 242.229 95.5059 242.034 97.2393 242.482C97.9146 242.656 98.4006 242.49 99.2059 241.811C100.492 240.727 101.081 240.683 101.917 241.608C102.264 241.992 102.813 242.306 103.137 242.306C103.461 242.306 104.009 241.992 104.356 241.608C104.703 241.224 105.178 240.909 105.413 240.909C105.647 240.909 106.031 240.677 106.267 240.393C106.749 239.81 108.752 238.738 108.963 238.95C109.039 239.026 108.863 239.659 108.572 240.356C107.599 242.689 108.226 243.09 112.25 242.71C112.567 242.68 113.503 242.089 114.329 241.397L115.831 240.14L116.128 241.033C116.543 242.279 117.642 242.549 118.607 241.64C119.034 241.238 119.53 240.908 119.709 240.907C119.889 240.906 120.473 240.676 121.008 240.397C121.543 240.117 122.798 239.717 123.796 239.507C127.009 238.832 126.991 238.827 127.118 240.381C127.248 241.983 127.688 242.655 128.608 242.655C129.282 242.655 129.529 242.026 129.698 239.889C129.815 238.395 130.57 238.07 130.83 239.401C130.936 239.943 131.256 241.114 131.54 242.004C132.278 244.314 132.201 244.68 130.865 245.239C129.46 245.828 128.751 246.884 129.355 247.49C129.842 247.978 133.325 248.029 133.619 247.553C133.734 247.366 134.481 247.037 135.279 246.821C137.378 246.255 139.569 244.612 140.618 242.818C141.629 241.091 142.03 241.077 142.345 242.758C142.651 244.394 142.019 245.71 140.601 246.388C139.621 246.856 139.374 247.175 139.374 247.968C139.374 249.368 140.102 249.49 142.288 248.454C146.34 246.533 149.01 241.095 148.284 236.242C148.114 235.106 147.664 234.287 146.531 233.05C145.693 232.135 145.089 231.173 145.189 230.912C145.289 230.652 146.361 229.767 147.57 228.947C150.888 226.699 155.055 223.015 157.148 220.48C159.116 218.095 159.234 218.021 160.198 218.544C160.53 218.724 161.469 219.147 162.283 219.483C163.098 219.82 163.764 220.295 163.764 220.538C163.764 220.782 164.66 222.746 165.755 224.904C167.433 228.211 168.212 229.3 170.72 231.849C174.001 235.184 177.148 237.23 179.919 237.83C181.864 238.25 194.942 237.968 198.085 237.437C209.363 235.532 208.573 235.707 215.855 233.514C221.835 231.714 229.307 228.158 231.985 225.837C232.815 225.119 233.36 224.9 233.951 225.049C234.401 225.162 234.873 225.085 235.002 224.877C235.146 224.642 236.838 224.491 239.482 224.477C244.891 224.447 247.991 223.963 257.145 221.718C264.401 219.937 274.591 215.917 277.76 213.583C279.394 212.379 281.391 207.792 281.683 204.575C281.727 204.082 281.858 203.525 281.974 203.338C282.322 202.772 282.987 193.192 283 188.538C283.015 183.205 282.387 176.344 281.697 174.309C281.416 173.48 281.186 172.601 281.186 172.356C281.186 171.818 278.409 167.114 277.994 166.949C277.834 166.885 277.702 166.626 277.702 166.373C277.702 166.121 276.584 164.714 275.217 163.248C273.199 161.082 272.192 160.32 269.853 159.185C268.259 158.412 266.184 157.695 265.204 157.579C263.867 157.42 263.302 157.167 262.895 156.544C262.561 156.033 262.016 155.718 261.467 155.718C260.881 155.718 260 155.158 258.877 154.069C256.423 151.691 252.385 149.472 246.517 147.278C244.087 146.369 243.038 146.198 238.329 145.94C235.359 145.777 232.004 145.455 230.875 145.226C228.328 144.708 225.094 145.171 222.513 146.424C220.689 147.309 219.661 147.593 217.286 147.868L215.93 148.026L216.151 145.849C216.515 142.275 218.933 136.344 221.059 133.813C222.043 132.642 222.169 131.984 221.535 131.348C220.963 130.775 220.797 130.811 219.805 131.715C218.107 133.261 215.858 137.511 214.448 141.841C214.001 143.211 213.706 143.693 213.519 143.358C213.068 142.551 212.235 138.964 211.848 136.166C211.649 134.726 211.023 131.427 210.459 128.834C208.884 121.609 207.32 111.21 206.576 103.019L206.15 98.3266L207.867 96.8086C208.811 95.9734 210.759 94.4843 212.197 93.499C216.877 90.2904 218.468 88.7751 218.471 87.521C218.473 86.9117 218.86 85.6276 219.332 84.6674C220.751 81.7755 220.423 81.1418 217.808 81.7304C215.573 82.2335 206.45 86.5765 202.988 88.7849C201.277 89.8766 199.834 90.7261 199.781 90.673C199.728 90.6196 200.187 89.5279 200.801 88.2468C201.659 86.4578 202.281 85.6761 203.486 84.8769C204.348 84.3047 205.838 82.7834 206.796 81.4965C207.754 80.2095 209.204 78.505 210.019 77.7083C210.833 76.9115 211.5 76.0017 211.5 75.6864C211.5 74.9204 210.276 74.5698 209.122 75.0052C208.609 75.199 207.421 75.449 206.483 75.5614C205.544 75.6735 204.596 75.9144 204.377 76.0966C203.98 76.4266 201.106 77.1367 196.934 77.9359C195.512 78.2083 194.579 78.2379 194.286 78.0204C191.513 75.9612 189.096 74.5642 186.238 73.3698C185.28 72.969 183.594 72.4851 182.491 72.2941C181.389 72.1031 180.16 71.7718 179.761 71.5578C178.842 71.0648 166.731 70.805 164.113 71.2219ZM207.785 77.3962C207.915 77.5253 206.098 79.5287 203.749 81.8477C200.273 85.2802 199.284 86.4865 198.433 88.3338C197.272 90.8557 197.038 91.1137 195.907 91.1213C195.25 91.1259 195.123 91.3172 195.123 92.306C195.123 92.9544 194.888 93.6806 194.601 93.9197C194.313 94.1589 194.078 94.5709 194.078 94.8352C194.078 95.3104 193.332 95.5 192.954 95.1208C192.846 95.0133 192.987 94.4655 193.267 93.9033C193.547 93.3412 193.695 92.7498 193.596 92.5891C193.497 92.4285 193.724 91.062 194.101 89.5523C194.477 88.0426 194.926 85.5448 195.098 84.002C195.467 80.7022 196.073 79.955 198.385 79.9526C199.178 79.9515 200.925 79.5622 202.266 79.0871C203.608 78.6119 204.96 78.2198 205.272 78.2156C205.584 78.2114 206.034 77.9726 206.273 77.6845C206.732 77.1308 207.394 77.0044 207.785 77.3962ZM217.771 83.8022C217.771 83.9985 217.156 85.3734 216.403 86.8573C215.414 88.8093 214.668 89.7967 213.707 90.4283C212.977 90.9084 211.072 92.2833 209.473 93.4833C207.875 94.6837 206.4 95.6655 206.195 95.6655C205.642 95.6655 206.095 89.0607 206.689 88.4658C207.133 88.021 216.964 83.4657 217.51 83.4521C217.654 83.4482 217.771 83.606 217.771 83.8022ZM204.526 93.4833C204.523 95.3558 204.391 97.0917 204.233 97.341C203.999 97.7104 203.306 97.6894 200.493 97.2275C198.594 96.9154 196.52 96.4996 195.885 96.303C194.772 95.9584 194.751 95.921 195.335 95.2748C195.668 94.9057 197.013 94.0563 198.323 93.3873C199.634 92.718 201.449 91.703 202.357 91.1315C203.265 90.5599 204.126 90.0893 204.27 90.0858C204.414 90.0823 204.529 91.6108 204.526 93.4833ZM170.544 93.6303C168.372 94.7294 166.9 96.5366 166.9 98.1053C166.9 99.1754 168.138 101.427 169.176 102.246C170.849 103.564 175.94 104.028 177.203 102.977C178.26 102.098 179.251 99.3332 179.26 97.2366C179.268 95.4595 179.118 94.9431 178.27 93.8325C177.288 92.5466 177.229 92.5235 174.96 92.5441C173.103 92.5609 172.236 92.7742 170.544 93.6303ZM42.6832 95.257C41.2693 95.73 40.7278 96.1599 39.8086 97.5379C38.4539 99.5692 38.425 100.048 39.5152 102.436C40.71 105.054 45.0087 108.918 51.6303 113.326C56.991 116.896 58.3568 117.491 58.761 116.435C59.0356 115.719 58.4206 115.052 56.1244 113.578C55.0558 112.892 53.7112 112.003 53.1362 111.602C52.5613 111.202 50.915 110.091 49.4777 109.133C48.0404 108.175 45.6491 106.202 44.1641 104.747C41.5424 102.18 41.4637 102.055 41.4637 100.439C41.4637 99.0874 41.6372 98.6133 42.3856 97.9181C43.1755 97.1846 43.6372 97.0641 45.6087 97.0774C46.8742 97.0858 48.5369 97.3421 49.3035 97.6465C50.07 97.9513 51.4418 98.2739 52.3523 98.3633C53.8474 98.5103 54.0073 98.4558 54.0073 97.8012C54.0073 96.7963 51.6944 95.6735 48.4324 95.095C45.2031 94.5224 44.848 94.5325 42.6832 95.257ZM174.566 96.2014C174.566 97.2736 173.469 98.4586 172.477 98.4586C171.133 98.4586 170.516 97.6409 171.023 96.5278C171.355 95.7957 171.653 95.6655 172.99 95.6655C174.174 95.6655 174.566 95.7985 174.566 96.2014ZM45.9933 121.09C43.2519 122.414 41.4637 124.46 41.4637 126.274C41.4637 127.786 43.6167 131.34 45.993 133.751C48.077 135.866 53.2502 139.658 54.0509 139.658C54.2383 139.658 54.9718 139.969 55.6805 140.351C57.8673 141.527 60.8422 142.8 61.4025 142.8C61.6959 142.8 62.1311 143.036 62.3697 143.324C63.0098 144.097 63.7265 143.962 64.1705 142.985C64.5969 142.047 64.1088 141.054 63.2217 141.054C62.5562 141.054 57.8631 139.122 57.399 138.657C57.1816 138.439 56.837 138.261 56.6328 138.261C55.4575 138.261 50.5474 135.029 48.0714 132.627C43.1856 127.884 42.7773 125.425 46.5397 123.402C47.9902 122.623 48.4275 122.207 48.3543 121.677C48.2526 120.937 46.9696 120.618 45.9933 121.09ZM203.946 138.984C206.517 139.7 209.078 142.889 210.287 146.881C210.97 149.139 210.938 149.434 210.001 149.434C209.561 149.434 209.051 149.569 208.869 149.735C208.687 149.901 207.756 150.227 206.8 150.459C205.845 150.692 204.885 151.03 204.667 151.211C203.736 151.986 197.911 143.267 197.911 141.1C197.911 139.066 200.711 138.084 203.946 138.984ZM55.0028 146.204C53.1509 148.232 52.6136 149.19 52.6136 150.467C52.6136 151.924 54.1585 156.653 54.908 157.492C55.1791 157.795 55.4011 158.196 55.4011 158.383C55.4011 158.811 59.2586 162.701 59.6826 162.701C59.8544 162.701 60.3938 163.015 60.8809 163.399C61.3683 163.783 62.0077 164.098 62.3021 164.098C62.5966 164.098 63.0851 164.317 63.3875 164.586C63.8948 165.037 65.6367 165.61 69.1642 166.488C69.9308 166.679 71.6555 167.111 72.997 167.447C74.3385 167.784 76.3371 168.124 77.4385 168.204C79.1009 168.325 79.4807 168.247 79.673 167.744C80.0075 166.871 79.1852 166.408 76.0657 165.715C74.5695 165.383 72.3263 164.866 71.0806 164.566C69.835 164.266 68.267 163.905 67.5963 163.765C66.9255 163.624 65.044 162.868 63.415 162.086C58.9304 159.932 56.6965 157.255 55.3091 152.371C54.8484 150.75 54.8589 150.49 55.4275 149.378C55.7704 148.71 56.2965 147.957 56.5969 147.707C57.5547 146.911 57.1241 145.244 55.9603 145.244C55.916 145.244 55.485 145.676 55.0028 146.204ZM232.276 147.928C233.674 148.465 232.304 150.075 227.825 153.154C224.186 155.657 222.383 156.615 219.514 157.568C218.651 157.854 217.671 158.2 217.336 158.337C216.944 158.497 216.726 158.427 216.726 158.14C216.726 157.444 218.884 152.925 219.217 152.925C219.38 152.925 219.514 152.704 219.514 152.434C219.514 151.833 222.827 148.796 224.038 148.287C225.919 147.495 230.618 147.29 232.276 147.928ZM245.646 148.127C246.317 148.435 248.042 149.178 249.479 149.778C253.647 151.516 258.538 154.545 258.538 155.387C258.538 155.64 256.216 155.997 252.643 156.294C251.573 156.383 250.15 156.509 249.479 156.575C247.929 156.728 239.07 158.006 235.22 158.631C232.289 159.108 232.281 159.107 230.512 158.174C229.537 157.66 228.358 157.14 227.891 157.018C227.115 156.814 227.277 156.628 229.812 154.816C233.166 152.418 234.772 150.536 235.073 148.651L235.296 147.251L239.861 147.409C243.03 147.518 244.8 147.738 245.646 148.127ZM217.608 150.862C216.931 151.892 216.378 152.856 216.378 153.004C216.378 153.153 216.221 153.274 216.029 153.274C215.524 153.274 215.601 149.935 216.116 149.507C216.482 149.204 218.421 148.787 218.741 148.942C218.794 148.969 218.285 149.833 217.608 150.862ZM211.507 150.917C211.51 151.158 211.678 152.375 211.88 153.623C212.275 156.073 212.408 159.114 212.132 159.391C211.886 159.637 205.402 153.015 205.402 152.518C205.402 152.289 205.872 151.962 206.447 151.79C211.435 150.297 211.497 150.286 211.507 150.917ZM195.546 154.289C196.945 154.446 199.041 154.959 200.202 155.429C202.605 156.402 210.413 161.49 210.716 162.28C210.994 163.005 210.011 163.631 208.163 163.909C206.922 164.095 202.326 165.199 197.911 166.37C193.089 167.65 188.945 168.855 185.587 169.957L181.451 171.314L180.637 170.499C180.19 170.051 179.598 169.684 179.322 169.684C179.046 169.684 178.451 169.294 177.999 168.817C177.548 168.34 177.082 167.948 176.964 167.944C176.845 167.941 175.745 167.264 174.52 166.44C173.293 165.617 170.568 164.183 168.463 163.253C164.445 161.479 157.052 158.874 156.011 158.866C154.829 158.856 155.42 157.918 156.883 157.483C157.697 157.241 158.52 156.916 158.712 156.761C159.02 156.512 161.132 156.032 165.681 155.178C168.155 154.713 168.418 154.683 171.952 154.469C173.869 154.353 176.221 154.122 177.179 153.956C179.122 153.619 191.598 153.845 195.546 154.289ZM144.174 158.44C142.588 159.937 140.506 161.898 139.548 162.799C138.59 163.699 137.257 164.685 136.586 164.99C133.841 166.241 133.207 166.484 131.708 166.87C130.846 167.091 129.591 167.418 128.921 167.597C126.899 168.135 123.906 167.981 121.379 167.207C118.501 166.327 118.278 166.144 118.875 165.162C119.295 164.47 119.24 164.318 118.293 163.551C117.719 163.086 116.81 162.704 116.274 162.703C115.052 162.701 113.59 164.112 113.59 165.294C113.59 166.012 113.251 166.333 111.727 167.055C110.702 167.541 109.752 167.938 109.615 167.938C109.367 167.938 106.206 169.313 104.53 170.149C103.956 170.435 103.659 170.875 103.659 171.438C103.659 172.581 104.571 172.718 106.391 171.848C109.272 170.47 111.178 169.684 111.636 169.684C111.892 169.684 112.494 169.375 112.973 168.997C114.472 167.816 116.299 167.749 118.761 168.788C120.359 169.462 121.784 169.755 124.144 169.896C128.727 170.169 132.123 169.528 136.412 167.578C137.179 167.229 138.198 166.835 138.677 166.702C139.156 166.568 139.783 166.261 140.071 166.018C140.358 165.775 140.985 165.461 141.464 165.32C141.943 165.178 142.571 164.864 142.858 164.621C143.146 164.379 143.773 164.065 144.252 163.924C144.731 163.783 145.476 163.345 145.907 162.949C146.703 162.219 146.979 160.955 146.342 160.955C145.643 160.955 146.023 159.975 147.214 158.71C147.884 157.997 148.433 157.337 148.433 157.242C148.433 156.813 147.679 155.718 147.385 155.718C147.205 155.718 145.76 156.943 144.174 158.44ZM265.159 158.873C270.566 159.723 274.475 162.965 278.826 170.208C279.519 171.36 280.189 172.774 280.316 173.35C280.443 173.926 280.685 174.79 280.854 175.27C281.023 175.75 281.325 177.68 281.525 179.56C281.88 182.889 281.863 183.053 280.863 186.019C277.867 194.904 275.632 198.948 271.548 202.875C269.285 205.051 269.008 205.207 266.03 205.986C264.305 206.437 262.737 206.92 262.545 207.059C262.354 207.198 261.497 207.428 260.642 207.57C259.787 207.711 258.847 207.961 258.552 208.125C258.056 208.4 254.097 209.232 251.221 209.666C246.628 210.359 243.042 210.831 241.029 211.007L239.026 211.182L239.248 205.708C239.722 194.031 237.846 183.969 234.384 179.621C233 177.883 223.295 168.899 219.775 166.097C218.865 165.372 218.12 164.644 218.12 164.478C218.12 164.312 218.629 164.083 219.252 163.968C219.875 163.853 220.777 163.689 221.256 163.603C221.735 163.518 222.676 163.346 223.346 163.223C228.195 162.33 230.266 162.004 231.091 162.003C231.846 162.003 232.471 162.523 234.134 164.534C235.286 165.926 236.23 167.235 236.233 167.443C236.236 167.651 236.635 168.033 237.12 168.293C237.887 168.704 238.078 168.689 238.589 168.177C239.139 167.625 239.136 167.518 238.532 166.454C238.178 165.83 237.203 164.43 236.366 163.341C235.529 162.253 234.845 161.293 234.845 161.208C234.845 161.122 235.903 160.945 237.197 160.814C238.49 160.682 240.097 160.42 240.768 160.23C242.786 159.658 254.241 158.586 258.712 158.55C261.012 158.532 263.913 158.677 265.159 158.873ZM156.728 159.609C157.628 159.829 158.52 160.123 158.712 160.262C158.903 160.402 159.883 160.723 160.89 160.976C161.896 161.229 162.719 161.544 162.719 161.676C162.719 161.808 163.202 162.012 163.792 162.131C165.747 162.522 173.343 166.251 175.891 168.069C179.924 170.948 180.612 172.108 178.587 172.617C177.052 173.003 172.743 175.15 171.036 176.378C166.494 179.649 164.668 182.097 163.03 187.115C161.433 192.003 160.931 195.782 160.679 204.788L160.454 212.834L159.292 214.303C158.653 215.11 157.948 215.766 157.724 215.76C156.631 215.73 153.693 211.649 151.197 206.691C150.376 205.06 149.451 203.333 149.143 202.853C148.209 201.4 147.785 199.71 147.403 195.92C146.774 189.673 146.986 179.344 147.877 172.826C148.497 168.29 150.47 162.86 152.298 160.655C153.596 159.089 154.106 158.968 156.728 159.609ZM227.271 159.733C227.225 159.925 226.912 160.11 226.574 160.145C226.236 160.179 224.573 160.462 222.877 160.773C221.181 161.085 219.638 161.288 219.447 161.224C219.256 161.16 219.86 160.682 220.788 160.16C222.242 159.343 222.813 159.223 224.914 159.298C226.321 159.348 227.319 159.532 227.271 159.733ZM212.598 166.305C213.129 166.709 214.966 166.818 215.901 166.501C216.577 166.272 221.451 170.498 230.7 179.333C232.977 181.508 234.503 184.235 235.365 187.665C236.017 190.263 236.029 190.334 236.556 194.648C236.941 197.796 236.994 206.661 236.643 209.312L236.413 211.058L234.303 211.06C232.948 211.061 231.886 211.264 231.331 211.628C230.48 212.188 223.849 214.434 221.734 214.88L220.644 215.109L220.369 213.084C220.219 211.969 220.049 210.193 219.993 209.137C219.735 204.24 218.8 200.711 216.523 196.032C215.48 193.889 213.814 191.167 212.769 189.897C211.077 187.842 206.739 183.808 205.022 182.694C204.656 182.456 203.226 181.475 201.843 180.512C200.461 179.549 199.253 178.762 199.158 178.762C199.064 178.762 198.392 178.354 197.665 177.855C195.428 176.322 191.605 174.507 188.556 173.53L185.647 172.598L187.162 172.029C188.721 171.444 192.193 170.414 196.169 169.358C197.414 169.027 198.669 168.652 198.956 168.524C199.243 168.396 201.282 167.906 203.486 167.436C205.689 166.965 208.041 166.43 208.712 166.247C210.449 165.774 211.931 165.796 212.598 166.305ZM187.932 174.05C191.14 174.888 198.753 178.859 201.295 181.021C201.527 181.219 202.765 182.087 204.046 182.951C207.533 185.303 211.855 189.58 214.016 192.818C216.06 195.878 218.168 201.107 218.838 204.773C219.048 205.925 219.383 208.91 219.582 211.407C219.781 213.903 219.971 215.979 220.006 216.02C220.07 216.095 221.458 215.723 226.089 214.39C227.501 213.983 229.647 213.186 230.858 212.619C232.68 211.766 233.331 211.626 234.648 211.807L236.237 212.025L236.102 213.462C235.941 215.158 234.928 220.049 234.514 221.127C233.545 223.645 228.142 227.519 222.301 229.882C220.481 230.618 218.521 231.417 217.946 231.656C217.371 231.895 215.803 232.363 214.461 232.695C213.12 233.027 211.709 233.432 211.325 233.595C210.942 233.757 209.688 234.064 208.538 234.277C207.388 234.49 206.055 234.81 205.576 234.988C204.649 235.332 198.194 236.247 194.426 236.568C191.171 236.846 180.812 236.812 179.6 236.52C175.226 235.466 169.015 229.477 166.475 223.862C165.05 220.714 163.769 216.841 163.767 215.673C163.765 215.138 163.529 214.137 163.241 213.448C162.631 211.983 162.529 205.614 163.046 201.25C163.226 199.731 163.553 196.839 163.773 194.822C163.993 192.806 164.296 190.999 164.446 190.807C164.596 190.615 164.825 189.83 164.956 189.061C165.086 188.293 165.842 186.349 166.635 184.741C167.757 182.464 168.466 181.509 169.84 180.426C170.81 179.661 171.656 178.895 171.72 178.724C171.784 178.553 171.972 178.413 172.137 178.413C172.302 178.413 173.347 177.885 174.46 177.24C175.572 176.595 177.266 175.783 178.224 175.435C179.182 175.087 180.202 174.608 180.489 174.37C181.588 173.46 185.093 173.309 187.932 174.05ZM281.78 191.942C281.674 195.158 281.492 198.576 281.376 199.536C281.26 200.496 281.108 201.753 281.039 202.329C280.824 204.114 279.829 208.148 279.5 208.566C279.328 208.784 278.999 209.546 278.77 210.259C278.147 212.199 275.641 213.862 269.166 216.636C268.591 216.882 267.258 217.349 266.204 217.675C265.15 217.999 263.974 218.399 263.591 218.563C259.14 220.469 247.182 222.933 240.594 223.302C236.811 223.514 235.933 223.272 236.549 222.19C237.127 221.173 238.019 217.619 238.422 214.724C238.623 213.283 238.85 212.031 238.927 211.939C239.003 211.848 239.802 211.751 240.701 211.724C243.183 211.648 249.259 210.844 249.653 210.54C249.845 210.392 250.942 210.159 252.092 210.022C255.37 209.631 263.28 207.806 264.984 207.047C265.368 206.876 266.544 206.498 267.598 206.206C270.081 205.519 271.277 204.603 274.044 201.268C276.603 198.184 279.318 192.99 280.559 188.803C281 187.316 281.498 186.099 281.667 186.097C281.838 186.095 281.888 188.671 281.78 191.942ZM161.462 216.672C161.767 217.467 161.742 217.517 161.035 217.517C160.149 217.517 159.865 217.145 160.325 216.589C160.838 215.97 161.203 215.997 161.462 216.672ZM113.952 221.792C115.344 222.889 116.447 225.876 116.205 227.896C116.101 228.764 115.945 229.589 115.859 229.729C115.773 229.869 115.523 231.146 115.305 232.566C115.085 233.986 114.689 235.573 114.422 236.091C114.156 236.61 113.938 237.288 113.938 237.598C113.938 238.366 112.229 240.56 111.632 240.56C110.956 240.56 111.033 239.499 111.84 237.718C112.219 236.881 112.532 235.486 112.537 234.619C112.543 233.239 112.344 232.813 110.949 231.215C109.381 229.418 108.559 229.066 107.172 229.6C106.479 229.866 106.478 230.693 107.167 233.444C107.68 235.493 107.674 235.685 107.08 236.607C106.206 237.962 104.824 239.14 104.095 239.152C103.265 239.167 103.326 238.893 104.562 237.069C105.485 235.706 105.596 235.298 105.402 233.992C105.175 232.465 104.221 230.484 103.1 229.213C102.579 228.622 102.504 227.985 102.611 225.066C102.681 223.169 102.867 221.488 103.024 221.331C103.403 220.953 107.205 220.719 110.396 220.877C112.394 220.977 113.17 221.176 113.952 221.792ZM120.181 230.564C121.22 232.248 121.19 235.492 120.12 237.104C119.303 238.336 116.412 240.012 115.924 239.538C115.77 239.389 115.878 238.655 116.165 237.906C116.451 237.157 117.021 235.131 117.432 233.403C117.843 231.675 118.239 230.064 118.313 229.824C118.557 229.022 119.449 229.375 120.181 230.564ZM84.5068 232.511C84.2615 232.909 81.5796 234.748 80.8173 235.041C80.519 235.155 78.9845 236.13 77.4064 237.206C75.8287 238.283 74.4381 239.164 74.3158 239.164C74.1935 239.164 73.0628 239.835 71.8029 240.654C70.5433 241.475 69.2604 242.299 68.9517 242.488C68.6433 242.676 68.0161 243.085 67.5579 243.398C67.1001 243.71 65.5492 244.715 64.1119 245.632C62.6746 246.548 60.8244 247.746 60.0004 248.293C59.1763 248.841 58.4345 249.289 58.3519 249.289C58.2697 249.289 57.2976 249.876 56.1917 250.594C55.0861 251.312 53.9338 252.059 53.631 252.253C51.5411 253.592 50.3157 254.366 47.447 256.16C45.6595 257.278 42.9156 259.034 41.3494 260.062C39.7832 261.091 38.1821 262.057 37.7908 262.208C37.3995 262.36 36.871 262.736 36.6156 263.044C36.3605 263.352 36.0191 263.604 35.857 263.604C35.695 263.604 34.6556 264.211 33.5476 264.952C32.4399 265.693 30.5141 266.935 29.2685 267.71C28.0228 268.485 25.3573 270.171 23.3451 271.456C13.9736 277.44 13.0663 278.088 13.0663 278.792C13.0663 279.391 13.2614 279.474 14.444 279.378C15.3175 279.308 15.9942 279.021 16.2931 278.593C16.5524 278.222 16.9663 277.919 17.2134 277.919C17.46 277.919 17.9332 277.618 18.2646 277.252C18.5956 276.885 19.2472 276.489 19.7123 276.372C20.1771 276.255 20.5576 276.001 20.5576 275.808C20.5576 275.615 20.9413 275.311 21.4099 275.133C21.8785 274.954 23.0242 274.271 23.9556 273.615C24.8873 272.959 25.9726 272.319 26.3678 272.194C26.7629 272.068 27.366 271.655 27.7085 271.276C28.0511 270.897 28.4653 270.587 28.6291 270.587C28.7932 270.587 29.718 270.03 30.6849 269.349C31.6514 268.668 32.7866 267.958 33.2072 267.77C33.6281 267.583 34.5995 266.957 35.3661 266.378C36.1326 265.801 37.1041 265.183 37.525 265.005C37.9455 264.828 39.0807 264.126 40.0473 263.445C41.0142 262.764 41.939 262.207 42.1031 262.207C42.2668 262.207 42.6849 261.893 43.0316 261.509C43.3783 261.125 43.8414 260.811 44.0602 260.811C44.2787 260.811 44.7641 260.575 45.1386 260.287C46.494 259.244 48.4707 258.017 48.7961 258.017C48.9794 258.017 49.431 257.715 49.7996 257.346C50.1686 256.976 50.8348 256.483 51.2805 256.25C52.0798 255.832 57.122 252.606 58.9586 251.338C59.4777 250.979 59.9889 250.685 60.0945 250.685C60.2 250.685 61.0771 250.129 62.044 249.448C63.0105 248.767 64.1457 248.056 64.5663 247.869C64.9872 247.681 65.9586 247.055 66.7252 246.477C67.4917 245.899 68.445 245.288 68.8437 245.119C69.2423 244.95 70.8555 243.934 72.4287 242.861C74.0015 241.787 75.4284 240.909 75.5988 240.909C75.7695 240.909 76.1238 240.694 76.3862 240.431C77.0385 239.777 79.119 238.723 79.3329 238.937C79.6841 239.289 79.0761 240.4 78.2545 240.909C77.7894 241.197 75.0507 243.004 72.1684 244.925C64.3565 250.129 60.7377 252.431 60.369 252.431C60.1871 252.431 59.7547 252.745 59.4081 253.129C59.0614 253.513 58.6467 253.828 58.4868 253.828C58.3269 253.828 57.2927 254.456 56.1889 255.224C55.0847 255.992 54.0049 256.62 53.7885 256.621C53.5725 256.621 53.193 256.866 52.9453 257.165C52.6976 257.464 52.0118 257.94 51.4219 258.222C49.854 258.971 48.869 259.575 48.146 260.231C47.7944 260.549 47.362 260.811 47.1853 260.811C47.009 260.811 45.9613 261.44 44.8571 262.207C43.7532 262.976 42.7341 263.604 42.5923 263.604C42.4508 263.604 41.4581 264.214 40.387 264.959C39.3156 265.705 38.1003 266.422 37.6867 266.554C37.2727 266.685 36.934 266.937 36.934 267.114C36.934 267.291 36.4243 267.673 35.8016 267.964C35.179 268.254 33.8068 269.036 32.7528 269.7C31.6988 270.365 30.6406 270.915 30.4009 270.922C30.1615 270.929 29.9654 271.078 29.9654 271.252C29.9654 271.426 29.2207 272.013 28.3103 272.556C27.3998 273.1 26.3416 273.738 25.9584 273.973C25.5751 274.207 24.8695 274.593 24.3904 274.83C23.9113 275.067 23.2437 275.491 22.9071 275.773C22.1768 276.384 21.1196 277.016 19.6587 277.714C19.0688 277.996 18.383 278.472 18.1353 278.771C17.8876 279.07 17.4147 279.315 17.0848 279.315C16.7545 279.315 16.2005 279.629 15.8538 280.013C15.5071 280.398 15.0367 280.712 14.8085 280.712C14.5802 280.712 14.1098 281.026 13.7632 281.41C13.4165 281.794 12.8746 282.108 12.5593 282.108C11.9579 282.108 11.1499 282.749 11.1499 283.226C11.1499 283.379 12.0907 283.505 13.2405 283.505C14.3903 283.505 15.3311 283.359 15.3311 283.18C15.3311 283.002 16.4677 282.209 17.8573 281.418C19.2468 280.628 21.3242 279.361 22.474 278.603C23.6238 277.845 24.9566 277.03 25.4357 276.792C25.9148 276.555 27.1692 275.768 28.2232 275.045C29.2772 274.321 30.2636 273.73 30.4148 273.729C30.5664 273.729 31.1152 273.439 31.6343 273.086C34.5859 271.075 36.9828 269.539 37.1703 269.539C37.288 269.539 38.2633 268.952 39.3368 268.235C40.4107 267.518 41.7194 266.693 42.2452 266.402C43.8951 265.489 49.992 261.704 50.1745 261.479C50.2704 261.361 50.7407 261.061 51.2198 260.813C52.093 260.361 54.0157 259.152 57.7499 256.708C58.8499 255.988 60.0683 255.242 60.4572 255.05C62.3206 254.13 77.6545 243.971 80.4469 241.806C83.5706 239.385 84.0605 238.742 83.6357 237.623C83.1058 236.226 83.1532 236.108 84.6138 235.184C86.4591 234.017 87.1135 233.298 86.8825 232.694C86.665 232.127 84.8309 231.986 84.5068 232.511ZM144.078 233.47C146.615 236.601 146.969 238.309 145.627 240.946C144.821 242.529 144.201 242.569 143.876 241.058C143.755 240.496 142.928 238.63 142.038 236.91C141.148 235.191 140.419 233.575 140.419 233.32C140.419 232.85 141.555 232.243 142.51 232.203C142.797 232.191 143.503 232.761 144.078 233.47ZM138.001 236.021C138.138 236.501 138.446 237.783 138.686 238.87C139.093 240.716 139.07 240.928 138.346 242.104C137.625 243.271 135.02 244.9 134.444 244.543C134.314 244.463 134.104 243.73 133.978 242.915C133.851 242.1 133.423 240.623 133.026 239.634C132.629 238.644 132.397 237.594 132.509 237.3C132.77 236.619 136.197 234.939 137.082 235.058C137.453 235.108 137.862 235.537 138.001 236.021ZM15.3269 269.976C15.3248 270.216 14.5015 270.984 13.4976 271.682C10.767 273.582 7.20737 276.838 6.65719 277.939C6.13907 278.976 5.23662 279.404 4.51292 278.956C4.19097 278.756 4.59655 277.985 6.00631 276.118C8.29274 273.09 9.32968 272.086 11.6726 270.633C13.4548 269.528 15.3342 269.19 15.3269 269.976Z" fill="#BB7D58"/>
</svg>
