<svg width="113" height="109" viewBox="0 0 113 109" fill="none" xmlns="http://www.w3.org/2000/svg">
<g opacity="0.9">
<rect width="113" height="108.824" fill="#BB7D58"/>
<path fill-rule="evenodd" clip-rule="evenodd" d="M46.1074 18.5824C32.8993 19.5016 26.4108 20.5124 23.5325 22.099C21.5495 23.1923 19.5384 25.4229 18.6788 27.483C17.1459 31.1568 16.2547 42.8528 16.4675 56.5036C16.6542 68.4878 17.459 75.9799 18.923 79.3674C19.7854 81.3629 21.9842 83.7727 23.8036 84.7161C30.4221 88.1478 58.9066 89.484 77.585 87.2391C86.6288 86.1519 89.6509 85.1163 92.1759 82.2392C94.0331 80.1227 94.7028 78.125 95.34 72.7986C96.3692 64.1977 96.5654 60.8841 96.5635 52.118C96.5616 43.2753 96.3763 40.3998 95.334 33.0283C94.5281 27.3284 93.6296 25.2546 90.9757 22.9705C88.4032 20.7564 86.1301 20.2155 75.0071 19.1723C70.0808 18.7103 50.1238 18.303 46.1074 18.5824ZM75.0071 23.6122C81.0519 24.2661 85.0967 24.9479 86.7792 25.5969C88.5389 26.2756 90.592 28.5963 90.9923 30.3589C91.4658 32.4454 92.3238 39.4965 92.6717 44.164C93.1384 50.4222 92.834 61.2779 91.9768 68.9504C91.1304 76.524 90.9592 77.2924 89.7736 78.831C88.4787 80.5119 86.7716 81.375 83.4192 82.0451C71.3451 84.458 51.083 84.9213 36.1051 83.1268C27.9994 82.1558 24.7225 80.9725 23.1659 78.4556C20.3362 73.8788 19.1414 51.8906 20.8781 36.3569C21.6727 29.2498 22.1706 28.0671 25.0969 26.3351C27.3647 24.9931 33.4152 23.9221 42.9868 23.1697C48.5534 22.7319 69.5509 23.022 75.0071 23.6122ZM46.2431 53.4295C46.2431 67.8375 46.3063 70.8763 46.6015 70.6669C46.7986 70.5269 52.5988 66.6339 59.4911 62.0154C66.383 57.3973 72.0221 53.516 72.0221 53.3904C72.0221 53.2017 61.8888 46.3265 48.8888 37.6948L46.2431 35.9379V53.4295ZM57.4293 48.3796C61.4175 51.0481 64.6805 53.3032 64.6805 53.3907C64.6805 53.5838 50.2622 63.2541 49.9743 63.2537C49.8625 63.2537 49.7707 58.8154 49.7707 53.3907C49.7707 47.966 49.8625 43.5276 49.9743 43.5276C50.0861 43.5273 53.4409 45.7109 57.4293 48.3796Z" fill="white"/>
</g>
</svg>
