<svg width="55" height="53" viewBox="0 0 55 53" fill="none" xmlns="http://www.w3.org/2000/svg">
<g opacity="0.7">
<rect width="55" height="52.9673" fill="#BB7D58"/>
</g>
<path fill-rule="evenodd" clip-rule="evenodd" d="M22.4417 9.04453C16.013 9.49191 12.8549 9.9839 11.4539 10.7562C10.4887 11.2883 9.50989 12.374 9.09147 13.3767C8.34537 15.1648 7.91163 20.8576 8.01517 27.5018C8.10604 33.3348 8.49778 36.9814 9.21034 38.6302C9.63008 39.6014 10.7003 40.7743 11.5859 41.2335C14.8072 42.9038 28.6714 43.5542 37.7626 42.4615C42.1645 41.9324 43.6355 41.4283 44.8644 40.0279C45.7684 38.9978 46.0943 38.0254 46.4045 35.433C46.9054 31.2467 47.0009 29.6338 47 25.3672C46.9991 21.0632 46.9089 19.6636 46.4016 16.0757C46.0093 13.3014 45.572 12.2921 44.2803 11.1803C43.0282 10.1027 41.9218 9.83942 36.5079 9.33164C34.1102 9.10678 24.3966 8.90856 22.4417 9.04453ZM36.5079 11.4927C39.4501 11.8109 41.4188 12.1428 42.2377 12.4587C43.0942 12.789 44.0935 13.9185 44.2883 14.7764C44.5188 15.792 44.9364 19.224 45.1057 21.4957C45.3329 24.5418 45.1847 29.8256 44.7675 33.56C44.3555 37.2462 44.2722 37.6202 43.6952 38.3691C43.0649 39.1872 42.234 39.6073 40.6023 39.9334C34.7255 41.1079 24.8635 41.3334 17.5733 40.46C13.6281 39.9873 12.0331 39.4114 11.2755 38.1863C9.8982 35.9587 9.31666 25.2565 10.162 17.6958C10.5487 14.2366 10.791 13.661 12.2154 12.818C13.3191 12.1648 16.2641 11.6435 20.9228 11.2773C23.6322 11.0642 33.8522 11.2054 36.5079 11.4927ZM22.5077 26.0055C22.5077 33.0183 22.5385 34.4973 22.6822 34.3954C22.7781 34.3273 25.6012 32.4324 28.9559 30.1845C32.3104 27.9367 35.0551 26.0476 35.0551 25.9865C35.0551 25.8946 30.1229 22.5483 23.7955 18.347L22.5077 17.4919V26.0055ZM27.9524 23.5476C29.8935 24.8464 31.4817 25.944 31.4817 25.9866C31.4817 26.0806 24.4639 30.7874 24.3238 30.7872C24.2694 30.7872 24.2247 28.627 24.2247 25.9866C24.2247 23.3463 24.2694 21.186 24.3238 21.186C24.3782 21.1859 26.0111 22.2487 27.9524 23.5476Z" fill="white"/>
</svg>
