<svg width="171" height="79" viewBox="0 0 171 79" fill="none" xmlns="http://www.w3.org/2000/svg">
<path fill-rule="evenodd" clip-rule="evenodd" d="M34.9656 70.6582L34.5791 71.7704H34.4412C34.2233 71.4613 34.0713 71.2755 33.9905 71.2086C33.8253 71.0087 33.5785 70.8484 33.2508 70.7251C32.9231 70.6018 32.6122 70.5401 32.3231 70.5401C31.4218 70.5401 30.7093 70.8766 30.1884 71.5512C29.9389 71.8937 29.7492 72.2645 29.6227 72.6635C29.497 73.0651 29.4346 73.5054 29.4346 73.989C29.4346 74.3509 29.4654 74.6856 29.5243 74.9947C29.5866 75.3003 29.6841 75.6015 29.8221 75.8992C30.0706 76.4523 30.43 76.89 30.8947 77.2079C31.3594 77.525 31.8953 77.6852 32.4944 77.6852C32.9345 77.6852 33.3263 77.5954 33.6768 77.4184C34.0265 77.2387 34.4078 76.963 34.8171 76.5897L34.9147 76.6408L34.8338 77.4131C34.0582 77.9776 33.1972 78.2577 32.2564 78.2577C31.3541 78.2577 30.5811 78.078 29.9336 77.7187C29.2897 77.3593 28.7959 76.8618 28.4604 76.2277C28.124 75.5901 27.9562 74.8741 27.9562 74.0788C27.9562 73.2359 28.138 72.5032 28.5052 71.8823C28.8716 71.2641 29.3846 70.7894 30.0461 70.4609C30.7041 70.1323 31.4578 69.9668 32.3064 69.9668C33.3404 69.9668 34.2259 70.1975 34.9656 70.6582ZM43.6925 74.0224C43.6925 73.4191 43.7988 72.874 44.0088 72.3852C44.2187 71.8964 44.5218 71.4693 44.9162 71.1011C45.3089 70.7339 45.7631 70.4529 46.2753 70.2592C46.7857 70.0654 47.3488 69.9668 47.962 69.9668C48.7272 69.9668 49.4045 70.1323 49.9931 70.4644C50.5816 70.7955 51.0411 71.2755 51.3688 71.899C51.6965 72.5252 51.8616 73.2501 51.8616 74.0788C51.8616 74.6125 51.772 75.1294 51.5901 75.635C51.411 76.1378 51.1422 76.5897 50.7837 76.9886C50.4244 77.3849 49.9764 77.6967 49.4387 77.9213C48.9038 78.1459 48.309 78.2577 47.6598 78.2577C46.9368 78.2577 46.2701 78.0895 45.6594 77.7521C45.048 77.4157 44.5692 76.9243 44.2187 76.2752C43.8691 75.6288 43.6925 74.8767 43.6925 74.0224ZM47.9453 70.489C47.2786 70.489 46.7374 70.6722 46.3262 71.0368C45.9116 71.4024 45.6173 71.8744 45.4381 72.4557C45.2616 73.0369 45.1719 73.6464 45.1719 74.2813C45.1719 74.9013 45.2616 75.4632 45.4381 75.9723C45.6173 76.4778 45.9028 76.8988 46.2946 77.2325C46.6899 77.5673 47.189 77.7354 47.7881 77.7354C48.3793 77.7354 48.8721 77.5337 49.2621 77.126C49.654 76.7218 49.9368 76.225 50.1161 75.6376C50.2926 75.0502 50.3822 74.5033 50.3822 73.9943C50.3822 73.5759 50.341 73.1629 50.2593 72.756C50.1785 72.3455 50.0405 71.9748 49.8534 71.641C49.6654 71.3064 49.4106 71.0316 49.0935 70.8149C48.7773 70.5991 48.3933 70.489 47.9453 70.489ZM60.9444 76.4884H61.0752C61.2887 76.845 61.5715 77.1401 61.9273 77.3788C62.2831 77.6175 62.6442 77.7354 63.0114 77.7354C63.2776 77.7354 63.5385 77.6711 63.7933 77.539C64.048 77.4069 64.2554 77.222 64.4178 76.986C64.5778 76.7499 64.6586 76.491 64.6586 76.2048C64.6586 75.7054 64.5074 75.362 64.2079 75.177C63.9083 74.9885 63.4181 74.7948 62.7374 74.5931C62.0565 74.3879 61.5461 74.1466 61.2044 73.8621C60.8626 73.5821 60.6913 73.1127 60.6913 72.461C60.6913 71.6859 60.9496 71.0791 61.4653 70.6326C61.9801 70.1887 62.6336 69.9668 63.426 69.9668C63.8214 69.9668 64.1965 70.0117 64.5523 70.1042C64.9081 70.194 65.1663 70.2953 65.3315 70.4054C65.183 70.7277 65.0451 71.1293 64.9195 71.604H64.7736C64.7069 71.4243 64.5944 71.2473 64.4372 71.0703C64.2887 70.8906 64.1209 70.748 63.9303 70.6441C63.7423 70.5401 63.5464 70.489 63.3453 70.489C62.913 70.489 62.5493 70.6133 62.2577 70.8598C61.9633 71.1073 61.8185 71.4473 61.8185 71.8876C61.8185 72.3623 61.9695 72.6996 62.2743 72.8934C62.5774 73.0871 63.0676 73.295 63.7397 73.5116C64.4126 73.7274 64.9221 73.9775 65.2665 74.2611C65.6117 74.5482 65.7848 74.9912 65.7848 75.5953C65.7848 76.1599 65.6364 76.6434 65.3368 77.0502C65.0398 77.4545 64.6507 77.7583 64.1684 77.9574C63.687 78.1573 63.1932 78.2577 62.6925 78.2577C61.9107 78.2577 61.2096 78.078 60.5912 77.7187C60.7871 77.1119 60.9048 76.7024 60.9444 76.4884ZM75.052 78.1229V70.0654L75.4298 70.0989L75.724 70.1156L76.0017 70.0989L76.3961 70.0654V71.5142C76.5753 71.1971 76.7861 70.9215 77.0216 70.6916C77.2561 70.4609 77.5311 70.2812 77.8474 70.1553C78.1671 70.0285 78.5115 69.9668 78.8813 69.9668C79.4444 69.9668 79.9513 70.1156 80.4003 70.4107C80.8482 70.7083 81.1592 71.1152 81.3358 71.6383C81.9912 70.5234 82.8714 69.9668 83.9774 69.9668C84.9614 69.9668 85.6589 70.2389 86.0674 70.7868C86.4794 71.3319 86.6841 72.1518 86.6841 73.2501V78.1229L86.4065 78.0983C86.3231 78.0983 86.2641 78.0919 86.2246 78.0816L86.0121 78.0727H85.8074L85.6255 78.0895L85.3391 78.1229V73.6402C85.3391 73.3539 85.3277 73.0933 85.3057 72.8511C85.2828 72.6098 85.2495 72.3878 85.1994 72.1826C85.1177 71.7951 84.9385 71.4754 84.661 71.2227C84.3869 70.9699 83.9889 70.8431 83.4679 70.8431C82.7142 70.8431 82.2047 71.1011 81.9385 71.6155C81.6723 72.1324 81.5405 72.7841 81.5405 73.5732V78.1229L81.2629 78.0983C81.1786 78.0983 81.1197 78.0919 81.0811 78.0816L80.8676 78.0727L80.6383 78.0816L80.4503 78.0983L80.1955 78.1229V73.1884C80.1955 72.394 80.0524 71.804 79.7695 71.419C79.4839 71.0342 79.0324 70.8431 78.414 70.8431C77.8728 70.8431 77.4556 70.9497 77.1586 71.1637C76.8643 71.3768 76.6623 71.6577 76.5533 72.003C76.5032 72.1773 76.4637 72.3658 76.4383 72.5648C76.4101 72.7674 76.3961 72.9832 76.3961 73.2192V78.1229L76.1194 78.0983C76.035 78.0983 75.9762 78.0919 75.9366 78.0816L75.724 78.0727L75.413 78.0895L75.052 78.1229ZM102.733 76.3871L102.717 77.2669C102.285 77.5725 101.812 77.8147 101.296 77.997C101.047 78.0842 100.803 78.1485 100.568 78.1934C100.332 78.2356 100.086 78.2577 99.828 78.2577C99.0638 78.2577 98.3767 78.0921 97.7715 77.7636C97.1671 77.4351 96.6989 76.9552 96.365 76.3202C96.0321 75.6878 95.8643 74.9524 95.8643 74.1122C95.8643 73.3231 96.0127 72.6151 96.3062 71.9889C96.604 71.3653 97.0406 70.8713 97.6231 70.5093C98.2063 70.1464 98.9038 69.9668 99.7138 69.9668C100.179 69.9668 100.613 70.0426 101.019 70.1975C101.423 70.3517 101.784 70.5789 102.103 70.8827C102.42 71.1884 102.672 71.582 102.857 72.0647C103.042 72.5482 103.137 73.1012 103.137 73.7247L103.129 73.9211L103.121 74.0956C102.742 74.0956 102.176 74.0875 101.422 74.07C100.666 74.0532 100.097 74.0453 99.7138 74.0453H97.3427L97.326 74.3994C97.326 74.8371 97.3875 75.2448 97.514 75.6209C97.6405 75.9969 97.8277 76.329 98.0771 76.6178C98.3267 76.9041 98.6402 77.1322 99.0154 77.3004C99.394 77.4659 99.806 77.5505 100.249 77.5505C101.106 77.5505 101.935 77.163 102.733 76.3871H102.733ZM97.3261 73.4218H101.814C101.814 72.9999 101.773 72.6124 101.686 72.2584C101.602 71.9052 101.475 71.5899 101.314 71.309C100.994 70.762 100.459 70.489 99.7051 70.489C99.2175 70.489 98.8002 70.6273 98.4559 70.8995C98.1079 71.1743 97.8392 71.5371 97.6485 71.9915C97.5422 72.2504 97.464 72.4918 97.4078 72.719C97.3542 72.9471 97.3261 73.1796 97.3261 73.4218ZM112.34 68.3939L113.685 67.8716V70.0681H115.464L115.43 70.4054C115.43 70.5031 115.441 70.6044 115.464 70.7083H113.685V74.9383V75.5452C113.685 76.1828 113.766 76.6936 113.931 77.0837C114.094 77.4748 114.428 77.6685 114.932 77.6685C114.991 77.6685 115.078 77.6597 115.189 77.643C115.302 77.6262 115.467 77.5954 115.686 77.5505V77.9547C115.111 78.1573 114.64 78.2577 114.276 78.2577C113.968 78.2577 113.699 78.219 113.467 78.1432C113.234 78.0674 113.035 77.9266 112.864 77.7275C112.696 77.5276 112.564 77.2467 112.475 76.8847C112.385 76.5227 112.34 76.0982 112.34 75.6094V70.7083H111.295C111.32 70.6273 111.334 70.5199 111.334 70.3878C111.334 70.2283 111.32 70.1209 111.295 70.0681H112.34V68.3939ZM126.24 70.0654V78.1229L125.962 78.0983C125.879 78.0983 125.82 78.0919 125.78 78.0816L125.568 78.0727H125.363L125.181 78.0895L124.895 78.1229V70.0654L125.281 70.1183H125.568H125.839L126.24 70.0654ZM126.425 67.1864C126.425 67.4163 126.341 67.6189 126.17 67.7897C126.002 67.9615 125.8 68.046 125.573 68.046C125.344 68.046 125.142 67.9615 124.968 67.7897C124.798 67.6189 124.711 67.4163 124.711 67.1864C124.711 66.9504 124.796 66.7478 124.96 66.5796C125.128 66.4114 125.332 66.3269 125.573 66.3269C125.797 66.3269 125.994 66.4114 126.167 66.5796C126.338 66.7478 126.425 66.9504 126.425 67.1864ZM143.032 70.6582L142.646 71.7704H142.508C142.29 71.4613 142.138 71.2755 142.057 71.2086C141.892 71.0087 141.645 70.8484 141.317 70.7251C140.99 70.6018 140.679 70.5401 140.39 70.5401C139.488 70.5401 138.776 70.8766 138.255 71.5512C138.005 71.8937 137.816 72.2645 137.689 72.6635C137.564 73.0651 137.501 73.5054 137.501 73.989C137.501 74.3509 137.532 74.6856 137.591 74.9947C137.653 75.3003 137.751 75.6015 137.889 75.8992C138.137 76.4523 138.497 76.89 138.961 77.2079C139.426 77.525 139.962 77.6852 140.561 77.6852C141.001 77.6852 141.393 77.5954 141.743 77.4184C142.093 77.2387 142.474 76.963 142.884 76.5897L142.981 76.6408L142.9 77.4131C142.125 77.9776 141.264 78.2577 140.323 78.2577C139.421 78.2577 138.648 78.078 138 77.7187C137.356 77.3593 136.863 76.8618 136.527 76.2277C136.191 75.5901 136.023 74.8741 136.023 74.0788C136.023 73.2359 136.205 72.5032 136.572 71.8823C136.938 71.2641 137.451 70.7894 138.113 70.4609C138.771 70.1323 139.524 69.9668 140.373 69.9668C141.407 69.9668 142.293 70.1975 143.032 70.6582Z" fill="black"/>
<path fill-rule="evenodd" clip-rule="evenodd" d="M153.858 28.9685L149.185 39.9871H158.618L153.858 28.9685ZM156.134 21.4343L170.472 54.944C168.518 54.8035 166.319 54.8056 164.364 54.944C163.543 52.539 162.722 50.2938 161.917 48.2008C161.105 46.1074 160.251 44.0462 159.343 42.0007H148.292L146.403 46.7146L144.865 50.8374C144.339 52.3235 143.901 53.6898 143.542 54.944C142.132 54.8043 140.342 54.789 139.036 54.944L153.955 21.4343C154.682 21.4343 155.408 21.4343 156.134 21.4343Z" fill="black"/>
<path fill-rule="evenodd" clip-rule="evenodd" d="M137.987 22.1615L127.148 32.6283L123.051 36.7274L127.076 41.2893L131.731 46.5546L134.687 49.9106L138.561 54.7122V54.944C136.552 54.8118 134.209 54.8081 132.166 54.944C130.939 53.1545 129.847 51.6923 128.883 50.5658L118.7 38.6849V54.944C117.046 54.806 115.031 54.8072 113.405 54.944V22.1454C115.06 22.2764 117.031 22.2686 118.7 22.1536V36.7539L118.808 36.6873C119.095 36.4716 119.43 36.1756 119.828 35.8081C120.227 35.441 120.737 34.9536 121.343 34.3384L133.115 22.1536C134.762 22.2851 136.475 22.269 137.987 22.1615Z" fill="black"/>
<path fill-rule="evenodd" clip-rule="evenodd" d="M105.462 22.1536V54.944C104.617 54.944 103.77 54.944 102.925 54.944C102.318 54.1371 101.49 53.1623 100.446 52.0279L80.4046 29.8143V54.944C79.4038 54.8118 77.6517 54.7969 76.6398 54.944V22.1536C77.6237 22.1536 78.608 22.1536 79.5918 22.1536L101.697 46.1975V22.1454C102.763 22.2835 104.379 22.274 105.462 22.1536Z" fill="black"/>
<path fill-rule="evenodd" clip-rule="evenodd" d="M63.115 54.944V22.1536C64.7825 22.274 66.7461 22.2699 68.4104 22.1454V54.944C66.7548 54.8072 64.7454 54.7924 63.115 54.944Z" fill="black"/>
<path fill-rule="evenodd" clip-rule="evenodd" d="M44.2138 22.1536V52.5257C44.8633 52.5096 45.7866 52.4852 46.984 52.4513C49.2475 52.3872 50.8495 52.3554 51.7818 52.3554C53.5294 52.3554 55.6369 52.0594 57.4196 51.9238L57.3243 52.787L57.2765 53.3703L57.3243 53.9614L57.4196 54.8002H56.3326H40.0057H38.9183V22.1454C40.5707 22.2756 42.5508 22.2719 44.2138 22.1536Z" fill="black"/>
<path fill-rule="evenodd" clip-rule="evenodd" d="M29.7372 27.9143C29.0675 27.1152 28.3265 26.436 27.5216 25.8771C26.7084 25.3178 25.8717 24.8544 25.0107 24.4865C24.1423 24.1189 23.1699 23.8234 22.0859 23.5919C19.4464 23.0429 17.0209 23.2645 14.4862 24.2389C12.7806 24.8941 11.3221 25.861 10.1106 27.1392C8.89129 28.4178 7.95895 29.9999 7.29752 31.8932C6.63569 33.7787 6.30086 35.9122 6.30086 38.3012C6.30086 41.4653 6.83484 44.2058 7.91111 46.4989C8.98698 48.8002 10.6047 50.5815 12.7646 51.8519C13.8403 52.4592 15.028 52.9148 16.3273 53.2264C17.4724 53.5009 18.7103 53.658 20.0468 53.6911C22.6665 53.6261 24.9728 53.0842 26.9715 52.0598V39.7473C28.6263 39.8775 30.606 39.8713 32.2666 39.7473V53.3223C30.1627 54.0255 28.0349 54.5604 25.8672 54.9441C20.5206 55.8928 13.162 55.9991 8.33786 53.3541C5.70007 51.9081 3.73931 49.9023 2.45646 47.3298C1.17321 44.749 0.527466 41.825 0.527466 38.5489C0.527466 35.8002 0.98967 33.3554 1.9064 31.2219C2.82306 29.0809 4.122 27.283 5.80353 25.837C7.48514 24.3827 9.47806 23.2802 11.7811 22.5373C12.9047 22.1776 14.0845 21.9056 15.3195 21.7143C18.3875 21.2575 23.1399 21.3546 26.0346 21.9457C27.7158 22.2814 29.0708 22.6651 30.0988 23.0883C31.0633 23.4641 31.8521 23.8395 32.4579 24.2149C32.3226 24.6543 32.1074 25.3575 31.8282 26.3244C31.6691 26.8515 31.5177 27.3872 31.3582 27.9143C30.4526 27.9143 30.5359 27.9143 29.7372 27.9143Z" fill="black"/>
<path fill-rule="evenodd" clip-rule="evenodd" d="M20.0133 17.7378C22.4117 17.4908 31.2717 16.3298 33.8613 12.5004C37.1685 7.6092 31.2703 3.76845 27.7974 10.1712C26.1536 13.2 22.7231 16.2688 20.0133 17.5362V17.7378ZM17.7282 17.7378C15.3298 17.4908 6.46831 16.3298 3.8774 12.5004C0.57146 7.6092 6.46975 3.76845 9.9413 10.1712C11.5851 13.2 15.0169 16.2702 17.7282 17.5377V17.7378ZM21.9176 4.53204C21.9176 2.62867 20.7382 0.74231 18.8693 0.74231C17.0019 0.74231 15.8211 2.62867 15.8211 4.53204C15.8211 7.18336 18.3114 12.7403 18.79 16.5513H18.9501C19.4272 12.7403 21.9176 7.18336 21.9176 4.53204Z" fill="black"/>
</svg>
