<svg width="58" height="21" viewBox="0 0 58 21" fill="none" xmlns="http://www.w3.org/2000/svg">
<path fill-rule="evenodd" clip-rule="evenodd" d="M52.2578 10.689L50.6651 14.8616H53.8801L52.2578 10.689ZM53.0336 7.83594L57.9203 20.5256C57.2543 20.4724 56.5046 20.4732 55.8385 20.5256C55.5586 19.6148 55.2788 18.7646 55.0045 17.972C54.7275 17.1793 54.4367 16.3987 54.1271 15.6241H50.3608L49.717 17.4092L49.1928 18.9705C49.0135 19.5332 48.8641 20.0506 48.742 20.5256C48.2612 20.4727 47.6514 20.4669 47.2061 20.5256L52.291 7.83594C52.5386 7.83594 52.7861 7.83594 53.0336 7.83594Z" fill="#333333"/>
<path fill-rule="evenodd" clip-rule="evenodd" d="M46.8487 8.11109L43.1545 12.0747L41.7582 13.627L43.13 15.3545L44.7163 17.3484L45.7239 18.6193L47.0442 20.4375V20.5254C46.3593 20.4753 45.5609 20.4739 44.8645 20.5254C44.4463 19.8477 44.0741 19.294 43.7456 18.8674L40.2751 14.3682V20.5254C39.7114 20.4731 39.0247 20.4735 38.4705 20.5254V8.10498C39.0346 8.15461 39.7062 8.15164 40.2751 8.10811V13.637L40.3121 13.6118C40.4099 13.5301 40.524 13.418 40.6598 13.2788C40.7955 13.1398 40.9694 12.9553 41.176 12.7223L45.1879 8.10811C45.7495 8.15789 46.3333 8.15179 46.8487 8.11109Z" fill="#333333"/>
<path fill-rule="evenodd" clip-rule="evenodd" d="M35.7637 8.10811V20.5254C35.4754 20.5254 35.187 20.5254 34.8988 20.5254C34.6922 20.2198 34.4097 19.8507 34.054 19.4211L27.2236 11.0091V20.5254C26.8825 20.4753 26.2853 20.4696 25.9404 20.5254V8.10811C26.2758 8.10811 26.6112 8.10811 26.9465 8.10811L34.4804 17.2131V8.10498C34.8438 8.15728 35.3944 8.15367 35.7637 8.10811Z" fill="#333333"/>
<path fill-rule="evenodd" clip-rule="evenodd" d="M21.3308 20.5254V8.10811C21.8991 8.15367 22.5684 8.15212 23.1356 8.10498V20.5254C22.5713 20.4735 21.8865 20.4679 21.3308 20.5254Z" fill="#333333"/>
<path fill-rule="evenodd" clip-rule="evenodd" d="M14.889 8.10811V19.6096C15.1104 19.6035 15.425 19.5942 15.8332 19.5814C16.6046 19.5571 17.1506 19.5451 17.4683 19.5451C18.0639 19.5451 18.7822 19.433 19.3898 19.3817L19.3573 19.7085L19.341 19.9294L19.3573 20.1532L19.3898 20.4709H19.0193H13.4548H13.0842V8.10498C13.6474 8.15431 14.3222 8.15288 14.889 8.10811Z" fill="#333333"/>
<path fill-rule="evenodd" clip-rule="evenodd" d="M9.95517 10.2895C9.72694 9.98691 9.47437 9.72971 9.20006 9.51806C8.9229 9.30626 8.63776 9.13076 8.3443 8.99143C8.04833 8.85226 7.71694 8.74033 7.34749 8.65267C6.44788 8.44476 5.62125 8.52868 4.75736 8.89767C4.17609 9.14579 3.67899 9.51195 3.2661 9.99599C2.85053 10.4802 2.53278 11.0793 2.30735 11.7963C2.08179 12.5103 1.96767 13.3182 1.96767 14.2229C1.96767 15.4211 2.14966 16.4589 2.51647 17.3272C2.88315 18.1987 3.43448 18.8733 4.17061 19.3543C4.53726 19.5843 4.94203 19.7568 5.38486 19.8748C5.77512 19.9788 6.19702 20.0383 6.6525 20.0508C7.54535 20.0262 8.33138 19.821 9.01256 19.4331V14.7705C9.57655 14.8198 10.2513 14.8175 10.8172 14.7705V19.9111C10.1002 20.1774 9.37501 20.38 8.63621 20.5253C6.81399 20.8845 4.30608 20.9248 2.66192 19.9232C1.76291 19.3756 1.09465 18.6161 0.657434 17.6419C0.22008 16.6645 0 15.5573 0 14.3167C0 13.2758 0.157527 12.35 0.469965 11.542C0.782377 10.7313 1.22508 10.0505 1.79817 9.50287C2.37129 8.95213 3.05052 8.53463 3.83543 8.25331C4.21838 8.11711 4.62048 8.01411 5.04139 7.94164C6.08699 7.76866 7.70669 7.80544 8.69328 8.0293C9.26624 8.15641 9.72805 8.30169 10.0784 8.46198C10.4071 8.60428 10.676 8.74643 10.8824 8.88858C10.8363 9.05497 10.763 9.32126 10.6678 9.68742C10.6136 9.88704 10.562 10.0899 10.5076 10.2895C10.199 10.2895 10.2274 10.2895 9.95517 10.2895Z" fill="#333333"/>
<path fill-rule="evenodd" clip-rule="evenodd" d="M6.64106 6.43595C7.45848 6.34242 10.4781 5.90276 11.3607 4.45261C12.4878 2.60039 10.4776 1.14596 9.29401 3.57057C8.73378 4.71756 7.56461 5.87964 6.64106 6.35962V6.43595ZM5.86225 6.43595C5.04486 6.34242 2.02469 5.90276 1.14167 4.45261C0.0149459 2.60039 2.02518 1.14596 3.20835 3.57057C3.76858 4.71756 4.93819 5.88019 5.86225 6.36016V6.43595ZM7.29007 1.43512C7.29007 0.714339 6.88813 0 6.25118 0C5.61471 0 5.21229 0.714339 5.21229 1.43512C5.21229 2.43914 6.06104 4.54346 6.22416 5.98662H6.27869C6.44129 4.54346 7.29007 2.43914 7.29007 1.43512Z" fill="#333333"/>
</svg>
