<svg width="180" height="83" viewBox="0 0 180 83" fill="none" xmlns="http://www.w3.org/2000/svg">
<g clip-path="url(#clip0_112_245)">
<path fill-rule="evenodd" clip-rule="evenodd" d="M36.8059 74.1904L36.399 75.3583H36.2538C36.0245 75.0337 35.8644 74.8386 35.7794 74.7683C35.6056 74.5584 35.3457 74.3901 35.0008 74.2606C34.6558 74.1312 34.3285 74.0664 34.0243 74.0664C33.0755 74.0664 32.3256 74.4197 31.7772 75.128C31.5145 75.4877 31.3148 75.8771 31.1817 76.296C31.0494 76.7177 30.9838 77.18 30.9838 77.6877C30.9838 78.0678 31.0161 78.4191 31.0781 78.7437C31.1437 79.0646 31.2464 79.3808 31.3916 79.6935C31.6532 80.2742 32.0315 80.7337 32.5207 81.0676C33.0098 81.4005 33.5739 81.5688 34.2046 81.5688C34.6679 81.5688 35.0803 81.4744 35.4492 81.2886C35.8173 81.0999 36.2187 80.8105 36.6495 80.4184L36.7522 80.4721L36.6671 81.283C35.8506 81.8757 34.9444 82.1698 33.954 82.1698C33.0043 82.1698 32.1906 81.9812 31.509 81.6039C30.8312 81.2266 30.3115 80.7042 29.9582 80.0383C29.6041 79.3689 29.4275 78.617 29.4275 77.782C29.4275 76.897 29.6188 76.1277 30.0054 75.4758C30.391 74.8266 30.9311 74.3282 31.6274 73.9832C32.32 73.6383 33.1134 73.4644 34.0067 73.4644C35.0951 73.4644 36.0272 73.7067 36.8059 74.1904ZM45.9921 77.7228C45.9921 77.0894 46.104 76.517 46.325 76.0037C46.546 75.4905 46.865 75.042 47.2802 74.6555C47.6935 74.2699 48.1716 73.9749 48.7107 73.7715C49.248 73.568 49.8408 73.4644 50.4862 73.4644C51.2917 73.4644 52.0046 73.6383 52.6242 73.9869C53.2437 74.3346 53.7274 74.8386 54.0724 75.4933C54.4173 76.1508 54.5911 76.9119 54.5911 77.782C54.5911 78.3424 54.4968 78.8852 54.3053 79.416C54.1168 79.944 53.8338 80.4184 53.4565 80.8373C53.0783 81.2535 52.6066 81.5808 52.0407 81.8166C51.4776 82.0524 50.8515 82.1698 50.1682 82.1698C49.4071 82.1698 48.7053 81.9932 48.0625 81.639C47.4189 81.2858 46.9149 80.7698 46.546 80.0883C46.1779 79.4096 45.9921 78.6198 45.9921 77.7228ZM50.4686 74.0128C49.7668 74.0128 49.1972 74.2051 48.7644 74.588C48.328 74.9718 48.0181 75.4674 47.8295 76.0778C47.6437 76.6881 47.5493 77.328 47.5493 77.9947C47.5493 78.6457 47.6437 79.2356 47.8295 79.7702C48.0181 80.3009 48.3187 80.743 48.7311 81.0934C49.1472 81.4449 49.6725 81.6215 50.3032 81.6215C50.9255 81.6215 51.4442 81.4097 51.8548 80.9816C52.2673 80.5571 52.565 80.0356 52.7537 79.4187C52.9395 78.802 53.0339 78.2277 53.0339 77.6933C53.0339 77.254 52.9904 76.8203 52.9044 76.3931C52.8194 75.9621 52.6742 75.5729 52.4772 75.2224C52.2793 74.871 52.0111 74.5824 51.6773 74.355C51.3444 74.1284 50.9403 74.0128 50.4686 74.0128ZM64.1519 80.312H64.2897C64.5144 80.6866 64.8121 80.9963 65.1866 81.247C65.5611 81.4976 65.9412 81.6215 66.3277 81.6215C66.6079 81.6215 66.8825 81.5539 67.1508 81.4152C67.4189 81.2765 67.6371 81.0824 67.8082 80.8345C67.9766 80.5867 68.0616 80.3148 68.0616 80.0143C68.0616 79.49 67.9025 79.1294 67.5872 78.9351C67.2719 78.7372 66.7559 78.5338 66.0393 78.322C65.3226 78.1066 64.7853 77.8532 64.4256 77.5545C64.0658 77.2605 63.8855 76.7676 63.8855 76.0833C63.8855 75.2695 64.1574 74.6324 64.7003 74.1635C65.2421 73.6975 65.9301 73.4644 66.7642 73.4644C67.1803 73.4644 67.5752 73.5116 67.9497 73.6087C68.3242 73.703 68.5961 73.8094 68.77 73.9249C68.6137 74.2634 68.4685 74.6851 68.3362 75.1835H68.1827C68.1125 74.9949 67.9941 74.809 67.8286 74.6231C67.6723 74.4345 67.4956 74.2847 67.295 74.1756C67.0971 74.0664 66.8909 74.0128 66.6791 74.0128C66.2242 74.0128 65.8413 74.1432 65.5343 74.4021C65.2245 74.662 65.072 75.019 65.072 75.4813C65.072 75.9797 65.231 76.3339 65.5519 76.5373C65.8709 76.7407 66.3869 76.959 67.0943 77.1865C67.8027 77.4131 68.339 77.6756 68.7015 77.9734C69.0649 78.2749 69.2471 78.74 69.2471 79.3743C69.2471 79.9672 69.0908 80.4748 68.7755 80.902C68.4629 81.3265 68.0533 81.6455 67.5456 81.8545C67.0389 82.0644 66.5191 82.1698 65.9921 82.1698C65.1691 82.1698 64.4311 81.9812 63.7802 81.6039C63.9863 80.9668 64.1102 80.5367 64.1519 80.312ZM79.002 82.0284V73.568L79.3997 73.6031L79.7094 73.6208L80.0017 73.6031L80.4169 73.568V75.0892C80.6055 74.7563 80.8275 74.4669 81.0753 74.2255C81.3222 73.9832 81.6116 73.7946 81.9445 73.6624C82.2811 73.5292 82.6436 73.4644 83.0329 73.4644C83.6256 73.4644 84.1592 73.6208 84.6318 73.9305C85.1033 74.243 85.4307 74.6703 85.6166 75.2196C86.3064 74.0489 87.233 73.4644 88.3972 73.4644C89.433 73.4644 90.1672 73.7502 90.5972 74.3254C91.0308 74.8978 91.2464 75.7587 91.2464 76.9119V82.0284L90.9542 82.0025C90.8663 82.0025 90.8043 81.9958 90.7627 81.9849L90.5389 81.9756H90.3235L90.1321 81.9932L89.8306 82.0284V77.3215C89.8306 77.0209 89.8185 76.7472 89.7954 76.493C89.7714 76.2395 89.7362 76.0065 89.6835 75.7911C89.5975 75.3842 89.4089 75.0485 89.1167 74.7831C88.8282 74.5177 88.4093 74.3845 87.8609 74.3845C87.0675 74.3845 86.5312 74.6555 86.251 75.1956C85.9708 75.7384 85.8321 76.4226 85.8321 77.2512V82.0284L85.5399 82.0025C85.4511 82.0025 85.3891 81.9958 85.3484 81.9849L85.1237 81.9756L84.8824 81.9849L84.6844 82.0025L84.4163 82.0284V76.8471C84.4163 76.013 84.2656 75.3935 83.9678 74.9893C83.6672 74.5852 83.192 74.3845 82.541 74.3845C81.9713 74.3845 81.5321 74.4965 81.2195 74.7212C80.9097 74.9449 80.6971 75.2399 80.5824 75.6024C80.5297 75.7855 80.4881 75.9834 80.4613 76.1924C80.4316 76.4051 80.4169 76.6317 80.4169 76.8794V82.0284L80.1256 82.0025C80.0368 82.0025 79.9748 81.9958 79.9332 81.9849L79.7094 81.9756L79.3821 81.9932L79.002 82.0284ZM108.14 80.2057L108.123 81.1295C107.669 81.4504 107.17 81.7047 106.627 81.8961C106.366 81.9877 106.109 82.0551 105.861 82.1023C105.613 82.1467 105.354 82.1698 105.082 82.1698C104.278 82.1698 103.554 81.996 102.917 81.651C102.281 81.3062 101.788 80.8022 101.437 80.1354C101.086 79.4715 100.91 78.6993 100.91 77.8171C100.91 76.9886 101.066 76.2451 101.375 75.5876C101.688 74.9329 102.148 74.4142 102.761 74.0341C103.375 73.6531 104.109 73.4644 104.962 73.4644C105.451 73.4644 105.908 73.544 106.336 73.7067C106.76 73.8686 107.141 74.1071 107.477 74.4261C107.81 74.7471 108.075 75.1604 108.271 75.6672C108.465 76.1749 108.566 76.7556 108.566 77.4103L108.556 77.6164L108.548 77.7996C108.149 77.7996 107.554 77.7912 106.76 77.7728C105.964 77.7551 105.365 77.7469 104.962 77.7469H102.466L102.448 78.1186C102.448 78.5782 102.513 79.0063 102.646 79.4012C102.779 79.796 102.976 80.1447 103.239 80.448C103.502 80.7485 103.832 80.9881 104.227 81.1647C104.625 81.3385 105.059 81.4273 105.525 81.4273C106.427 81.4273 107.3 81.0204 108.14 80.2057H108.14ZM102.448 77.0922H107.173C107.173 76.6492 107.129 76.2423 107.038 75.8706C106.949 75.4998 106.816 75.1687 106.646 74.8738C106.309 74.2995 105.746 74.0128 104.953 74.0128C104.439 74.0128 104 74.158 103.638 74.4437C103.271 74.7323 102.989 75.1133 102.788 75.5904C102.676 75.8622 102.594 76.1157 102.534 76.3543C102.478 76.5938 102.448 76.8378 102.448 77.0922ZM118.253 71.8129L119.669 71.2646V73.5708H121.541L121.505 73.9249C121.505 74.0276 121.517 74.134 121.541 74.243H119.669V78.6845V79.3217C119.669 79.9912 119.754 80.5276 119.928 80.9372C120.099 81.3478 120.45 81.5512 120.981 81.5512C121.043 81.5512 121.134 81.542 121.252 81.5244C121.37 81.5068 121.544 81.4744 121.774 81.4273V81.8517C121.17 82.0644 120.674 82.1698 120.29 82.1698C119.966 82.1698 119.683 82.1292 119.438 82.0497C119.193 81.9701 118.984 81.8222 118.804 81.6131C118.627 81.4033 118.489 81.1083 118.394 80.7282C118.3 80.3481 118.253 79.9024 118.253 79.3892V74.243H117.153C117.179 74.158 117.194 74.0452 117.194 73.9065C117.194 73.7391 117.179 73.6263 117.153 73.5708H118.253V71.8129ZM132.884 73.568V82.0284L132.592 82.0025C132.504 82.0025 132.442 81.9958 132.4 81.9849L132.177 81.9756H131.961L131.77 81.9932L131.468 82.0284V73.568L131.875 73.6235H132.177H132.462L132.884 73.568ZM133.079 70.5451C133.079 70.7864 132.99 70.9992 132.81 71.1786C132.633 71.3589 132.421 71.4476 132.182 71.4476C131.941 71.4476 131.728 71.3589 131.545 71.1786C131.367 70.9992 131.275 70.7864 131.275 70.5451C131.275 70.2973 131.364 70.0846 131.537 69.9079C131.713 69.7313 131.929 69.6426 132.182 69.6426C132.418 69.6426 132.625 69.7313 132.807 69.9079C132.988 70.0846 133.079 70.2973 133.079 70.5451ZM150.56 74.1904L150.153 75.3583H150.008C149.779 75.0337 149.619 74.8386 149.534 74.7683C149.36 74.5584 149.1 74.3901 148.755 74.2606C148.41 74.1312 148.083 74.0664 147.779 74.0664C146.83 74.0664 146.08 74.4197 145.532 75.128C145.269 75.4877 145.069 75.8771 144.936 76.296C144.804 76.7177 144.738 77.18 144.738 77.6877C144.738 78.0678 144.77 78.4191 144.832 78.7437C144.898 79.0646 145.001 79.3808 145.146 79.6935C145.408 80.2742 145.786 80.7337 146.275 81.0676C146.764 81.4005 147.328 81.5688 147.959 81.5688C148.422 81.5688 148.835 81.4744 149.204 81.2886C149.572 81.0999 149.973 80.8105 150.404 80.4184L150.507 80.4721L150.421 81.283C149.605 81.8757 148.699 82.1698 147.708 82.1698C146.759 82.1698 145.945 81.9812 145.263 81.6039C144.585 81.2266 144.066 80.7042 143.713 80.0383C143.358 79.3689 143.182 78.617 143.182 77.782C143.182 76.897 143.373 76.1277 143.76 75.4758C144.145 74.8266 144.685 74.3282 145.382 73.9832C146.074 73.6383 146.868 73.4644 147.761 73.4644C148.849 73.4644 149.782 73.7067 150.56 74.1904Z" fill="white"/>
<path fill-rule="evenodd" clip-rule="evenodd" d="M161.956 30.4166L157.037 41.9861H166.966L161.956 30.4166ZM164.352 22.5059L179.445 57.6908C177.388 57.5432 175.072 57.5454 173.015 57.6908C172.151 55.1655 171.287 52.8081 170.439 50.6104C169.584 48.4123 168.686 46.2481 167.729 44.1004H156.097L154.109 49.05L152.49 53.3788C151.936 54.9392 151.474 56.3738 151.097 57.6908C149.612 57.5441 147.729 57.528 146.353 57.6908L162.058 22.5059C162.823 22.5059 163.588 22.5059 164.352 22.5059Z" fill="white"/>
<path fill-rule="evenodd" clip-rule="evenodd" d="M145.25 23.2694L133.84 34.2594L129.528 38.5635L133.765 43.3534L138.664 48.8819L141.776 52.4057L145.854 57.4473V57.6907C143.739 57.5519 141.273 57.548 139.122 57.6907C137.83 55.8117 136.681 54.2764 135.666 53.0936L124.947 40.6188V57.6907C123.206 57.5458 121.085 57.5471 119.374 57.6907V23.2524C121.116 23.3901 123.19 23.3818 124.947 23.2611V38.5913L125.061 38.5214C125.364 38.2948 125.716 37.9841 126.135 37.5982C126.555 37.2127 127.092 36.701 127.73 36.055L140.121 23.2611C141.855 23.3992 143.658 23.3822 145.25 23.2694Z" fill="white"/>
<path fill-rule="evenodd" clip-rule="evenodd" d="M111.013 23.2611V57.6907C110.123 57.6907 109.232 57.6907 108.342 57.6907C107.704 56.8435 106.831 55.82 105.732 54.6289L84.6364 31.3047V57.6907C83.5829 57.5519 81.7385 57.5362 80.6733 57.6907V23.2611C81.7091 23.2611 82.7451 23.2611 83.7808 23.2611L107.049 48.5069V23.2524C108.172 23.3975 109.873 23.3874 111.013 23.2611Z" fill="white"/>
<path fill-rule="evenodd" clip-rule="evenodd" d="M66.4368 57.6907V23.2611C68.1921 23.3874 70.259 23.3831 72.0109 23.2524V57.6907C70.2681 57.5471 68.153 57.5315 66.4368 57.6907Z" fill="white"/>
<path fill-rule="evenodd" clip-rule="evenodd" d="M46.5408 23.2611V55.1515C47.2244 55.1346 48.1963 55.109 49.4568 55.0734C51.8393 55.0061 53.5256 54.9727 54.5071 54.9727C56.3466 54.9727 58.5651 54.6619 60.4416 54.5196L60.3413 55.4258L60.2909 56.0383L60.3413 56.659L60.4416 57.5397H59.2974H42.1112H40.9666V23.2524C42.7058 23.3892 44.7902 23.3853 46.5408 23.2611Z" fill="white"/>
<path fill-rule="evenodd" clip-rule="evenodd" d="M31.3022 29.3097C30.5973 28.4707 29.8173 27.7576 28.97 27.1707C28.114 26.5835 27.2334 26.0968 26.327 25.7105C25.4129 25.3246 24.3894 25.0143 23.2483 24.7712C20.4698 24.1947 17.9167 24.4274 15.2486 25.4505C13.4533 26.1385 11.9179 27.1538 10.6427 28.4959C9.3592 29.8384 8.37779 31.4996 7.68155 33.4876C6.98489 35.4673 6.63243 37.7075 6.63243 40.2159C6.63243 43.5382 7.19451 46.4156 8.32743 48.8234C9.45993 51.2397 11.1627 53.1101 13.4363 54.444C14.5687 55.0816 15.8189 55.56 17.1866 55.8873C18.392 56.1755 19.695 56.3404 21.1018 56.3751C23.8594 56.3069 26.2871 55.7379 28.391 54.6623V41.7343C30.1329 41.871 32.2168 41.8645 33.9647 41.7343V55.9879C31.7502 56.7263 29.5104 57.2879 27.2286 57.6907C21.6005 58.6869 13.8547 58.7985 8.77664 56.0213C6.00002 54.503 3.93607 52.397 2.5857 49.6958C1.2349 46.986 0.555176 43.9158 0.555176 40.4759C0.555176 37.5899 1.04171 35.0228 2.00669 32.7827C2.97159 30.5347 4.3389 28.6469 6.10893 27.1286C7.87905 25.6015 9.97686 24.444 12.4011 23.6639C13.5839 23.2863 14.8258 23.0007 16.1258 22.7997C19.3552 22.3201 24.3577 22.4221 27.4048 23.0428C29.1745 23.3953 30.6008 23.7981 31.6829 24.2425C32.6982 24.6371 33.5285 25.0312 34.1661 25.4254C34.0238 25.8867 33.7972 26.6251 33.5033 27.6403C33.3358 28.1938 33.1765 28.7563 33.0085 29.3097C32.0553 29.3097 32.143 29.3097 31.3022 29.3097Z" fill="white"/>
<path fill-rule="evenodd" clip-rule="evenodd" d="M21.0665 18.6244C23.5911 18.3651 32.9174 17.146 35.6433 13.1252C39.1246 7.98947 32.9159 3.95672 29.2602 10.6795C27.5299 13.8598 23.9189 17.0819 21.0665 18.4128V18.6244ZM18.6611 18.6244C16.1365 18.3651 6.80859 17.146 4.08132 13.1252C0.601383 7.98947 6.8101 3.95672 10.4644 10.6795C12.1947 13.8598 15.8071 17.0835 18.6611 18.4143V18.6244ZM23.071 4.75848C23.071 2.75996 21.8296 0.779297 19.8623 0.779297C17.8965 0.779297 16.6536 2.75996 16.6536 4.75848C16.6536 7.54235 19.275 13.3771 19.7788 17.3786H19.9473C20.4495 13.3771 23.071 7.54235 23.071 4.75848Z" fill="white"/>
</g>
<defs>
<clipPath id="clip0_112_245">
<rect width="180" height="82.9493" fill="white"/>
</clipPath>
</defs>
</svg>
